RobotoAvar2-opsz144-wdth25-wght1000.ufo
<glyph name="quotedbl" format="2">
  <advance width="1005.2242990654204"/>
  <unicode hex="0022"/>
  <outline>
    <contour>
      <point x="38.5" y="610.8598130841121" type="line"/>
      <point x="23.5" y="1177.943925233645" type="line"/>
      <point x="23.5" y="1456.0" type="line"/>
      <point x="487.6121495327102" y="1456.0" type="line"/>
      <point x="487.6121495327102" y="1177.943925233645" type="line"/>
      <point x="472.6121495327102" y="610.8598130841121" type="line"/>
    </contour>
    <contour>
      <point x="532.6121495327102" y="610.8598130841121" type="line"/>
      <point x="517.6121495327102" y="1177.943925233645" type="line"/>
      <point x="517.6121495327102" y="1456.0" type="line"/>
      <point x="981.7242990654204" y="1456.0" type="line"/>
      <point x="981.7242990654204" y="1177.943925233645" type="line"/>
      <point x="966.7242990654204" y="610.8598130841121" type="line"/>
    </contour>
  </outline>
</glyph>
<glyph name="numbersign" format="2">
  <advance width="549.95"/>
  <unicode hex="0023"/>
  <outline>
    <contour>
      <point x="-287.7059701492537" y="-20.0" type="line"/>
      <point x="44.9955223880597" y="1501.0" type="line"/>
      <point x="485.5129353233831" y="1501.0" type="line"/>
      <point x="152.81144278606965" y="-20.0" type="line"/>
    </contour>
    <contour>
      <point x="99.7865671641791" y="-20.0" type="line"/>
      <point x="432.48805970149255" y="1501.0" type="line"/>
      <point x="873.005472636816" y="1501.0" type="line"/>
      <point x="540.3039800995025" y="-20.0" type="line"/>
    </contour>
    <contour>
      <point x="-317.7059701492537" y="261.9439252336449" type="line"/>
      <point x="-317.7059701492537" y="613.0280373831775" type="line"/>
      <point x="891.692039800995" y="613.0280373831775" type="line"/>
      <point x="891.692039800995" y="261.9439252336449" type="line"/>
    </contour>
    <contour>
      <point x="-276.7059701492537" y="796.9439252336449" type="line"/>
      <point x="-276.7059701492537" y="1148.0280373831777" type="line"/>
      <point x="924.692039800995" y="1148.0280373831777" type="line"/>
      <point x="924.692039800995" y="796.9439252336449" type="line"/>
    </contour>
  </outline>
</glyph>
<glyph name="dollar" format="2">
  <advance width="1204.333644859813"/>
  <unicode hex="0024"/>
  <outline>
    <contour>
      <point x="11.65" y="548.5323383084577" type="qcurve" smooth="yes"/>
      <point x="11.65" y="555.0845771144278" type="line"/>
      <point x="490.51915887850464" y="555.0845771144278" type="line"/>
      <point x="490.51915887850464" y="548.5323383084577" type="line" smooth="yes"/>
      <point x="490.51915887850464" y="461.14925373134326"/>
      <point x="544.5285046728972" y="414.1583670432882"/>
      <point x="589.5584019156554" y="414.1583670432882" type="qcurve" smooth="yes"/>
      <point x="673.2104686846142" y="414.1583670432882"/>
      <point x="682.4630841121494" y="454.4020086483471"/>
      <point x="682.4630841121494" y="486.2680522620542" type="qcurve" smooth="yes"/>
      <point x="682.4630841121494" y="581.3941042451295"/>
      <point x="594.9554354396244" y="560.0892732598688"/>
      <point x="511.8742990654206" y="537.1775700934579" type="qcurve" smooth="yes"/>
      <point x="210.52934160970844" y="583.4026595992002"/>
      <point x="33.25747663551402" y="803.0747663551401"/>
      <point x="33.25747663551402" y="978.2523364485982" type="qcurve" smooth="yes"/>
      <point x="33.25747663551402" y="1224.8785046728972"/>
      <point x="353.30420560747655" y="1458.0"/>
      <point x="568.8742990654206" y="1458.0" type="qcurve" smooth="yes"/>
      <point x="825.9303738317757" y="1458.0"/>
      <point x="1159.631308411215" y="1197.2590784395777"/>
      <point x="1159.631308411215" y="927.7412935323383" type="qcurve" smooth="yes"/>
      <point x="1159.631308411215" y="918.223880597015" type="line"/>
      <point x="681.4724299065421" y="918.223880597015" type="line"/>
      <point x="681.4724299065421" y="927.7412935323383" type="line" smooth="yes"/>
      <point x="681.4724299065421" y="1016.0296647603105"/>
      <point x="613.9677570093457" y="1044.8407960199006"/>
      <point x="569.8742990654206" y="1044.8407960199006" type="qcurve" smooth="yes"/>
      <point x="529.9434393453294" y="1044.8407960199006"/>
      <point x="523.2248360998744" y="1013.5185288510718"/>
      <point x="523.2248360998744" y="975.6321197749571" type="qcurve" smooth="yes"/>
      <point x="523.2248360998744" y="918.3909424838424"/>
      <point x="537.4889826568094" y="955.2191379550844"/>
      <point x="623.8742990654206" y="961.1588785046729" type="qcurve" smooth="yes"/>
      <point x="983.7714953271028" y="912.6593667178128"/>
      <point x="1162.883644859813" y="713.2660994094946"/>
      <point x="1162.883644859813" y="514.2329939089599" type="qcurve" smooth="yes"/>
      <point x="1162.883644859813" y="241.06542056074767"/>
      <point x="824.9490654205607" y="-3.1588785046728973"/>
      <point x="534.9303738317757" y="-3.1588785046728973" type="qcurve" smooth="yes"/>
      <point x="283.5429185846468" y="-3.1588785046728973"/>
      <point x="11.65" y="293.17910447761193"/>
    </contour>
    <contour>
      <point x="410.8462616822429" y="-170.0" type="line"/>
      <point x="410.8462616822429" y="732.0" type="line"/>
      <point x="781.2387850467288" y="732.0" type="line"/>
      <point x="781.2387850467288" y="80.0" type="line"/>
      <point x="795.2387850467288" y="70.0" type="line"/>
      <point x="795.2387850467288" y="-170.0" type="line"/>
    </contour>
    <contour>
      <point x="424.8462616822429" y="732.0" type="line"/>
      <point x="424.8462616822429" y="1386.0" type="line"/>
      <point x="410.8462616822429" y="1396.0" type="line"/>
      <point x="410.8462616822429" y="1586.0" type="line"/>
      <point x="795.2387850467288" y="1586.0" type="line"/>
      <point x="795.2387850467288" y="732.0" type="line"/>
    </contour>
  </outline>
</glyph>
<glyph name="asterisk" format="2">
  <advance width="698.4"/>
  <unicode hex="002A"/>
  <outline>
    <contour>
      <point x="-224.46169154228852" y="918.2885572139303" type="line"/>
      <point x="-59.471641791044775" y="1345.8805970149253" type="line"/>
      <point x="123.18507462686566" y="1231.9800995024875" type="line"/>
      <point x="115.57810945273633" y="1476.0" type="line"/>
      <point x="582.8218905472636" y="1476.0" type="line"/>
      <point x="575.9562189054726" y="1231.9800995024875" type="line"/>
      <point x="758.6129353233831" y="1345.8805970149253" type="line"/>
      <point x="922.8616915422886" y="918.2885572139303" type="line"/>
      <point x="714.9960199004975" y="827.6865671641791" type="line"/>
      <point x="881.1900497512438" y="652.273631840796" type="line"/>
      <point x="493.3194029850746" y="380.5323383084577" type="line"/>
      <point x="349.9412935323383" y="578.5870646766169" type="line"/>
      <point x="206.56318407960197" y="380.5323383084577" type="line"/>
      <point x="-181.30746268656713" y="652.273631840796" type="line"/>
      <point x="-15.85472636815922" y="827.6865671641791" type="line"/>
    </contour>
  </outline>
</glyph>
<glyph name="plus" format="2">
  <advance width="855.8570093457944"/>
  <unicode hex="002B"/>
  <outline>
    <contour>
      <point x="17.050000000000004" y="491.5607476635514" type="line"/>
      <point x="17.050000000000004" y="854.4392523364486" type="line"/>
      <point x="838.8070093457943" y="854.4392523364486" type="line"/>
      <point x="838.8070093457943" y="491.5607476635514" type="line"/>
    </contour>
    <contour>
      <point x="195.8724299065421" y="265.3271028037383" type="line"/>
      <point x="195.8724299065421" y="1082.6728971962616" type="line"/>
      <point x="659.9845794392522" y="1082.6728971962616" type="line"/>
      <point x="659.9845794392522" y="265.3271028037383" type="line"/>
    </contour>
  </outline>
</glyph>
<glyph name="hyphen" format="2">
  <advance width="295.5"/>
  <unicode hex="002D"/>
  <outline>
    <contour>
      <point x="19.75" y="447.4018691588785" type="line"/>
      <point x="19.75" y="812.5981308411215" type="line"/>
      <point x="275.75" y="812.5981308411215" type="line"/>
      <point x="275.75" y="447.4018691588785" type="line"/>
    </contour>
  </outline>
</glyph>
<glyph name="period" format="2">
  <advance width="611.2429906542056"/>
  <unicode hex="002E"/>
  <outline>
    <contour>
      <point x="32.5" y="240.79439252336448" type="qcurve" smooth="yes"/>
      <point x="32.5" y="349.6168224299065"/>
      <point x="173.36915887850466" y="502.8785046728972"/>
      <point x="305.97663551401865" y="502.8785046728972" type="qcurve" smooth="yes"/>
      <point x="437.87383177570086" y="502.8785046728972"/>
      <point x="578.7429906542056" y="349.6168224299065"/>
      <point x="578.7429906542056" y="240.79439252336448" type="qcurve" smooth="yes"/>
      <point x="578.7429906542056" y="131.26168224299064"/>
      <point x="437.87383177570086" y="-22.0"/>
      <point x="305.97663551401865" y="-22.0" type="qcurve" smooth="yes"/>
      <point x="173.36915887850466" y="-22.0"/>
      <point x="32.5" y="131.26168224299064"/>
    </contour>
  </outline>
</glyph>
<glyph name="slash" format="2">
  <advance width="893.0597014925372"/>
  <unicode hex="002F"/>
  <outline>
    <contour>
      <point x="93.5" y="-125.0" type="line"/>
      <point x="245.5" y="1456.0" type="line"/>
      <point x="799.5597014925372" y="1456.0" type="line"/>
      <point x="647.5597014925372" y="-125.0" type="line"/>
    </contour>
  </outline>
</glyph>
<glyph name="zero" format="2">
  <advance width="1044.7476635514017"/>
  <unicode hex="0030"/>
  <outline>
    <contour>
      <point x="25.0" y="599.214953271028" type="qcurve" smooth="yes"/>
      <point x="25.0" y="856.785046728972" type="line" smooth="yes"/>
      <point x="25.0" y="1199.2897196261683"/>
      <point x="271.42056074766356" y="1486.0"/>
      <point x="521.6635514018692" y="1486.0" type="qcurve" smooth="yes"/>
      <point x="772.6168224299065" y="1486.0"/>
      <point x="1019.7476635514017" y="1199.2897196261683"/>
      <point x="1019.7476635514017" y="856.785046728972" type="qcurve" smooth="yes"/>
      <point x="1019.7476635514017" y="599.214953271028" type="line" smooth="yes"/>
      <point x="1019.7476635514017" y="256.7102803738318"/>
      <point x="770.6168224299065" y="-30.0"/>
      <point x="521.6635514018692" y="-30.0" type="qcurve" smooth="yes"/>
      <point x="273.42056074766356" y="-30.0"/>
      <point x="25.0" y="256.7102803738318"/>
    </contour>
    <contour>
      <point x="507.37383177570086" y="651.6318407960199" type="line" smooth="yes"/>
      <point x="507.37383177570086" y="441.29850746268653"/>
      <point x="511.37383177570086" y="442.30845771144277"/>
      <point x="522.3738317757009" y="442.30845771144277" type="qcurve" smooth="yes"/>
      <point x="533.3738317757009" y="442.30845771144277"/>
      <point x="537.3738317757009" y="441.29850746268653"/>
      <point x="537.3738317757009" y="651.6318407960199" type="qcurve" smooth="yes"/>
      <point x="537.3738317757009" y="803.6268656716418" type="line" smooth="yes"/>
      <point x="537.3738317757009" y="994.7014925373135"/>
      <point x="535.3738317757009" y="1012.9502487562189"/>
      <point x="522.3738317757009" y="1012.9502487562189" type="qcurve" smooth="yes"/>
      <point x="509.37383177570086" y="1012.9502487562189"/>
      <point x="507.37383177570086" y="994.7014925373135"/>
      <point x="507.37383177570086" y="803.6268656716418" type="qcurve" smooth="yes"/>
    </contour>
  </outline>
</glyph>
<glyph name="four" format="2">
  <advance width="1066.7654205607478"/>
  <unicode hex="0034"/>
  <outline>
    <contour>
      <point x="458.27656111963546" y="0.0" type="line"/>
      <point x="458.27656111963546" y="390.89719626168227" type="line"/>
      <point x="458.27656111963546" y="442.89719626168227" type="line"/>
      <point x="458.27656111963546" y="646.1031757102338" type="line"/>
      <point x="446.27656111963546" y="646.1031757102338" type="line"/>
      <point x="532.3620216673642" y="687.5472636815921" type="line"/>
      <point x="665.5382433626261" y="687.5472636815921" type="line"/>
      <point x="742.5382433626261" y="693.4776119402985" type="line"/>
      <point x="1016.0654205607477" y="693.4776119402985" type="line"/>
      <point x="1016.0654205607477" y="249.33830845771143" type="line"/>
      <point x="28.0" y="249.33830845771143" type="line"/>
      <point x="28.0" y="639.2388059701492" type="line"/>
      <point x="365.4606407216255" y="1456.0" type="line"/>
      <point x="955.7718882224393" y="1456.0" type="line"/>
      <point x="955.7718882224393" y="0.0" type="line"/>
    </contour>
  </outline>
</glyph>
<glyph name="six" format="2">
  <advance width="1040.3457943925232"/>
  <unicode hex="0036"/>
  <outline>
    <contour>
      <point x="31.700000000000003" y="614.0" type="qcurve" smooth="yes"/>
      <point x="31.700000000000003" y="644.0" type="line" smooth="yes"/>
      <point x="31.700000000000003" y="1024.0"/>
      <point x="433.8028037383178" y="1441.0322220672338"/>
      <point x="679.2981308411215" y="1442.4527828148973" type="qcurve" smooth="yes"/>
      <point x="906.3355140186916" y="1442.4527828148973" type="line"/>
      <point x="906.3355140186916" y="973.8507927651461" type="line"/>
      <point x="679.2981308411215" y="973.8507927651461" type="line" smooth="yes"/>
      <point x="548.9641930534245" y="973.8507927651461"/>
      <point x="584.7841121495328" y="769.7512437810946"/>
      <point x="584.7841121495328" y="608.7810945273632" type="qcurve" smooth="yes"/>
      <point x="584.7841121495328" y="520.9751243781095" type="line" smooth="yes"/>
      <point x="584.7841121495328" y="322.59203980099505"/>
      <point x="517.1238619984192" y="378.5572139303482"/>
      <point x="539.7093457943926" y="378.5572139303482" type="qcurve" smooth="yes"/>
      <point x="546.9515460082764" y="378.5572139303482"/>
      <point x="501.12990654205595" y="329.9888873390059"/>
      <point x="503.12990654205595" y="478.05356395592133" type="qcurve" smooth="yes"/>
      <point x="505.12990654205595" y="626.1182405728367"/>
      <point x="538.9515460082764" y="575.6119402985075"/>
      <point x="534.288785046729" y="575.6119402985075" type="qcurve" smooth="yes"/>
      <point x="520.2440554238156" y="575.6119402985075"/>
      <point x="578.7841121495328" y="579.4776119402985"/>
      <point x="578.7841121495328" y="464.0" type="qcurve"/>
      <point x="508.78411214953275" y="464.0" type="line"/>
      <point x="508.78411214953275" y="684.0"/>
      <point x="519.7186915887851" y="956.7102803738318"/>
      <point x="635.1579439252337" y="956.7102803738318" type="qcurve" smooth="yes"/>
      <point x="810.9710280373831" y="956.7102803738318"/>
      <point x="1012.0457943925232" y="725.7102803738318"/>
      <point x="1012.0457943925232" y="464.7102803738318" type="qcurve" smooth="yes"/>
      <point x="1012.0457943925232" y="203.71028037383178"/>
      <point x="794.129906542056" y="-30.0"/>
      <point x="553.9429906542057" y="-30.0" type="qcurve" smooth="yes"/>
      <point x="295.6532710280373" y="-30.0"/>
      <point x="31.700000000000003" y="234.0"/>
    </contour>
  </outline>
</glyph>
<glyph name="seven" format="2">
  <advance width="970.5056074766355"/>
  <unicode hex="0037"/>
  <outline>
    <contour>
      <point x="108.93831775700933" y="0.0" type="line"/>
      <point x="501.46168224299066" y="1050.6635514018692" type="line"/>
      <point x="66.2" y="1050.6635514018692" type="line"/>
      <point x="66.2" y="1456.0" type="line"/>
      <point x="1004.4056074766356" y="1456.0" type="line"/>
      <point x="1004.4056074766356" y="1097.7196261682243" type="line"/>
      <point x="638.4242990654207" y="0.0" type="line"/>
    </contour>
  </outline>
</glyph>
<glyph name="eight" format="2">
  <advance width="1054.9476635514018"/>
  <unicode hex="0038"/>
  <outline>
    <contour>
      <point x="14.100000000000009" y="386.0" type="qcurve" smooth="yes"/>
      <point x="14.100000000000009" y="546.0"/>
      <point x="161.6233644859813" y="705.8691588785047"/>
      <point x="286.38971962616824" y="748.8691588785047" type="qcurve"/>
      <point x="286.38971962616824" y="752.8691588785047" type="line"/>
      <point x="183.2495327102804" y="791.8691588785047"/>
      <point x="50.09065420560749" y="927.0"/>
      <point x="50.09065420560749" y="1087.0" type="qcurve" smooth="yes"/>
      <point x="50.09065420560749" y="1287.0"/>
      <point x="269.89439252336444" y="1486.0"/>
      <point x="525.7635514018692" y="1486.0" type="qcurve" smooth="yes"/>
      <point x="781.6327102803738" y="1486.0"/>
      <point x="1004.8570093457944" y="1285.5794392523364"/>
      <point x="1004.8570093457944" y="1087.0" type="qcurve" smooth="yes"/>
      <point x="1004.8570093457944" y="927.0"/>
      <point x="868.6981308411215" y="783.8691588785047"/>
      <point x="768.8476635514018" y="752.8691588785047" type="qcurve"/>
      <point x="768.8476635514018" y="748.8691588785047" type="line"/>
      <point x="891.3242990654206" y="704.8691588785047"/>
      <point x="1041.8476635514016" y="547.0"/>
      <point x="1041.8476635514016" y="386.0" type="qcurve" smooth="yes"/>
      <point x="1041.8476635514016" y="157.0"/>
      <point x="768.8476635514018" y="-30.0"/>
      <point x="526.7635514018692" y="-30.0" type="qcurve" smooth="yes"/>
      <point x="284.67943925233646" y="-30.0"/>
      <point x="14.100000000000009" y="158.0"/>
    </contour>
    <contour>
      <point x="547.296261682243" y="464.6467661691542" type="qcurve" smooth="yes"/>
      <point x="547.296261682243" y="357.93034825870643"/>
      <point x="494.7651787790022" y="384.4875621890547"/>
      <point x="526.7635514018692" y="384.4875621890547" type="qcurve" smooth="yes"/>
      <point x="558.0206304923978" y="384.4875621890547"/>
      <point x="507.23084112149525" y="357.93034825870643"/>
      <point x="507.23084112149525" y="464.6467661691542" type="qcurve" smooth="yes"/>
      <point x="507.23084112149525" y="570.363184079602"/>
      <point x="558.0206304923978" y="550.3582089552239"/>
      <point x="526.7635514018692" y="550.3582089552239" type="qcurve" smooth="yes"/>
      <point x="494.7651787790022" y="550.3582089552239"/>
      <point x="547.296261682243" y="570.363184079602"/>
    </contour>
    <contour>
      <point x="552.296261682243" y="1002.8706467661691" type="qcurve" smooth="yes"/>
      <point x="552.296261682243" y="931.1890547263681"/>
      <point x="498.7303529083554" y="936.6766169154229"/>
      <point x="526.7635514018692" y="936.6766169154229" type="qcurve" smooth="yes"/>
      <point x="554.0554563630446" y="936.6766169154229"/>
      <point x="501.23084112149525" y="931.1890547263681"/>
      <point x="501.23084112149525" y="1002.8706467661691" type="qcurve" smooth="yes"/>
      <point x="501.23084112149525" y="1092.55223880597"/>
      <point x="552.0554563630446" y="1072.2537313432836"/>
      <point x="526.7635514018692" y="1072.2537313432836" type="qcurve" smooth="yes"/>
      <point x="500.7303529083554" y="1072.2537313432836"/>
      <point x="552.296261682243" y="1092.55223880597"/>
    </contour>
  </outline>
</glyph>
<glyph name="nine" format="2">
  <advance width="1095.7476635514017"/>
  <unicode hex="0039"/>
  <outline>
    <contour>
      <point x="85.12242990654207" y="977.7943925233645" type="qcurve" smooth="yes"/>
      <point x="85.12242990654207" y="1241.6355140186915"/>
      <point x="344.9448598130842" y="1486.7102803738317"/>
      <point x="542.5149532710279" y="1486.7102803738317" type="qcurve" smooth="yes"/>
      <point x="836.318691588785" y="1486.7102803738317"/>
      <point x="1064.0476635514017" y="1222.7102803738317"/>
      <point x="1064.0476635514017" y="842.7102803738318" type="qcurve" smooth="yes"/>
      <point x="1064.0476635514017" y="812.7102803738318" type="line" smooth="yes"/>
      <point x="1064.0476635514017" y="413.53271028037386"/>
      <point x="682.5429906542056" y="-17.214953271028037"/>
      <point x="437.04766355140185" y="-30.0" type="qcurve" smooth="yes"/>
      <point x="226.3467289719626" y="-30.0" type="line"/>
      <point x="226.3467289719626" y="438.60199004975124" type="line"/>
      <point x="437.75794392523363" y="438.60199004975124" type="line" smooth="yes"/>
      <point x="609.9084065653043" y="438.60199004975124"/>
      <point x="514.5149532710279" y="661.8511182405729"/>
      <point x="514.5149532710279" y="839.0336634584089" type="qcurve" smooth="yes"/>
      <point x="514.5149532710279" y="937.2177430603989" type="line" smooth="yes"/>
      <point x="514.5149532710279" y="1145.859534105175"/>
      <point x="552.33738317757" y="1078.1530664434833"/>
      <point x="563.8514018691587" y="1078.1530664434833" type="qcurve" smooth="yes"/>
      <point x="577.3654205607477" y="1078.1530664434833"/>
      <point x="596.7485981308411" y="1118.7222299716373"/>
      <point x="594.7485981308411" y="964.1409773562095" type="qcurve" smooth="yes"/>
      <point x="592.7485981308411" y="809.559724740782"/>
      <point x="570.4214953271028" y="852.0668619519226"/>
      <point x="560.907476635514" y="852.0668619519226" type="qcurve" smooth="yes"/>
      <point x="570.7018691588785" y="852.0668619519226"/>
      <point x="515.8667126981915" y="800.2700051146138"/>
      <point x="515.8667126981915" y="985.607476635514" type="qcurve"/>
      <point x="590.5149532710279" y="985.607476635514" type="line"/>
      <point x="590.5149532710279" y="762.7663551401869"/>
      <point x="597.33738317757" y="485.7943925233645"/>
      <point x="458.4588785046729" y="485.7943925233645" type="qcurve" smooth="yes"/>
      <point x="234.3467289719626" y="485.7943925233645"/>
      <point x="85.12242990654207" y="713.9532710280374"/>
    </contour>
  </outline>
</glyph>
<glyph name="less" format="2">
  <advance width="651.6570093457943"/>
  <unicode hex="003C"/>
  <outline>
    <contour>
      <point x="627.2570093457944" y="78.94392523364488" type="line"/>
      <point x="23.5" y="499.14018691588785" type="line"/>
      <point x="23.5" y="847.7009345794393" type="line"/>
      <point x="627.2570093457944" y="1265.056074766355" type="line"/>
      <point x="627.2570093457944" y="742.4859813084112" type="line"/>
      <point x="443.5093457943925" y="677.0" type="line"/>
      <point x="627.2570093457944" y="614.3551401869158" type="line"/>
    </contour>
  </outline>
</glyph>
<glyph name="equal" format="2">
  <advance width="695.8570093457944"/>
  <unicode hex="003D"/>
  <outline>
    <contour>
      <point x="17.050000000000004" y="305.0" type="line"/>
      <point x="17.050000000000004" y="621.0280373831775" type="line"/>
      <point x="678.8070093457943" y="621.0280373831775" type="line"/>
      <point x="678.8070093457943" y="305.0" type="line"/>
    </contour>
    <contour>
      <point x="17.050000000000004" y="704.9719626168225" type="line"/>
      <point x="17.050000000000004" y="1021.0" type="line"/>
      <point x="678.8070093457943" y="1021.0" type="line"/>
      <point x="678.8070093457943" y="704.9719626168225" type="line"/>
    </contour>
  </outline>
</glyph>
<glyph name="question" format="2">
  <advance width="995.118691588785"/>
  <unicode hex="003F"/>
  <outline>
    <contour>
      <point x="228.65887850467288" y="204.67289719626166" type="qcurve" smooth="yes"/>
      <point x="228.65887850467288" y="307.6542056074766"/>
      <point x="362.97663551401865" y="454.3644859813084"/>
      <point x="488.3224299065421" y="454.3644859813084" type="qcurve" smooth="yes"/>
      <point x="614.3785046728972" y="454.3644859813084"/>
      <point x="747.9859813084112" y="307.6542056074766"/>
      <point x="747.9859813084112" y="204.67289719626166" type="qcurve" smooth="yes"/>
      <point x="747.9859813084112" y="102.4018691588785"/>
      <point x="614.3785046728972" y="-44.30841121495327"/>
      <point x="488.3224299065421" y="-44.30841121495327" type="qcurve" smooth="yes"/>
      <point x="362.97663551401865" y="-44.30841121495327"/>
      <point x="228.65887850467288" y="102.4018691588785"/>
    </contour>
    <contour>
      <point x="7.5" y="917.0895522388059" type="line"/>
      <point x="7.5" y="937.0895522388059" type="line" smooth="yes"/>
      <point x="7.5" y="1194.7512437810944"/>
      <point x="236.41077323662066" y="1483.1028037383178"/>
      <point x="476.69626168224295" y="1483.1028037383178" type="qcurve" smooth="yes"/>
      <point x="688.6363742037477" y="1483.1028037383178"/>
      <point x="962.518691588785" y="1273.182266238899"/>
      <point x="962.518691588785" y="1068.03738317757" type="qcurve" smooth="yes"/>
      <point x="962.518691588785" y="951.0841121495328"/>
      <point x="958.929906542056" y="816.411214953271"/>
      <point x="841.6682242990655" y="746.803738317757" type="qcurve" smooth="yes"/>
      <point x="732.9299065420561" y="686.4299065420561"/>
      <point x="733.7429906542056" y="514.5090435672106"/>
      <point x="733.7429906542056" y="472.26605291300507" type="qcurve" smooth="yes"/>
      <point x="733.7429906542056" y="424.4529688008555" type="line"/>
      <point x="225.98598130841123" y="423.03240805319194" type="line"/>
      <point x="225.98598130841123" y="476.52773515599574" type="line" smooth="yes"/>
      <point x="225.98598130841123" y="598.6305388943134"/>
      <point x="278.13551401869154" y="814.6168224299065"/>
      <point x="343.9953271028037" y="859.7102803738318" type="qcurve" smooth="yes"/>
      <point x="402.0700469614544" y="902.0216208676245"/>
      <point x="419.790789045427" y="942.9173757381318"/>
      <point x="419.790789045427" y="985.5896684800299" type="qcurve" smooth="yes"/>
      <point x="419.790789045427" y="1034.902589854466"/>
      <point x="457.0445203887106" y="1069.063002743293"/>
      <point x="476.69626168224295" y="1069.063002743293" type="qcurve" smooth="yes"/>
      <point x="476.70221323290093" y="1069.063002743293"/>
      <point x="504.31308411214945" y="1021.7114427860697"/>
      <point x="504.31308411214945" y="937.0895522388059" type="qcurve" smooth="yes"/>
      <point x="504.31308411214945" y="917.0895522388059" type="line"/>
    </contour>
  </outline>
</glyph>
<glyph name="at" format="2">
  <advance width="1854.0317757009345"/>
  <unicode hex="0040"/>
  <outline>
    <contour>
      <point x="487.6841121495328" y="435.0" type="qcurve" smooth="yes"/>
      <point x="487.6841121495328" y="685.3364485981308"/>
      <point x="700.2355140186916" y="1052.0"/>
      <point x="880.5345794392523" y="1052.0" type="qcurve" smooth="yes"/>
      <point x="957.366355140187" y="1052.0"/>
      <point x="1056.833644859813" y="986.4205607476636"/>
      <point x="1075.4130841121494" y="946.0" type="qcurve"/>
      <point x="1349.6" y="946.0" type="line"/>
      <point x="1337.4878504672897" y="350.0" type="line" smooth="yes"/>
      <point x="1339.7214953271027" y="245.38317757009344"/>
      <point x="1315.0485981308411" y="193.53271028037383"/>
      <point x="1321.5065420560745" y="193.53271028037383" type="qcurve" smooth="yes"/>
      <point x="1339.7588785046728" y="193.53271028037383"/>
      <point x="1374.9738317757005" y="408.01869158878503"/>
      <point x="1374.9738317757005" y="645.7383177570093" type="qcurve" smooth="yes"/>
      <point x="1374.9738317757005" y="892.2990654205607"/>
      <point x="1045.478504672897" y="1156.2112800483565"/>
      <point x="906.6280373831775" y="1156.2112800483565" type="qcurve" smooth="yes"/>
      <point x="714.5065420560746" y="1156.2112800483565"/>
      <point x="494.29158878504666" y="787.3271028037383"/>
      <point x="494.29158878504666" y="455.7383177570093" type="qcurve" smooth="yes"/>
      <point x="494.29158878504666" y="135.51401869158877"/>
      <point x="734.7682242990655" y="-114.79071930069279"/>
      <point x="870.7775700934579" y="-114.79071930069279" type="qcurve" smooth="yes"/>
      <point x="926.0485981308412" y="-114.79071930069279"/>
      <point x="1095.5158878504672" y="-61.500999674524564"/>
      <point x="1131.1514018691587" y="-25.50099967452458" type="qcurve"/>
      <point x="1133.1514018691587" y="-356.7102803738318" type="line"/>
      <point x="1089.5158878504672" y="-400.7102803738318"/>
      <point x="912.0485981308412" y="-446.0"/>
      <point x="854.7775700934579" y="-446.0" type="qcurve" smooth="yes"/>
      <point x="511.3663551401869" y="-446.0"/>
      <point x="25.60000000000001" y="-25.0"/>
      <point x="25.60000000000001" y="458.0" type="qcurve" smooth="yes"/>
      <point x="25.60000000000001" y="941.0"/>
      <point x="502.7682242990654" y="1486.0"/>
      <point x="905.9177570093458" y="1486.0" type="qcurve" smooth="yes"/>
      <point x="1333.2168224299062" y="1486.0"/>
      <point x="1828.4317757009344" y="1019.0"/>
      <point x="1828.4317757009344" y="650.0" type="qcurve" smooth="yes"/>
      <point x="1828.4317757009344" y="351.0"/>
      <point x="1517.0392523364485" y="0.0"/>
      <point x="1246.6841121495327" y="0.0" type="qcurve" smooth="yes"/>
      <point x="1143.6093457943925" y="0.0"/>
      <point x="1065.2168224299064" y="94.57943925233644"/>
      <point x="1068.8990654205606" y="180.0" type="qcurve"/>
      <point x="1055.0018691588784" y="98.1588785046729"/>
      <point x="940.5439252336449" y="0.0"/>
      <point x="842.1140186915887" y="0.0" type="qcurve" smooth="yes"/>
      <point x="704.3757009345794" y="0.0"/>
      <point x="487.6841121495328" y="206.0"/>
    </contour>
    <contour>
      <point x="921.8990654205608" y="484.70795554935603" type="qcurve" smooth="yes"/>
      <point x="913.8990654205608" y="406.972288092249"/>
      <point x="916.7121495327102" y="367.6325382433626"/>
      <point x="926.581308411215" y="367.6325382433626" type="qcurve" smooth="yes"/>
      <point x="955.7861254475287" y="367.6325382433626"/>
      <point x="974.9781559492258" y="432.6949365322918"/>
      <point x="967.3005626075233" y="519.0826707583577" type="qcurve" smooth="yes"/>
      <point x="916.2371413958247" y="716.7235318733436" type="line"/>
      <point x="919.9193843864789" y="707.4112614497606"/>
      <point x="903.1887850467289" y="694.4235365229925"/>
      <point x="906.7121495327102" y="694.4235365229925" type="qcurve" smooth="yes"/>
      <point x="910.131826847073" y="694.4235365229925"/>
      <point x="953.8990654205608" y="841.6189147719347"/>
    </contour>
  </outline>
</glyph>
<glyph name="B" format="2">
  <advance width="1085.5747663551401"/>
  <unicode hex="0042"/>
  <anchor x="509.31775700934577" y="0.0" name="bottom"/>
  <anchor x="509.31775700934577" y="1456.0" name="top"/>
  <outline>
    <contour>
      <point x="34.0" y="0.0" type="line"/>
      <point x="34.0" y="1456.0" type="line"/>
      <point x="628.1682242990655" y="1456.0" type="line" smooth="yes"/>
      <point x="840.3925233644859" y="1456.0"/>
      <point x="1040.8691588785045" y="1270.0"/>
      <point x="1040.8691588785045" y="1085.6261682242991" type="qcurve" smooth="yes"/>
      <point x="1040.8691588785045" y="945.7383177570093"/>
      <point x="984.8411214953271" y="783.6635514018692"/>
      <point x="931.233644859813" y="763.0280373831775" type="qcurve"/>
      <point x="931.233644859813" y="759.0280373831775" type="line"/>
      <point x="992.2897196261683" y="743.8130841121496"/>
      <point x="1062.0747663551401" y="567.1028037383178"/>
      <point x="1062.0747663551401" y="420.0" type="qcurve" smooth="yes"/>
      <point x="1062.0747663551401" y="220.0"/>
      <point x="877.3364485981308" y="0.0"/>
      <point x="669.5327102803737" y="0.0" type="qcurve" smooth="yes"/>
    </contour>
    <contour>
      <point x="528.1308411214953" y="391.5074626865671" type="line"/>
      <point x="537.4205607476636" y="391.5074626865671" type="line" smooth="yes"/>
      <point x="550.6444413446785" y="391.5074626865671"/>
      <point x="557.4205607476636" y="374.3980099502487"/>
      <point x="557.4205607476636" y="482.2686567164179" type="qcurve" smooth="yes"/>
      <point x="557.4205607476636" y="593.1044776119403"/>
      <point x="550.6444413446785" y="571.0298507462687"/>
      <point x="537.4205607476636" y="571.0298507462687" type="qcurve" smooth="yes"/>
      <point x="291.1588785046729" y="571.0298507462687" type="line"/>
      <point x="291.1588785046729" y="912.3532338308457" type="line"/>
      <point x="532.4205607476636" y="912.3532338308457" type="line" smooth="yes"/>
      <point x="542.6792672153252" y="912.3532338308457"/>
      <point x="550.4205607476636" y="895.3980099502487"/>
      <point x="550.4205607476636" y="988.457711442786" type="qcurve" smooth="yes"/>
      <point x="550.4205607476636" y="1080.0348258706467"/>
      <point x="541.6792672153252" y="1060.044776119403"/>
      <point x="532.4205607476636" y="1059.3034825870648" type="qcurve" smooth="yes"/>
      <point x="528.1308411214953" y="1059.3034825870648" type="line"/>
    </contour>
  </outline>
</glyph>
<glyph name="D" format="2">
  <advance width="1096.5350467289718"/>
  <unicode hex="0044"/>
  <anchor x="543.4953271028037" y="0.0" name="bottom"/>
  <anchor x="308.0560747663551" y="728.0" name="center"/>
  <anchor x="543.4953271028037" y="1456.0" name="top"/>
  <outline>
    <contour>
      <point x="34.0" y="0.0" type="line"/>
      <point x="34.0" y="1456.0" type="line"/>
      <point x="625.9439252336449" y="1456.0" type="line" smooth="yes"/>
      <point x="902.3606732691682" y="1456.0"/>
      <point x="1070.7850467289718" y="1274.7246942855816"/>
      <point x="1070.7850467289718" y="744.8785046728972" type="qcurve" smooth="yes"/>
      <point x="1070.7850467289718" y="704.018691588785" type="line" smooth="yes"/>
      <point x="1070.7850467289718" y="199.27530571441858"/>
      <point x="917.3606732691682" y="0.0"/>
      <point x="625.9439252336449" y="0.0" type="qcurve" smooth="yes"/>
    </contour>
    <contour>
      <point x="530.7102803738318" y="435.98507462686564" type="line"/>
      <point x="540.7102803738318" y="435.98507462686564" type="line" smooth="yes"/>
      <point x="530.7301808713441" y="435.98507462686564"/>
      <point x="560.7102803738317" y="385.1890547263681"/>
      <point x="560.7102803738317" y="729.2226716882875" type="qcurve" smooth="yes"/>
      <point x="560.7102803738317" y="719.6745245733947" type="line" smooth="yes"/>
      <point x="560.7102803738317" y="1068.8457711442786"/>
      <point x="530.7301808713441" y="1014.0845771144279"/>
      <point x="540.7102803738318" y="1014.8258706467661" type="qcurve" smooth="yes"/>
      <point x="530.7102803738318" y="1014.8258706467661" type="line"/>
    </contour>
  </outline>
</glyph>
<glyph name="E" format="2">
  <advance width="990.0925233644859"/>
  <unicode hex="0045"/>
  <anchor x="693.8836657832334" y="0.0" name="bottom"/>
  <anchor x="1139.2591714325567" y="0.0" name="ogonek"/>
  <anchor x="695.6334216766634" y="1456.0" name="top"/>
  <anchor x="151.1061049890733" y="1074.0" name="tonos"/>
  <outline>
    <contour>
      <point x="34.0" y="0.0" type="line"/>
      <point x="34.0" y="1456.0" type="line"/>
      <point x="967.3925233644859" y="1456.0" type="line"/>
      <point x="967.3925233644859" y="1045.960199004975" type="line"/>
      <point x="530.7102803738318" y="1045.960199004975" type="line"/>
      <point x="530.7102803738318" y="419.67661691542287" type="line"/>
      <point x="971.3925233644859" y="419.67661691542287" type="line"/>
      <point x="971.3925233644859" y="0.0" type="line"/>
    </contour>
    <contour>
      <point x="284.4485981308411" y="572.6666666666666" type="line"/>
      <point x="284.4485981308411" y="908.5771144278607" type="line"/>
      <point x="947.3925233644859" y="908.5771144278607" type="line"/>
      <point x="947.3925233644859" y="572.6666666666666" type="line"/>
    </contour>
  </outline>
</glyph>
<glyph name="G" format="2">
  <advance width="1086.5158878504672"/>
  <unicode hex="0047"/>
  <anchor x="585.7593457943926" y="0.0" name="bottom"/>
  <anchor x="557.3481308411215" y="1456.0" name="top"/>
  <outline>
    <contour>
      <point x="25.75" y="627.5700934579439" type="qcurve" smooth="yes"/>
      <point x="25.75" y="830.5607476635514" type="line" smooth="yes"/>
      <point x="25.75" y="1216.059562003069"/>
      <point x="312.5439740549588" y="1466.0"/>
      <point x="552.6658878504672" y="1466.0" type="qcurve" smooth="yes"/>
      <point x="794.2151973775979" y="1466.0"/>
      <point x="1025.801099641977" y="1299.8130841121495"/>
      <point x="1033.806074766355" y="1043.564327893244" type="qcurve" smooth="yes"/>
      <point x="1034.516355140187" y="924.7512437810946" type="line"/>
      <point x="547.0397196261683" y="924.7512437810946" type="line"/>
      <point x="544.9088785046729" y="1051.7979727530571" type="line" smooth="yes"/>
      <point x="537.8060747663551" y="1125.5747431068955"/>
      <point x="525.5073813177106" y="1024.0149253731342"/>
      <point x="535.0397196261683" y="1024.0149253731342" type="qcurve" smooth="yes"/>
      <point x="545.3133514669643" y="1024.0149253731342"/>
      <point x="537.2453271028037" y="1092.9018459106337"/>
      <point x="537.2453271028037" y="710.3597433393779" type="qcurve" smooth="yes"/>
      <point x="537.2453271028037" y="759.8458641372576" type="line" smooth="yes"/>
      <point x="537.2453271028037" y="363.8614869577347"/>
      <point x="568.4144813316594" y="410.4875621890547"/>
      <point x="552.2453271028037" y="410.4875621890547" type="qcurve" smooth="yes"/>
      <point x="539.0413470033012" y="410.4875621890547"/>
      <point x="573.1756753615101" y="424.35323383084574"/>
      <point x="567.2453271028037" y="441.9950248756219" type="qcurve"/>
      <point x="567.2453271028037" y="529.955223880597" type="line"/>
      <point x="548.2453271028037" y="529.955223880597" type="line"/>
      <point x="548.2453271028037" y="900.0398009950248" type="line"/>
      <point x="1056.5350467289718" y="900.0398009950248" type="line"/>
      <point x="1058.6658878504672" y="180.0" type="line"/>
      <point x="1018.4415887850469" y="110.0"/>
      <point x="783.2546728971963" y="-10.0"/>
      <point x="590.9742990654206" y="-10.0" type="qcurve" smooth="yes"/>
      <point x="337.05971311665974" y="-10.0"/>
      <point x="25.75" y="227.3609987445948"/>
    </contour>
  </outline>
</glyph>
<glyph name="H" format="2">
  <advance width="1092.1308411214955"/>
  <unicode hex="0048"/>
  <anchor x="545.7102803738317" y="0.0" name="bottom"/>
  <anchor x="544.7102803738317" y="1100.0" name="center"/>
  <anchor x="545.7102803738317" y="1456.0" name="top"/>
  <anchor x="969.8130841121495" y="0.0" name="cy_descender"/>
  <anchor x="-130.0" y="1074.0" name="tonos"/>
  <outline>
    <contour>
      <point x="34.0" y="0.0" type="line"/>
      <point x="34.0" y="1456.0" type="line"/>
      <point x="530.7102803738318" y="1456.0" type="line"/>
      <point x="530.7102803738318" y="0.0" type="line"/>
    </contour>
    <contour>
      <point x="274.00083693681125" y="523.7412935323383" type="line"/>
      <point x="274.00083693681125" y="979.7412935323383" type="line"/>
      <point x="803.6142651229832" y="979.7412935323383" type="line"/>
      <point x="803.6142651229832" y="523.7412935323383" type="line"/>
    </contour>
    <contour>
      <point x="561.4205607476636" y="0.0" type="line"/>
      <point x="561.4205607476636" y="1456.0" type="line"/>
      <point x="1058.1308411214955" y="1456.0" type="line"/>
      <point x="1058.1308411214955" y="0.0" type="line"/>
    </contour>
  </outline>
</glyph>
<glyph name="I" format="2">
  <advance width="566.2102803738318"/>
  <unicode hex="0049"/>
  <anchor x="275.6471962616822" y="0.0" name="bottom"/>
  <anchor x="452.7032710280373" y="0.0" name="ogonek"/>
  <anchor x="285.5911214953271" y="1456.0" name="top"/>
  <anchor x="-134.25" y="1074.0" name="tonos"/>
  <anchor x="275.6471962616822" y="750.0" name="yu_dash"/>
  <outline>
    <contour>
      <point x="34.75" y="0.0" type="line"/>
      <point x="34.75" y="1456.0" type="line"/>
      <point x="531.4602803738318" y="1456.0" type="line"/>
      <point x="531.4602803738318" y="0.0" type="line"/>
    </contour>
  </outline>
</glyph>
<glyph name="J" format="2">
  <advance width="998.5233644859813"/>
  <unicode hex="004A"/>
  <anchor x="428.78271028037386" y="0.0" name="bottom"/>
  <anchor x="744.3434579439252" y="1456.0" name="top"/>
  <outline>
    <contour>
      <point x="14.380841121495326" y="563.9751243781094" type="qcurve" smooth="yes"/>
      <point x="14.380841121495326" y="644.9751243781094" type="line"/>
      <point x="459.2406542056075" y="644.9751243781094" type="line"/>
      <point x="459.2406542056075" y="563.9751243781094" type="line" smooth="yes"/>
      <point x="459.2406542056075" y="427.1094527363184"/>
      <point x="461.27548007625427" y="431.2437810945273"/>
      <point x="474.2406542056075" y="431.2437810945273" type="qcurve" smooth="yes"/>
      <point x="489.2058283349607" y="431.2437810945273"/>
      <point x="489.2406542056075" y="449.6268656716418"/>
      <point x="489.2406542056075" y="659.9751243781094" type="qcurve" smooth="yes"/>
      <point x="489.2406542056075" y="1456.0" type="line"/>
      <point x="985.9509345794393" y="1456.0" type="line"/>
      <point x="985.9509345794393" y="659.9751243781094" type="line" smooth="yes"/>
      <point x="985.9509345794393" y="203.1298646952155"/>
      <point x="714.2912423861999" y="-10.0"/>
      <point x="455.06308411214945" y="-10.0" type="qcurve" smooth="yes"/>
      <point x="239.16202864183754" y="-10.0"/>
      <point x="14.380841121495326" y="210.03301250755567"/>
    </contour>
  </outline>
</glyph>
<glyph name="L" format="2">
  <advance width="866.3383177570093"/>
  <unicode hex="004C"/>
  <anchor x="461.85046728971963" y="0.0" name="bottom"/>
  <anchor x="707.6728971962616" y="728.0" name="center"/>
  <anchor x="329.5140186915887" y="1456.0" name="top"/>
  <anchor x="663.7009345794393" y="1052.0" name="topright"/>
  <outline>
    <contour>
      <point x="34.0" y="0.0" type="line"/>
      <point x="34.0" y="1456.0" type="line"/>
      <point x="544.9158878504672" y="1456.0" type="line"/>
      <point x="544.9158878504672" y="456.0" type="line"/>
      <point x="846.8971962616822" y="456.0" type="line"/>
      <point x="846.8971962616822" y="0.0" type="line"/>
    </contour>
  </outline>
</glyph>
<glyph name="M" format="2">
  <advance width="1458.5140186915887"/>
  <unicode hex="004D"/>
  <anchor x="1019.5301529734504" y="0.0" name="bottom"/>
  <anchor x="1020.2404333472823" y="1456.0" name="top"/>
  <outline>
    <contour>
      <point x="34.0" y="0.0" type="line"/>
      <point x="34.0" y="1456.0" type="line"/>
      <point x="682.7663551401869" y="1456.0" type="line"/>
      <point x="699.6074766355141" y="794.981308411215" type="line" smooth="yes"/>
      <point x="698.8971962616822" y="776.0560747663551"/>
      <point x="719.785046728972" y="666.5981308411215"/>
      <point x="716.233644859813" y="626.6542056074766" type="qcurve"/>
      <point x="722.1028037383178" y="626.6542056074766" type="line"/>
      <point x="719.9719626168223" y="666.5981308411215"/>
      <point x="745.8317757009345" y="773.6355140186915"/>
      <point x="747.252336448598" y="794.981308411215" type="qcurve" smooth="yes"/>
      <point x="763.6728971962616" y="1456.0" type="line"/>
      <point x="1424.5140186915887" y="1456.0" type="line"/>
      <point x="1424.5140186915887" y="0.0" type="line"/>
      <point x="927.4112149532709" y="0.0" type="line"/>
      <point x="927.4112149532709" y="850.411214953271" type="line" smooth="yes"/>
      <point x="927.4112149532709" y="885.3831775700935"/>
      <point x="928.8317757009345" y="968.9065420560748"/>
      <point x="930.1214953271028" y="1004.1682242990654" type="qcurve"/>
      <point x="922.1214953271028" y="1004.1682242990654" type="line"/>
      <point x="919.5420560747664" y="968.9065420560748"/>
      <point x="930.0373831775701" y="885.6728971962617"/>
      <point x="921.9345794392523" y="850.411214953271" type="qcurve" smooth="yes"/>
      <point x="858.766355140187" y="0.0" type="line"/>
      <point x="469.02803738317743" y="0.0" type="line"/>
      <point x="416.80373831775705" y="745.2897196261682" type="line" smooth="yes"/>
      <point x="408.9906542056075" y="777.0"/>
      <point x="409.3831775700935" y="863.785046728972"/>
      <point x="408.80373831775705" y="898.0467289719627" type="qcurve"/>
      <point x="400.80373831775705" y="898.0467289719627" type="line"/>
      <point x="400.09345794392516" y="863.785046728972"/>
      <point x="402.80373831775705" y="780.2616822429907"/>
      <point x="402.80373831775705" y="745.2897196261682" type="qcurve" smooth="yes"/>
      <point x="402.80373831775705" y="0.0" type="line"/>
    </contour>
  </outline>
</glyph>
<glyph name="N" format="2">
  <advance width="1027.9439252336447"/>
  <unicode hex="004E"/>
  <anchor x="799.2599618728784" y="0.0" name="bottom"/>
  <anchor x="799.2599618728784" y="1456.0" name="top"/>
  <anchor x="1070.073045985028" y="0.0" name="engtail"/>
  <outline>
    <contour>
      <point x="34.0" y="0.0" type="line"/>
      <point x="34.0" y="1456.0" type="line"/>
      <point x="571.3831775700935" y="1456.0" type="line"/>
      <point x="588.4112149532709" y="752.785046728972" type="line" smooth="yes"/>
      <point x="593.6728971962616" y="721.7570093457944"/>
      <point x="596.0934579439252" y="672.018691588785"/>
      <point x="595.6728971962616" y="638.4953271028037" type="qcurve"/>
      <point x="602.6728971962616" y="638.4953271028037" type="line"/>
      <point x="600.9626168224299" y="673.4672897196261"/>
      <point x="599.9626168224299" y="727.1588785046729"/>
      <point x="599.9626168224299" y="762.8411214953271" type="qcurve" smooth="yes"/>
      <point x="599.9626168224299" y="1456.0" type="line"/>
      <point x="993.9439252336447" y="1456.0" type="line"/>
      <point x="993.9439252336447" y="0.0" type="line"/>
      <point x="437.3831775700935" y="0.0" type="line"/>
      <point x="430.58878504672896" y="693.981308411215" type="line" smooth="yes"/>
      <point x="426.03738317757006" y="724.2990654205607"/>
      <point x="429.7196261682243" y="780.4299065420561"/>
      <point x="432.98130841121497" y="813.2429906542056" type="qcurve"/>
      <point x="425.2710280373832" y="813.2429906542056" type="line"/>
      <point x="426.98130841121497" y="778.2710280373832"/>
      <point x="428.69158878504675" y="712.5046728971963"/>
      <point x="428.69158878504675" y="677.5327102803739" type="qcurve" smooth="yes"/>
      <point x="428.69158878504675" y="0.0" type="line"/>
    </contour>
  </outline>
</glyph>
<glyph name="P" format="2">
  <advance width="1103.3084112149531"/>
  <unicode hex="0050"/>
  <anchor x="427.9065420560747" y="0.0" name="bottom"/>
  <anchor x="539.4205607476636" y="1456.0" name="top"/>
  <outline>
    <contour>
      <point x="34.0" y="0.0" type="line"/>
      <point x="34.0" y="1456.0" type="line"/>
      <point x="777.9719626168226" y="1456.0" type="line" smooth="yes"/>
      <point x="924.196261682243" y="1456.0"/>
      <point x="1077.3084112149531" y="1194.2437810945273"/>
      <point x="1077.3084112149531" y="920.1144278606965" type="qcurve" smooth="yes"/>
      <point x="1077.3084112149531" y="643.0199004975125"/>
      <point x="924.196261682243" y="343.90547263681594"/>
      <point x="777.9719626168226" y="343.1641791044776" type="qcurve" smooth="yes"/>
      <point x="288.7102803738318" y="343.1641791044776" type="line"/>
      <point x="288.7102803738318" y="774.7014925373135" type="line"/>
      <point x="551.233644859813" y="774.7014925373135" type="line" smooth="yes"/>
      <point x="564.9401125215046" y="774.7014925373135"/>
      <point x="569.233644859813" y="715.179104477612"/>
      <point x="569.233644859813" y="900.0995024875622" type="qcurve" smooth="yes"/>
      <point x="569.233644859813" y="1085.0199004975125"/>
      <point x="564.9401125215046" y="1020.0149253731344"/>
      <point x="551.233644859813" y="1020.7562189054727" type="qcurve" smooth="yes"/>
      <point x="539.233644859813" y="1020.7562189054727" type="line"/>
      <point x="539.233644859813" y="0.0" type="line"/>
    </contour>
  </outline>
</glyph>
<glyph name="Q" format="2">
  <advance width="1110.1728971962616"/>
  <unicode hex="0051"/>
  <anchor x="551.535046728972" y="0.0" name="bottom"/>
  <anchor x="551.535046728972" y="1456.0" name="top"/>
  <outline>
    <contour>
      <point x="25.75" y="729.7009345794393" type="qcurve" smooth="yes"/>
      <point x="25.75" y="728.4299065420561" type="line" smooth="yes"/>
      <point x="25.75" y="1116.5046728971963"/>
      <point x="245.6471962616822" y="1466.0"/>
      <point x="551.535046728972" y="1466.0" type="qcurve" smooth="yes"/>
      <point x="857.4228971962616" y="1466.0"/>
      <point x="1077.320093457944" y="1116.5046728971963"/>
      <point x="1077.320093457944" y="728.4299065420561" type="qcurve" smooth="yes"/>
      <point x="1077.320093457944" y="729.7009345794393" type="line" smooth="yes"/>
      <point x="1077.320093457944" y="330.9158878504673"/>
      <point x="849.320093457944" y="-10.0"/>
      <point x="551.535046728972" y="-10.0" type="qcurve" smooth="yes"/>
      <point x="253.75" y="-10.0"/>
      <point x="25.75" y="330.9158878504673"/>
    </contour>
    <contour>
      <point x="535.535046728972" y="727.2039800995025" type="line" smooth="yes"/>
      <point x="535.535046728972" y="371.30845771144277"/>
      <point x="538.535046728972" y="434.2089552238806"/>
      <point x="550.535046728972" y="434.2089552238806" type="qcurve" smooth="yes"/>
      <point x="562.535046728972" y="434.2089552238806"/>
      <point x="565.535046728972" y="371.30845771144277"/>
      <point x="565.535046728972" y="727.2039800995025" type="qcurve" smooth="yes"/>
      <point x="565.535046728972" y="728.7960199004975" type="line" smooth="yes"/>
      <point x="565.535046728972" y="1084.6915422885572"/>
      <point x="563.535046728972" y="1021.7910447761194"/>
      <point x="550.535046728972" y="1021.7910447761194" type="qcurve" smooth="yes"/>
      <point x="537.535046728972" y="1021.7910447761194"/>
      <point x="535.535046728972" y="1084.6915422885572"/>
      <point x="535.535046728972" y="728.7960199004975" type="qcurve" smooth="yes"/>
    </contour>
    <contour>
      <point x="767.75" y="-185.32710280373828" type="line"/>
      <point x="414.1792090947133" y="149.85153670897847" type="line"/>
      <point x="915.4931068954293" y="459.5637234388804" type="line"/>
      <point x="1078.8714953271028" y="129.34579439252335" type="line"/>
    </contour>
  </outline>
</glyph>
<glyph name="V" format="2">
  <advance width="1171.2990654205607"/>
  <unicode hex="0056"/>
  <anchor x="629.7803738317757" y="0.0" name="bottom"/>
  <anchor x="647.5373831775701" y="1456.0" name="top"/>
  <outline>
    <contour>
      <point x="8.5" y="1456.0" type="line"/>
      <point x="594.8925233644859" y="1456.0" type="line"/>
      <point x="640.5373831775701" y="622.3551401869158" type="line" smooth="yes"/>
      <point x="641.2476635514017" y="595.8785046728972"/>
      <point x="644.5373831775701" y="540.8504672897196"/>
      <point x="643.696261682243" y="505.7196261682243" type="qcurve"/>
      <point x="643.9859813084113" y="505.7196261682243" type="line"/>
      <point x="643.1448598130842" y="541.8504672897196"/>
      <point x="648.2757009345794" y="595.1682242990654"/>
      <point x="646.8551401869158" y="622.3551401869158" type="qcurve" smooth="yes"/>
      <point x="686.6869158878503" y="1456.0" type="line"/>
      <point x="1162.7990654205607" y="1456.0" type="line"/>
      <point x="875.4345794392523" y="-10.0" type="line"/>
      <point x="301.41588785046724" y="-10.0" type="line"/>
    </contour>
  </outline>
</glyph>
<glyph name="X" format="2">
  <advance width="1170.5"/>
  <unicode hex="0058"/>
  <anchor x="582.2126168224299" y="0.0" name="bottom"/>
  <anchor x="582.2126168224299" y="1456.0" name="top"/>
  <anchor x="750.8481308411215" y="0.0" name="cy_descender"/>
  <outline>
    <contour>
      <point x="12.25" y="0.0" type="line"/>
      <point x="301.28738317757006" y="826.5981308411215" type="line"/>
      <point x="463.7359813084113" y="826.5981308411215" type="line"/>
      <point x="620.231308411215" y="1456.0" type="line"/>
      <point x="1158.25" y="1456.0" type="line"/>
      <point x="882.7079439252336" y="659.3457943925233" type="line"/>
      <point x="706.7640186915887" y="659.3457943925233" type="line"/>
      <point x="549.5584112149533" y="0.0" type="line"/>
    </contour>
    <contour>
      <point x="7.988317757009348" y="1456.0" type="line"/>
      <point x="628.1378504672897" y="1456.0" type="line"/>
      <point x="837.1939252336447" y="806.0" type="line"/>
      <point x="847.1939252336447" y="806.0" type="line"/>
      <point x="1158.25" y="0.0" type="line"/>
      <point x="536.679906542056" y="0.0" type="line"/>
      <point x="328.33411214953276" y="670.0" type="line"/>
      <point x="318.33411214953276" y="670.0" type="line"/>
    </contour>
  </outline>
</glyph>
<glyph name="bracketright" format="2">
  <advance width="569.7121495327102"/>
  <unicode hex="005D"/>
  <outline>
    <contour>
      <point x="539.6121495327102" y="-310.0" type="line"/>
      <point x="20.5" y="-310.0" type="line"/>
      <point x="20.5" y="146.51741293532336" type="line"/>
      <point x="70.5" y="146.51741293532336" type="line"/>
      <point x="70.5" y="999.4825870646766" type="line"/>
      <point x="20.5" y="999.4825870646766" type="line"/>
      <point x="20.5" y="1456.0" type="line"/>
      <point x="539.6121495327102" y="1456.0" type="line"/>
    </contour>
  </outline>
</glyph>
<glyph name="asciicircum" format="2">
  <advance width="402.5"/>
  <unicode hex="005E"/>
  <outline>
    <contour>
      <point x="-358.3967661691542" y="720.0" type="line"/>
      <point x="-106.13805970149252" y="1456.0" type="line"/>
      <point x="508.6380597014925" y="1456.0" type="line"/>
      <point x="760.8967661691543" y="720.0" type="line"/>
      <point x="75.40422885572141" y="720.0" type="line"/>
      <point x="201.25" y="956.4179104477612" type="line"/>
      <point x="334.5087064676617" y="720.0" type="line"/>
    </contour>
  </outline>
</glyph>
<glyph name="underscore" format="2">
  <advance width="560.4328358208955"/>
  <unicode hex="005F"/>
  <outline>
    <contour>
      <point x="8.5" y="-712.5174129353234" type="line"/>
      <point x="8.5" y="-244.0" type="line"/>
      <point x="551.9328358208955" y="-244.0" type="line"/>
      <point x="551.9328358208955" y="-712.5174129353234" type="line"/>
    </contour>
  </outline>
</glyph>
<glyph name="b" format="2">
  <advance width="1079.4453271028037"/>
  <unicode hex="0062"/>
  <anchor x="606.5317757009345" y="0.0" name="bottom"/>
  <anchor x="606.5317757009345" y="1535.2897196261683" name="top"/>
  <outline>
    <contour>
      <point x="30.700000000000003" y="0.0" type="line"/>
      <point x="30.700000000000003" y="1536.0" type="line"/>
      <point x="500.8121495327102" y="1536.0" type="line"/>
      <point x="500.8121495327102" y="77.0" type="line"/>
      <point x="490.8121495327102" y="77.0" type="line"/>
      <point x="482.8121495327102" y="0.0" type="line"/>
    </contour>
    <contour>
      <point x="508.8121495327102" y="412.94029850746267" type="qcurve" smooth="yes"/>
      <point x="510.17214953271025" y="412.94029850746267"/>
      <point x="530.8121495327102" y="421.06825870646765"/>
      <point x="530.8121495327102" y="451.636815920398" type="qcurve" smooth="yes"/>
      <point x="530.8121495327102" y="462.139303482587" type="line" smooth="yes"/>
      <point x="530.8121495327102" y="494.93174129353235"/>
      <point x="510.17214953271025" y="503.0597014925374"/>
      <point x="506.8121495327102" y="503.0597014925374" type="qcurve" smooth="yes"/>
      <point x="477.5321495327102" y="503.0597014925374"/>
      <point x="457.8121495327102" y="499.33691542288557"/>
      <point x="457.8121495327102" y="465.43283582089555" type="qcurve" smooth="yes"/>
      <point x="457.8121495327102" y="455.9651741293533" type="line" smooth="yes"/>
      <point x="457.8121495327102" y="425.9908457711442"/>
      <point x="479.1321495327102" y="412.94029850746267"/>
    </contour>
    <contour>
      <point x="680.1392523364486" y="-6.666666666666668" type="qcurve" smooth="yes"/>
      <point x="511.5489719626168" y="-6.666666666666668"/>
      <point x="358.8028037383178" y="233.04"/>
      <point x="358.8028037383178" y="452.0" type="qcurve" smooth="yes"/>
      <point x="358.8028037383178" y="486.0" type="line" smooth="yes"/>
      <point x="358.8028037383178" y="671.2883582089553"/>
      <point x="508.03263588599066" y="922.6666666666666"/>
      <point x="675.1392523364486" y="922.6666666666666" type="qcurve" smooth="yes"/>
      <point x="849.2506542056074" y="922.6666666666666"/>
      <point x="1015.5785046728972" y="776.2680373831776"/>
      <point x="1015.5785046728972" y="564.7663551401869" type="qcurve" smooth="yes"/>
      <point x="1015.5785046728972" y="347.68224299065423" type="line" smooth="yes"/>
      <point x="1015.5785046728972" y="136.6011214953271"/>
      <point x="849.2506542056074" y="-6.666666666666668"/>
    </contour>
  </outline>
</glyph>
<glyph name="c" format="2">
  <advance width="999.6420560747664"/>
  <unicode hex="0063"/>
  <anchor x="520.3060747663551" y="0.0" name="bottom"/>
  <anchor x="520.3060747663551" y="916.0" name="top"/>
  <outline>
    <contour>
      <point x="21.25" y="382.0" type="qcurve" smooth="yes"/>
      <point x="21.25" y="534.0" type="line" smooth="yes"/>
      <point x="21.25" y="797.52"/>
      <point x="271.46308411214955" y="926.0"/>
      <point x="524.2780373831775" y="926.0" type="qcurve" smooth="yes"/>
      <point x="737.9438912912075" y="926.0"/>
      <point x="980.7920560747664" y="797.2340298507462"/>
      <point x="980.7920560747664" y="580.9213930348258" type="qcurve" smooth="yes"/>
      <point x="980.7920560747664" y="468.81858929650804" type="line"/>
      <point x="532.3060747663551" y="468.81858929650804" type="line"/>
      <point x="532.3060747663551" y="580.9213930348258" type="line" smooth="yes"/>
      <point x="532.3060747663551" y="609.5217910447761"/>
      <point x="521.2415971544148" y="499.72139303482595"/>
      <point x="519.3060747663551" y="499.72139303482595" type="qcurve" smooth="yes"/>
      <point x="520.1460747663551" y="499.72139303482595"/>
      <point x="505.3060747663551" y="697.0678606965174"/>
      <point x="505.3060747663551" y="462.88059701492534" type="qcurve" smooth="yes"/>
      <point x="505.3060747663551" y="453.11940298507466" type="line" smooth="yes"/>
      <point x="505.3060747663551" y="208.9321393034826"/>
      <point x="521.1460747663551" y="415.5373134328358"/>
      <point x="519.3060747663551" y="415.5373134328358" type="qcurve" smooth="yes"/>
      <point x="520.2415971544148" y="415.5373134328358"/>
      <point x="532.3060747663551" y="282.1855135537267"/>
      <point x="532.3060747663551" y="311.49619193750874" type="qcurve" smooth="yes"/>
      <point x="532.3060747663551" y="446.44011717115353" type="line"/>
      <point x="980.7920560747664" y="446.44011717115353" type="line"/>
      <point x="980.7920560747664" y="334.33731343283586" type="line" smooth="yes"/>
      <point x="980.7920560747664" y="108.02467661691543"/>
      <point x="739.9438912912075" y="-10.0"/>
      <point x="524.2780373831775" y="-10.0" type="qcurve" smooth="yes"/>
      <point x="268.46308411214955" y="-10.0"/>
      <point x="21.25" y="158.48"/>
    </contour>
  </outline>
</glyph>
<glyph name="d" format="2">
  <advance width="1036.8285046728972"/>
  <unicode hex="0064"/>
  <anchor x="372.6518691588785" y="0.0" name="bottom"/>
  <anchor x="572.3714953271028" y="1313.0" name="center"/>
  <anchor x="372.6518691588785" y="1536.0" name="top"/>
  <anchor x="1037.5490654205607" y="1052.0" name="topright"/>
  <outline>
    <contour>
      <point x="536.016355140187" y="1536.0" type="line"/>
      <point x="1006.1285046728972" y="1536.0" type="line"/>
      <point x="1006.1285046728972" y="0.0" type="line"/>
      <point x="554.016355140187" y="0.0" type="line"/>
      <point x="546.016355140187" y="77.0" type="line"/>
      <point x="536.016355140187" y="77.0" type="line"/>
    </contour>
    <contour>
      <point x="530.0163551401869" y="503.0597014925374" type="qcurve" smooth="yes"/>
      <point x="526.6563551401869" y="503.0597014925374"/>
      <point x="506.0163551401869" y="488.1317412935324"/>
      <point x="506.0163551401869" y="462.139303482587" type="qcurve" smooth="yes"/>
      <point x="506.0163551401869" y="451.636815920398" type="line" smooth="yes"/>
      <point x="506.0163551401869" y="427.86825870646766"/>
      <point x="519.8563551401869" y="412.94029850746267"/>
      <point x="528.0163551401869" y="412.94029850746267" type="qcurve" smooth="yes"/>
      <point x="550.5898874784953" y="412.94029850746267"/>
      <point x="579.016355140187" y="417.4630845771144"/>
      <point x="579.016355140187" y="469.30845771144277" type="qcurve" smooth="yes"/>
      <point x="579.016355140187" y="478.77611940298505" type="line" smooth="yes"/>
      <point x="579.016355140187" y="477.2091542288557"/>
      <point x="566.4028228018784" y="503.0597014925374"/>
    </contour>
    <contour>
      <point x="362.39953271028037" y="922.6666666666666" type="qcurve" smooth="yes"/>
      <point x="533.1520560747664" y="922.6666666666666"/>
      <point x="677.3154205607477" y="660.96"/>
      <point x="677.3154205607477" y="486.0" type="qcurve" smooth="yes"/>
      <point x="677.3154205607477" y="452.0" type="line" smooth="yes"/>
      <point x="677.3154205607477" y="222.84"/>
      <point x="523.3606542056075" y="-6.666666666666668"/>
      <point x="362.39953271028037" y="-6.666666666666668" type="qcurve" smooth="yes"/>
      <point x="180.77785046728968" y="-6.666666666666668"/>
      <point x="21.25" y="190.56"/>
      <point x="21.25" y="362.0" type="qcurve" smooth="yes"/>
      <point x="21.25" y="554.0" type="line" smooth="yes"/>
      <point x="21.25" y="745.44"/>
      <point x="187.5778504672897" y="922.6666666666666"/>
    </contour>
  </outline>
</glyph>
<glyph name="e" format="2">
  <advance width="1021.2359813084113"/>
  <unicode hex="0065"/>
  <anchor x="534.9322429906542" y="0.0" name="bottom"/>
  <anchor x="740.9976635514017" y="0.0" name="ogonek"/>
  <anchor x="520.7266355140187" y="916.0" name="top"/>
  <outline>
    <contour>
      <point x="21.25" y="352.6542056074767" type="qcurve" smooth="yes"/>
      <point x="21.25" y="569.7383177570093" type="line" smooth="yes"/>
      <point x="21.25" y="798.2994392523365"/>
      <point x="290.1539252336448" y="926.0"/>
      <point x="521.7266355140187" y="926.0" type="qcurve" smooth="yes"/>
      <point x="750.5490654205607" y="926.0"/>
      <point x="1000.7359813084113" y="793.2374129353234"/>
      <point x="1000.7359813084113" y="572.726368159204" type="qcurve" smooth="yes"/>
      <point x="1000.7359813084113" y="363.3681592039801" type="line"/>
      <point x="232.85701167061887" y="363.3681592039801" type="line"/>
      <point x="232.85701167061887" y="564.0" type="line"/>
      <point x="526.6238317757009" y="564.0" type="line"/>
      <point x="526.6238317757009" y="648.0915422885572" type="line" smooth="yes"/>
      <point x="526.6238317757009" y="680.3331343283583"/>
      <point x="529.1651253080391" y="569.4029850746269"/>
      <point x="496.0566675965964" y="569.4029850746269" type="qcurve" smooth="yes"/>
      <point x="502.4934835169944" y="569.4029850746269"/>
      <point x="499.62383177570086" y="711.0390049751244"/>
      <point x="499.62383177570086" y="470.2935323383084" type="qcurve" smooth="yes"/>
      <point x="499.62383177570086" y="435.32835820895525" type="line" smooth="yes"/>
      <point x="499.62383177570086" y="190.51323383084576"/>
      <point x="572.9619096108245" y="346.5970149253731"/>
      <point x="584.6117891849165" y="346.5970149253731" type="qcurve" smooth="yes"/>
      <point x="656.4031594364625" y="346.5970149253731"/>
      <point x="770.5230738829218" y="333.82587064676613"/>
      <point x="805.8850490537965" y="406.3980099502487" type="qcurve"/>
      <point x="967.053738317757" y="175.0" type="line"/>
      <point x="927.2219626168226" y="100.0"/>
      <point x="713.2406542056074" y="-10.0"/>
      <point x="540.1939252336449" y="-10.0" type="qcurve" smooth="yes"/>
      <point x="297.9139252336449" y="-10.0"/>
      <point x="21.25" y="112.99028037383178"/>
    </contour>
  </outline>
</glyph>
<glyph name="h" format="2">
  <advance width="1030"/>
  <unicode hex="0068"/>
  <anchor x="512.9710280373832" y="0.0" name="bottom"/>
  <anchor x="284.7560747663551" y="1327.0" name="center"/>
  <anchor x="248.8682242990654" y="1536.0" name="top"/>
  <anchor x="765.8682242990656" y="0.0" name="engtail"/>
  <outline>
    <contour>
      <point x="501" y="0" type="line"/>
      <point x="31" y="0" type="line"/>
      <point x="31" y="1536" type="line"/>
      <point x="501" y="1536" type="line"/>
    </contour>
    <contour>
      <point x="266" y="413" type="line"/>
      <point x="349" y="712"/>
      <point x="534" y="922"/>
      <point x="708" y="923" type="qcurve" smooth="yes"/>
      <point x="857" y="924"/>
      <point x="1001" y="841"/>
      <point x="1001" y="698" type="qcurve" smooth="yes"/>
      <point x="1001" y="0" type="line"/>
      <point x="531" y="0" type="line"/>
      <point x="531" y="445" type="line" smooth="yes"/>
      <point x="531" y="459"/>
      <point x="526" y="466"/>
      <point x="519" y="466" type="qcurve" smooth="yes"/>
      <point x="502" y="466"/>
      <point x="419" y="358"/>
      <point x="266" y="21" type="qcurve"/>
    </contour>
  </outline>
</glyph>
<glyph name="k" format="2">
  <advance width="1071"/>
  <unicode hex="006B"/>
  <anchor x="516.8121495327102" y="0.0" name="bottom"/>
  <anchor x="516.8121495327102" y="1536.0" name="top"/>
  <outline>
    <contour>
      <point x="31" y="0" type="line"/>
      <point x="31" y="1536" type="line"/>
      <point x="501" y="1536" type="line"/>
      <point x="501" y="0" type="line"/>
    </contour>
    <contour>
      <point x="552" y="0" type="line"/>
      <point x="443" y="286" type="line"/>
      <point x="679" y="669" type="line"/>
      <point x="1065" y="0" type="line"/>
    </contour>
    <contour>
      <point x="253" y="18" type="line"/>
      <point x="253" y="502" type="line"/>
      <point x="581" y="916" type="line"/>
      <point x="980" y="916" type="line"/>
    </contour>
  </outline>
</glyph>
<glyph name="l" format="2">
  <advance width="533.9121495327101"/>
  <unicode hex="006C"/>
  <anchor x="269.7971962616822" y="0.0" name="bottom"/>
  <anchor x="269.7971962616822" y="791.0" name="center"/>
  <anchor x="269.7971962616822" y="1536.0" name="top"/>
  <anchor x="538.4046728971963" y="1052.0" name="topright"/>
  <anchor x="266.2457943925233" y="471.96" name="yu_dash"/>
  <outline>
    <contour>
      <point x="31.900000000000006" y="0.0" type="line"/>
      <point x="31.900000000000006" y="1536.0" type="line"/>
      <point x="502.01214953271017" y="1536.0" type="line"/>
      <point x="502.01214953271017" y="0.0" type="line"/>
    </contour>
  </outline>
</glyph>
<glyph name="m" format="2">
  <advance width="1542"/>
  <unicode hex="006D"/>
  <anchor x="778.9429906542057" y="0.0" name="bottom"/>
  <anchor x="778.9429906542057" y="916.0" name="top"/>
  <outline>
    <contour>
      <point x="30.700000000000003" y="0.0" type="line"/>
      <point x="30.700000000000003" y="916.0" type="line"/>
      <point x="482.8121495327102" y="916.0" type="line"/>
      <point x="500.8121495327102" y="821.0" type="line"/>
      <point x="500.8121495327102" y="0.0" type="line"/>
    </contour>
    <contour>
      <point x="1012.9990654205608" y="778.5140186915888" type="qcurve" smooth="yes"/>
      <point x="1012.9990654205608" y="0.0" type="line"/>
      <point x="530.8121495327102" y="0.0" type="line"/>
      <point x="531" y="444" type="line" smooth="yes"/>
      <point x="531" y="458"/>
      <point x="526" y="466"/>
      <point x="520" y="466" type="qcurve" smooth="yes"/>
      <point x="499" y="466"/>
      <point x="407" y="327"/>
      <point x="262" y="20" type="qcurve"/>
      <point x="262.20467289719625" y="438.35514018691583" type="line"/>
      <point x="388.01775700934576" y="743.9439252336449"/>
      <point x="586.8214953271029" y="922.6666666666666"/>
      <point x="767.6252336448599" y="922.6666666666666" type="qcurve" smooth="yes"/>
      <point x="899.7093457943927" y="922.6666666666666"/>
      <point x="1012.9990654205608" y="825.0"/>
    </contour>
    <contour>
      <point x="759.1655693495142" y="397.86915887850466" type="line"/>
      <point x="911.9693076672712" y="765.9626168224299"/>
      <point x="1092.6158878504673" y="922.6666666666666"/>
      <point x="1260.6345794392523" y="922.6666666666666" type="qcurve" smooth="yes"/>
      <point x="1401.2420560747662" y="922.6666666666666"/>
      <point x="1513.1112149532712" y="844.0"/>
      <point x="1513.1112149532712" y="763.0" type="qcurve" smooth="yes"/>
      <point x="1513.1112149532712" y="0.0" type="line"/>
      <point x="1042.9990654205608" y="0.0" type="line"/>
      <point x="1043" y="444" type="line" smooth="yes"/>
      <point x="1043" y="455"/>
      <point x="1037" y="466"/>
      <point x="1031" y="466" type="qcurve" smooth="yes"/>
      <point x="1019" y="466"/>
      <point x="924" y="349"/>
      <point x="761" y="21" type="qcurve"/>
    </contour>
  </outline>
</glyph>
<glyph name="n" format="2">
  <advance width="1030"/>
  <unicode hex="006E"/>
  <anchor x="520.8121495327102" y="0.0" name="bottom"/>
  <anchor x="522.2327102803738" y="916.0" name="top"/>
  <anchor x="765.8682242990656" y="0.0" name="engtail"/>
  <outline>
    <contour>
      <point x="31" y="0" type="line"/>
      <point x="31" y="916" type="line"/>
      <point x="483" y="916" type="line"/>
      <point x="501" y="821" type="line"/>
      <point x="501" y="0" type="line"/>
    </contour>
    <contour>
      <point x="280" y="21" type="qcurve"/>
      <point x="280" y="402" type="line"/>
      <point x="423" y="773"/>
      <point x="599" y="923"/>
      <point x="717" y="923" type="qcurve" smooth="yes"/>
      <point x="842" y="923"/>
      <point x="1001" y="846"/>
      <point x="1001" y="718" type="qcurve" smooth="yes"/>
      <point x="1001" y="0" type="line"/>
      <point x="531" y="0" type="line"/>
      <point x="531" y="443" type="line" smooth="yes"/>
      <point x="531" y="457"/>
      <point x="525" y="466"/>
      <point x="520" y="466" type="qcurve" smooth="yes"/>
      <point x="499" y="466"/>
      <point x="416" y="335"/>
    </contour>
  </outline>
</glyph>
<glyph name="o" format="2">
  <advance width="1040.0327102803737"/>
  <unicode hex="006F"/>
  <anchor x="518.5957943925234" y="0.0" name="bottom"/>
  <anchor x="519.3060747663551" y="458.0" name="center"/>
  <anchor x="706.7733644859813" y="20.0" name="ogonek"/>
  <anchor x="519.3060747663551" y="916.0" name="top"/>
  <anchor x="704.9322429906542" y="916.0" name="topright"/>
  <anchor x="280.33448598130843" y="470.03999999999996" name="yu_dash"/>
  <outline>
    <contour>
      <point x="21.25" y="376.97196261682245" type="qcurve" smooth="yes"/>
      <point x="21.25" y="536.8971962616822" type="line" smooth="yes"/>
      <point x="21.25" y="763.9685981308411"/>
      <point x="270.77336448598135" y="926.0"/>
      <point x="520.7266355140187" y="926.0" type="qcurve" smooth="yes"/>
      <point x="769.2593457943926" y="926.0"/>
      <point x="1018.7827102803737" y="763.9685981308411"/>
      <point x="1018.7827102803737" y="536.8971962616822" type="qcurve" smooth="yes"/>
      <point x="1018.7827102803737" y="376.97196261682245" type="line" smooth="yes"/>
      <point x="1018.7827102803737" y="151.3211214953271"/>
      <point x="768.2593457943926" y="-10.0"/>
      <point x="520.7266355140187" y="-10.0" type="qcurve" smooth="yes"/>
      <point x="271.77336448598135" y="-10.0"/>
      <point x="21.25" y="151.3211214953271"/>
    </contour>
    <contour>
      <point x="505.0163551401869" y="462.88059701492534" type="qcurve" smooth="yes"/>
      <point x="505.0163551401869" y="452.37810945273634" type="line" smooth="yes"/>
      <point x="505.0163551401869" y="218.19084577114427"/>
      <point x="513.4563551401869" y="415.5373134328358"/>
      <point x="520.0163551401869" y="415.5373134328358" type="qcurve" smooth="yes"/>
      <point x="526.5763551401869" y="415.5373134328358"/>
      <point x="535.016355140187" y="218.19084577114427"/>
      <point x="535.016355140187" y="452.37810945273634" type="qcurve" smooth="yes"/>
      <point x="535.016355140187" y="462.88059701492534" type="line" smooth="yes"/>
      <point x="535.016355140187" y="687.0678606965174"/>
      <point x="526.5763551401869" y="499.72139303482595"/>
      <point x="520.0163551401869" y="499.72139303482595" type="qcurve" smooth="yes"/>
      <point x="513.4563551401869" y="499.72139303482595"/>
      <point x="505.0163551401869" y="687.0678606965174"/>
    </contour>
  </outline>
</glyph>
<glyph name="p" format="2">
  <advance width="1036.8285046728972"/>
  <unicode hex="0070"/>
  <anchor x="629.6906542056074" y="0.0" name="bottom"/>
  <anchor x="630.4009345794393" y="916.0" name="top"/>
  <outline>
    <contour>
      <point x="30.700000000000003" y="-416.0" type="line"/>
      <point x="30.700000000000003" y="916.0" type="line"/>
      <point x="482.8121495327102" y="916.0" type="line"/>
      <point x="490.8121495327102" y="839.0" type="line"/>
      <point x="500.8121495327102" y="839.0" type="line"/>
      <point x="500.8121495327102" y="-416.0" type="line"/>
    </contour>
    <contour>
      <point x="508.8121495327102" y="412.94029850746267" type="qcurve" smooth="yes"/>
      <point x="510.17214953271025" y="412.94029850746267"/>
      <point x="530.8121495327102" y="421.06825870646765"/>
      <point x="530.8121495327102" y="451.636815920398" type="qcurve" smooth="yes"/>
      <point x="530.8121495327102" y="462.139303482587" type="line" smooth="yes"/>
      <point x="530.8121495327102" y="488.1317412935324"/>
      <point x="510.17214953271025" y="503.0597014925374"/>
      <point x="506.8121495327102" y="503.0597014925374" type="qcurve" smooth="yes"/>
      <point x="477.5321495327102" y="503.0597014925374"/>
      <point x="457.8121495327102" y="492.5369154228855"/>
      <point x="457.8121495327102" y="465.43283582089555" type="qcurve" smooth="yes"/>
      <point x="457.8121495327102" y="455.9651741293533" type="line" smooth="yes"/>
      <point x="457.8121495327102" y="425.9908457711442"/>
      <point x="479.1321495327102" y="412.94029850746267"/>
    </contour>
    <contour>
      <point x="686.1392523364486" y="-6.666666666666668" type="qcurve" smooth="yes"/>
      <point x="520.8386915887851" y="-6.666666666666668"/>
      <point x="358.8028037383178" y="233.04"/>
      <point x="358.8028037383178" y="452.0" type="qcurve" smooth="yes"/>
      <point x="358.8028037383178" y="486.0" type="line" smooth="yes"/>
      <point x="358.8028037383178" y="670.1771962616822"/>
      <point x="523.0570093457943" y="922.6666666666666"/>
      <point x="695.1392523364486" y="922.6666666666666" type="qcurve" smooth="yes"/>
      <point x="849.2506542056074" y="922.6666666666666"/>
      <point x="1015.5785046728972" y="822.5988785046729"/>
      <point x="1015.5785046728972" y="669.7383177570093" type="qcurve" smooth="yes"/>
      <point x="1015.5785046728972" y="260.52336448598135" type="line" smooth="yes"/>
      <point x="1015.5785046728972" y="119.73196261682244"/>
      <point x="849.2506542056074" y="-6.666666666666668"/>
    </contour>
  </outline>
</glyph>
<glyph name="v" format="2">
  <advance width="1076.9439252336447"/>
  <unicode hex="0076"/>
  <anchor x="588.1915887850466" y="0.0" name="bottom"/>
  <anchor x="587.481308411215" y="916.0" name="top"/>
  <outline>
    <contour>
      <point x="8.5" y="916.0" type="line"/>
      <point x="544.7803738317757" y="913.1588785046729" type="line"/>
      <point x="571.2757009345794" y="547.5514018691589" type="line" smooth="yes"/>
      <point x="577.8671028037382" y="517.5656074766355"/>
      <point x="578.1168224299065" y="437.5514018691589"/>
      <point x="579.1168224299065" y="417.5514018691589" type="qcurve"/>
      <point x="579.1168224299065" y="417.5514018691589" type="line"/>
      <point x="580.1168224299065" y="437.5514018691589"/>
      <point x="584.3385046728972" y="518.986168224299"/>
      <point x="588.7990654205607" y="547.5514018691589" type="qcurve" smooth="yes"/>
      <point x="612.714953271028" y="916.0" type="line"/>
      <point x="1068.4439252336447" y="916.0" type="line"/>
      <point x="778.518691588785" y="0.0" type="line"/>
      <point x="302.68691588785043" y="0.0" type="line"/>
    </contour>
  </outline>
</glyph>
<glyph name="w" format="2">
  <advance width="1269.5841121495328"/>
  <unicode hex="0077"/>
  <anchor x="652.2593457943926" y="0.0" name="bottom"/>
  <anchor x="655.2593457943926" y="916.0" name="top"/>
  <outline>
    <contour>
      <point x="-95.00233644859813" y="916.0" type="line"/>
      <point x="405.3341121495327" y="916.0" type="line"/>
      <point x="414.88551401869154" y="592.052336448598" type="line" smooth="yes"/>
      <point x="416.92551401869156" y="567.3282242990654"/>
      <point x="416.88551401869154" y="482.1644859813084"/>
      <point x="415.464953271028" y="443.585046728972" type="qcurve"/>
      <point x="422.1752336448599" y="443.585046728972" type="line"/>
      <point x="419.33411214953276" y="481.45420560747664"/>
      <point x="418.29411214953274" y="567.7487850467289"/>
      <point x="419.2032710280373" y="592.052336448598" type="qcurve" smooth="yes"/>
      <point x="405.50233644859816" y="916.0" type="line"/>
      <point x="926.5864485981308" y="916.0" type="line"/>
      <point x="919.8574766355141" y="592.052336448598" type="line" smooth="yes"/>
      <point x="921.4769158878503" y="565.3282242990654"/>
      <point x="925.4088785046729" y="481.45420560747664"/>
      <point x="921.4369158878503" y="443.585046728972" type="qcurve"/>
      <point x="928.1471962616822" y="443.585046728972" type="line"/>
      <point x="923.1752336448599" y="482.1644859813084"/>
      <point x="925.8174766355141" y="568.068785046729"/>
      <point x="928.1471962616822" y="592.052336448598" type="qcurve" smooth="yes"/>
      <point x="945.2219626168226" y="916.0" type="line"/>
      <point x="1364.586448598131" y="916.0" type="line"/>
      <point x="1152.483644859813" y="0.0" type="line"/>
      <point x="639.5584112149531" y="0.0" type="line"/>
      <point x="626.1658878504672" y="324.73271028037385" type="line" smooth="yes"/>
      <point x="617.0533644859813" y="358.9801869158878"/>
      <point x="622.035046728972" y="441.18130841121496"/>
      <point x="627.0070093457944" y="478.34018691588784" type="qcurve"/>
      <point x="619.5864485981308" y="478.34018691588784" type="line"/>
      <point x="625.9789719626169" y="441.18130841121496"/>
      <point x="626.698971962617" y="358.26990654205605"/>
      <point x="620.1378504672898" y="324.73271028037385" type="qcurve" smooth="yes"/>
      <point x="633.4182242990654" y="0.0" type="line"/>
      <point x="114.10046728971963" y="0.0" type="line"/>
    </contour>
  </outline>
</glyph>
<glyph name="x" format="2">
  <advance width="1153.4766355140187"/>
  <unicode hex="0078"/>
  <anchor x="569.6495327102804" y="0.0" name="bottom"/>
  <anchor x="570.3598130841121" y="916.0" name="top"/>
  <anchor x="742.7056074766356" y="0.0" name="cy_descender"/>
  <outline>
    <contour>
      <point x="11.5" y="0.0" type="line"/>
      <point x="348.6775700934579" y="557.0" type="line"/>
      <point x="471.19158878504663" y="557.0" type="line"/>
      <point x="693.3224299065421" y="916.0" type="line"/>
      <point x="1124.2196261682243" y="916.0" type="line"/>
      <point x="786.2009345794393" y="380.0" type="line"/>
      <point x="679.3130841121495" y="380.0" type="line"/>
      <point x="465.126168224299" y="0.0" type="line"/>
    </contour>
    <contour>
      <point x="29.257009345794387" y="916.0" type="line"/>
      <point x="618.7056074766356" y="916.0" type="line"/>
      <point x="805.5841121495328" y="583.0" type="line"/>
      <point x="806.481308411215" y="583.0" type="line"/>
      <point x="1140.9766355140187" y="0.0" type="line"/>
      <point x="545.8457943925234" y="0.0" type="line"/>
      <point x="382.5654205607477" y="340.0" type="line"/>
      <point x="374.5654205607477" y="340.0" type="line"/>
    </contour>
  </outline>
</glyph>
<glyph name="z" format="2">
  <advance width="721.06261682243"/>
  <unicode hex="007A"/>
  <anchor x="412.7102803738318" y="0.0" name="bottom"/>
  <anchor x="412.7102803738318" y="916.0" name="top"/>
  <outline>
    <contour>
      <point x="19.0" y="0.0" type="line"/>
      <point x="19.0" y="348.9963267773283" type="line"/>
      <point x="184.3272980889943" y="548.2835820895523" type="line"/>
      <point x="27.0" y="548.2835820895523" type="line"/>
      <point x="27.0" y="916.0" type="line"/>
      <point x="668.5148556284001" y="916.0" type="line"/>
      <point x="668.5148556284001" y="567.2835820895523" type="line"/>
      <point x="567.1067931371182" y="398.1094527363184" type="line"/>
      <point x="702.9626168224299" y="398.1094527363184" type="line"/>
      <point x="702.9626168224299" y="0.0" type="line"/>
    </contour>
  </outline>
</glyph>
<glyph name="braceleft" format="2">
  <advance width="577.2121495327102"/>
  <unicode hex="007B"/>
  <outline>
    <contour>
      <point x="564.2121495327102" y="-312.0" type="line"/>
      <point x="315.1560747663551" y="-312.0"/>
      <point x="25.941121495327117" y="-89.4766355140187"/>
      <point x="66.56728971962616" y="199.71028037383178" type="qcurve" smooth="yes"/>
      <point x="62.86635514018693" y="294.22429906542055" type="line" smooth="yes"/>
      <point x="61.39901892407126" y="341.51764541777095"/>
      <point x="70.73681592039802" y="396.80597014925377"/>
      <point x="18.1" y="396.80597014925377" type="qcurve"/>
      <point x="18.1" y="751.1940298507462" type="line"/>
      <point x="70.73681592039802" y="751.1940298507462"/>
      <point x="64.9504207932301" y="786.5945041149394"/>
      <point x="64.28691588785048" y="845.9626168224299" type="qcurve" smooth="yes"/>
      <point x="67.27757009345794" y="942.607476635514" type="line" smooth="yes"/>
      <point x="27.52056074766356" y="1206.766355140187"/>
      <point x="315.1560747663551" y="1460.0"/>
      <point x="564.2121495327102" y="1460.0" type="qcurve"/>
      <point x="564.2121495327102" y="1121.2636815920398" type="line"/>
      <point x="511.246975403357" y="1121.2636815920398"/>
      <point x="506.74448784116794" y="1071.9054726368158"/>
      <point x="504.2121495327102" y="1025.0" type="qcurve" smooth="yes"/>
      <point x="517.0065420560747" y="874.373831775701" type="line" smooth="yes"/>
      <point x="537.9504672897197" y="746.4672897196261"/>
      <point x="398.1841121495328" y="600.0"/>
      <point x="281.1560747663551" y="574.0" type="qcurve"/>
      <point x="398.1841121495328" y="548.0"/>
      <point x="537.2401869158879" y="398.69158878504675"/>
      <point x="517.0065420560747" y="273.6261682242991" type="qcurve" smooth="yes"/>
      <point x="504.2121495327102" y="123.0" type="line" smooth="yes"/>
      <point x="506.74448784116794" y="76.09452736318407"/>
      <point x="511.246975403357" y="26.736318407960198"/>
      <point x="564.2121495327102" y="26.736318407960198" type="qcurve"/>
    </contour>
  </outline>
</glyph>
<glyph name="braceright" format="2">
  <advance width="577.2121495327102"/>
  <unicode hex="007D"/>
  <outline>
    <contour>
      <point x="13.0" y="-312.0" type="qcurve"/>
      <point x="13.0" y="26.736318407960198" type="line"/>
      <point x="65.96517412935323" y="26.736318407960198"/>
      <point x="70.46766169154229" y="76.09452736318407"/>
      <point x="73.0" y="123.0" type="qcurve" smooth="yes"/>
      <point x="60.20560747663552" y="272.2056074766355" type="line" smooth="yes"/>
      <point x="38.551401869158866" y="401.53271028037386"/>
      <point x="206.7289719626168" y="551.5514018691589"/>
      <point x="296.0560747663551" y="574.0" type="qcurve"/>
      <point x="201.04672897196258" y="590.0560747663551"/>
      <point x="37.841121495327116" y="737.2336448598131"/>
      <point x="59.49532710280374" y="869.4018691588785" type="qcurve" smooth="yes"/>
      <point x="73.0" y="1025.0" type="line" smooth="yes"/>
      <point x="70.46766169154229" y="1071.9054726368158"/>
      <point x="65.96517412935323" y="1121.2636815920398"/>
      <point x="13.0" y="1121.2636815920398" type="qcurve"/>
      <point x="13.0" y="1460.0" type="line"/>
      <point x="294.7289719626168" y="1460.0"/>
      <point x="551.1121495327102" y="1216.0"/>
      <point x="516.3271028037383" y="970.3084112149533" type="qcurve" smooth="yes"/>
      <point x="511.5046728971963" y="838.8598130841121" type="line" smooth="yes"/>
      <point x="509.42060724415296" y="775.9402985074627"/>
      <point x="485.90821592969735" y="751.1940298507462"/>
      <point x="559.1121495327102" y="751.1940298507462" type="qcurve"/>
      <point x="559.1121495327102" y="396.80597014925377" type="line"/>
      <point x="485.16692239735903" y="396.80597014925377"/>
      <point x="509.42060724415296" y="372.05970149253733"/>
      <point x="510.7943925233644" y="309.14018691588785" type="qcurve" smooth="yes"/>
      <point x="517.0373831775701" y="174.85046728971963" type="line" smooth="yes"/>
      <point x="554.1121495327102" y="-98.0"/>
      <point x="308.93457943925233" y="-312.0"/>
    </contour>
  </outline>
</glyph>
<glyph name="exclamdown" format="2">
  <advance width="592.1271028037384"/>
  <unicode hex="00A1"/>
  <outline>
    <contour>
      <point x="555.7271028037383" y="927.2803738317757" type="qcurve" smooth="yes"/>
      <point x="555.7271028037383" y="824.2990654205607"/>
      <point x="421.4093457943925" y="677.588785046729"/>
      <point x="296.0635514018692" y="677.588785046729" type="qcurve" smooth="yes"/>
      <point x="170.007476635514" y="677.588785046729"/>
      <point x="36.400000000000006" y="824.2990654205607"/>
      <point x="36.400000000000006" y="927.2803738317757" type="qcurve" smooth="yes"/>
      <point x="36.400000000000006" y="1029.5514018691588"/>
      <point x="170.007476635514" y="1176.2616822429907"/>
      <point x="296.0635514018692" y="1176.2616822429907" type="qcurve" smooth="yes"/>
      <point x="421.4093457943925" y="1176.2616822429907"/>
      <point x="555.7271028037383" y="1029.5514018691588"/>
    </contour>
    <contour>
      <point x="378.0635514018692" y="611.4392523364486" type="line"/>
      <point x="535.1196261682243" y="-323.04672897196264" type="line"/>
      <point x="57.007476635514024" y="-323.04672897196264" type="line"/>
      <point x="214.06355140186915" y="611.4392523364486" type="line"/>
    </contour>
  </outline>
</glyph>
<glyph name="cent" format="2">
  <advance width="993.8742990654204"/>
  <unicode hex="00A2"/>
  <outline>
    <contour>
      <point x="503.3621495327102" y="545.9004975124378" type="qcurve" smooth="yes"/>
      <point x="513.3621495327102" y="545.9004975124378"/>
      <point x="518.3621495327102" y="584.4776119402985"/>
      <point x="518.3621495327102" y="619.502487562189" type="qcurve"/>
      <point x="978.4742990654204" y="619.502487562189" type="line"/>
      <point x="978.4742990654204" y="383.23383084577114"/>
      <point x="715.717289719626" y="130.0"/>
      <point x="503.3621495327102" y="130.0" type="qcurve" smooth="yes"/>
      <point x="281.1565420560747" y="130.0"/>
      <point x="18.25" y="410.0"/>
      <point x="18.25" y="670.0" type="qcurve" smooth="yes"/>
      <point x="18.25" y="712.0" type="line" smooth="yes"/>
      <point x="18.25" y="972.0"/>
      <point x="286.1285046728972" y="1252.0"/>
      <point x="503.3621495327102" y="1252.0" type="qcurve" smooth="yes"/>
      <point x="711.3247663551401" y="1252.0"/>
      <point x="978.4742990654204" y="991.179104477612"/>
      <point x="978.4742990654204" y="748.8059701492538" type="qcurve"/>
      <point x="518.3621495327102" y="748.8059701492538" type="line"/>
      <point x="518.3621495327102" y="789.9353233830846"/>
      <point x="513.3621495327102" y="833.1343283582089"/>
      <point x="503.3621495327102" y="833.1343283582089" type="qcurve" smooth="yes"/>
      <point x="493.3621495327102" y="833.1343283582089"/>
      <point x="488.3621495327102" y="762.6019900497513"/>
      <point x="488.3621495327102" y="697.1741293532339" type="qcurve" smooth="yes"/>
      <point x="488.3621495327102" y="681.860696517413" type="line" smooth="yes"/>
      <point x="488.3621495327102" y="616.4328358208955"/>
      <point x="493.3621495327102" y="545.9004975124378"/>
    </contour>
    <contour>
      <point x="425.3621495327102" y="0.0" type="line"/>
      <point x="425.3621495327102" y="197.0" type="line"/>
      <point x="430.3621495327102" y="211.0" type="line"/>
      <point x="430.3621495327102" y="708.0" type="line"/>
      <point x="570.3621495327102" y="708.0" type="line"/>
      <point x="570.3621495327102" y="210.0" type="line"/>
      <point x="575.3621495327102" y="200.0" type="line"/>
      <point x="575.3621495327102" y="0.0" type="line"/>
    </contour>
    <contour>
      <point x="430.3621495327102" y="708.0" type="line"/>
      <point x="430.3621495327102" y="1182.0" type="line"/>
      <point x="425.3621495327102" y="1192.0" type="line"/>
      <point x="425.3621495327102" y="1402.0" type="line"/>
      <point x="575.3621495327102" y="1402.0" type="line"/>
      <point x="575.3621495327102" y="1192.0" type="line"/>
      <point x="570.3621495327102" y="1179.0" type="line"/>
      <point x="570.3621495327102" y="708.0" type="line"/>
    </contour>
  </outline>
</glyph>
<glyph name="sterling" format="2">
  <advance width="1028.0242990654203"/>
  <unicode hex="00A3"/>
  <outline>
    <contour>
      <point x="1007.1242990654204" y="0.0" type="line"/>
      <point x="13.900000000000002" y="0.0" type="line"/>
      <point x="13.900000000000002" y="389.05970149253733" type="line"/>
      <point x="28.900000000000002" y="389.05970149253733" type="line" smooth="yes"/>
      <point x="38.900000000000006" y="389.05970149253733"/>
      <point x="63.900000000000006" y="501.16915422885575"/>
      <point x="58.900000000000006" y="596.726368159204" type="qcurve" smooth="yes"/>
      <point x="39.900000000000006" y="869.9850746268656" type="line" smooth="yes"/>
      <point x="-44.67711442786069" y="1179.0746268656717"/>
      <point x="148.55308969172825" y="1476.0"/>
      <point x="525.0121495327102" y="1476.0" type="qcurve" smooth="yes"/>
      <point x="823.3766820105083" y="1476.0"/>
      <point x="1018.1242990654204" y="1194.870646766169"/>
      <point x="1018.1242990654204" y="899.1442786069651" type="qcurve" smooth="yes"/>
      <point x="1018.1242990654204" y="892.0398009950248" type="line"/>
      <point x="542.0121495327102" y="892.0398009950248" type="line"/>
      <point x="542.0121495327102" y="899.1442786069651" type="line" smooth="yes"/>
      <point x="542.0121495327102" y="951.8756218905473"/>
      <point x="540.0121495327102" y="993.9502487562189"/>
      <point x="525.0121495327102" y="993.9502487562189" type="qcurve" smooth="yes"/>
      <point x="507.01214953271017" y="993.9502487562189"/>
      <point x="508.01214953271017" y="936.6666666666667"/>
      <point x="512.0121495327102" y="869.9850746268656" type="qcurve" smooth="yes"/>
      <point x="514.93738317757" y="748.0338959408564" type="line" smooth="yes"/>
      <point x="533.5461617147905" y="607.5641884037755"/>
      <point x="481.37663551401863" y="427.6263542102571"/>
      <point x="374.49813084112145" y="393.5771144278607" type="qcurve"/>
      <point x="1007.1242990654204" y="393.5771144278607" type="line"/>
    </contour>
    <contour>
      <point x="992.1242990654204" y="528.6318407960199" type="line"/>
      <point x="29.900000000000002" y="528.6318407960199" type="line"/>
      <point x="29.900000000000002" y="854.1293532338309" type="line"/>
      <point x="992.1242990654204" y="854.1293532338309" type="line"/>
    </contour>
  </outline>
</glyph>
<glyph name="section" format="2">
  <advance width="447.0"/>
  <unicode hex="00A7"/>
  <guideline y="1658.0" identifier="QzZ5gIiCyn"/>
  <guideline y="578.0" identifier="9Hxjf2sdFw"/>
  <outline>
    <contour>
      <point x="223.35000000000002" y="133.0" type="qcurve"/>
      <point x="223.35000000000002" y="252.0" type="line"/>
      <point x="234.35000000000002" y="252.0"/>
      <point x="239.35000000000002" y="376.0"/>
      <point x="239.35000000000002" y="463.0" type="qcurve"/>
      <point x="239.35000000000002" y="556.0"/>
      <point x="230.35000000000002" y="694.0"/>
      <point x="190.35000000000002" y="734.0" type="qcurve" smooth="yes"/>
      <point x="139.35000000000002" y="785.0"/>
      <point x="44.35000000000001" y="949.0"/>
      <point x="44.35000000000001" y="1129.0" type="qcurve" smooth="yes"/>
      <point x="44.35000000000001" y="1305.0"/>
      <point x="122.35000000000001" y="1490.2587064676618"/>
      <point x="224.35000000000002" y="1491.0" type="qcurve" smooth="yes"/>
      <point x="337.35" y="1491.0"/>
      <point x="405.35" y="1228.766169154229"/>
      <point x="404.35" y="970.273631840796" type="qcurve"/>
      <point x="239.35000000000002" y="970.273631840796" type="line"/>
      <point x="236.6435323383085" y="997.6268656716418"/>
      <point x="234.35000000000002" y="1038.2587064676618"/>
      <point x="224.35000000000002" y="1047.1542288557214" type="qcurve" smooth="yes"/>
      <point x="214.35000000000002" y="1057.5323383084578"/>
      <point x="224.17587064676619" y="1050.7114427860697"/>
      <point x="224.17587064676619" y="1019.1691542288557" type="qcurve" smooth="yes"/>
      <point x="224.17587064676619" y="989.6965174129353"/>
      <point x="276.2057213930348" y="926.9502487562189"/>
      <point x="268.35" y="897.0" type="qcurve" smooth="yes"/>
      <point x="333.83258706467666" y="837.5174129353234"/>
      <point x="420.35" y="652.0"/>
      <point x="420.35" y="478.0" type="qcurve" smooth="yes"/>
      <point x="420.35" y="315.0"/>
      <point x="314.35" y="133.0"/>
    </contour>
    <contour>
      <point x="177.5158348444692" y="894.0" type="qcurve"/>
      <point x="171.86759427163247" y="756.0" type="line"/>
      <point x="213.35000000000002" y="756.0"/>
      <point x="208.35000000000002" y="649.0"/>
      <point x="208.35000000000002" y="567.0" type="qcurve" smooth="yes"/>
      <point x="208.35000000000002" y="487.0"/>
      <point x="223.35000000000002" y="352.0"/>
      <point x="263.35" y="317.0" type="qcurve" smooth="yes"/>
      <point x="335.35" y="254.0"/>
      <point x="396.35" y="66.0"/>
      <point x="396.35" y="-113.0" type="qcurve" smooth="yes"/>
      <point x="396.35" y="-298.0"/>
      <point x="312.35" y="-509.0"/>
      <point x="217.35000000000002" y="-509.0" type="qcurve" smooth="yes"/>
      <point x="122.35000000000001" y="-509.0"/>
      <point x="38.35000000000001" y="-303.0"/>
      <point x="38.35000000000001" y="-79.29648114567351" type="qcurve"/>
      <point x="202.35000000000002" y="86.41293532338307" type="line"/>
      <point x="210.5042288557214" y="38.34825870646762"/>
      <point x="207.35000000000002" y="-1.4029850746268835"/>
      <point x="217.35000000000002" y="-7.333333333333371" type="qcurve" smooth="yes"/>
      <point x="171.0116915422886" y="-9.557213930348269"/>
      <point x="84.83258706467666" y="11.74626865671641"/>
      <point x="85.57388059701495" y="44.13432835820893" type="qcurve" smooth="yes"/>
      <point x="87.05646766169158" y="76.93532338308457"/>
      <point x="154.94203980099505" y="147.273631840796"/>
      <point x="167.35000000000002" y="161.74129353233832" type="qcurve" smooth="yes"/>
      <point x="106.24552238805971" y="217.55223880597015"/>
      <point x="26.35000000000001" y="420.0"/>
      <point x="26.35000000000001" y="577.0" type="qcurve" smooth="yes"/>
      <point x="26.35000000000001" y="727.0"/>
      <point x="151.35000000000002" y="894.0"/>
    </contour>
  </outline>
</glyph>
<glyph name="copyright" format="2">
  <advance width="1606.4"/>
  <unicode hex="00A9"/>
  <guideline y="901.0" identifier="0Pjz0qKr8z"/>
  <guideline y="555.0" identifier="sJo8BlDiJ7"/>
  <outline>
    <contour>
      <point x="392.89158878504674" y="546.0" type="qcurve"/>
      <point x="660.1252336448599" y="546.0" type="line"/>
      <point x="660.1252336448599" y="375.0"/>
      <point x="545.396261682243" y="205.0"/>
      <point x="325.82815083461196" y="205.0" type="qcurve" smooth="yes"/>
      <point x="260.07850467289717" y="205.0"/>
      <point x="114.06915887850467" y="458.30841121495325"/>
      <point x="114.06915887850467" y="664.0" type="qcurve" smooth="yes"/>
      <point x="114.06915887850467" y="703.0" type="line" smooth="yes"/>
      <point x="114.06915887850467" y="909.6915887850467"/>
      <point x="244.07850467289717" y="1170.0"/>
      <point x="404.8482405728368" y="1170.0" type="qcurve" smooth="yes"/>
      <point x="563.4242990654207" y="1170.0"/>
      <point x="661.1252336448599" y="983.0"/>
      <point x="661.1252336448599" y="829.0" type="qcurve"/>
      <point x="393.89158878504674" y="829.0" type="line"/>
      <point x="393.89158878504674" y="917.0"/>
      <point x="410.2" y="1006.0"/>
      <point x="399.2" y="1006.0" type="qcurve" smooth="yes"/>
      <point x="390.2" y="1006.0"/>
      <point x="406.50841121495324" y="868.0"/>
      <point x="406.50841121495324" y="951.522585204817" type="qcurve" smooth="yes"/>
      <point x="406.50841121495324" y="421.12565536801975" type="line" smooth="yes"/>
      <point x="406.50841121495324" y="499.0"/>
      <point x="390.2" y="362.0"/>
      <point x="442.0341651555308" y="362.0" type="qcurve" smooth="yes"/>
      <point x="409.2" y="362.0"/>
      <point x="392.89158878504674" y="457.0"/>
    </contour>
    <contour>
      <point x="162.2" y="687.0" type="qcurve" smooth="yes"/>
      <point x="162.2" y="327.0"/>
      <point x="274.2" y="4.0"/>
      <point x="399.2" y="4.0" type="qcurve" smooth="yes"/>
      <point x="519.2" y="4.0"/>
      <point x="627.2" y="327.0"/>
      <point x="627.2" y="687.0" type="qcurve" smooth="yes"/>
      <point x="627.2" y="1046.0"/>
      <point x="519.2" y="1367.0"/>
      <point x="399.2" y="1367.0" type="qcurve" smooth="yes"/>
      <point x="274.2" y="1367.0"/>
      <point x="162.2" y="1046.0"/>
    </contour>
    <contour>
      <point x="14.2" y="687.0" type="qcurve" smooth="yes"/>
      <point x="14.2" y="1126.0"/>
      <point x="196.2" y="1519.0"/>
      <point x="398.2" y="1519.0" type="qcurve" smooth="yes"/>
      <point x="596.2" y="1519.0"/>
      <point x="774.2" y="1126.0"/>
      <point x="774.2" y="687.0" type="qcurve" smooth="yes"/>
      <point x="774.2" y="247.0"/>
      <point x="596.2" y="-147.0"/>
      <point x="398.2" y="-147.0" type="qcurve" smooth="yes"/>
      <point x="196.2" y="-147.0"/>
      <point x="14.2" y="247.0"/>
    </contour>
  </outline>
</glyph>
<glyph name="ordfeminine" format="2">
  <advance width="849.1182242990656"/>
  <unicode hex="00AA"/>
  <guideline y="1681.0" identifier="3CJlALCfkl"/>
  <guideline y="909.0" identifier="Zdl6NZVQAy"/>
  <outline>
    <contour>
      <point x="429.73411214953273" y="862.0" type="line"/>
      <point x="429.73411214953273" y="821.0"/>
      <point x="449.73411214953273" y="736.0"/>
      <point x="472.73411214953273" y="706.0" type="qcurve"/>
      <point x="820.8182242990655" y="706.0" type="line"/>
      <point x="806.8182242990655" y="749.0"/>
      <point x="794.8182242990655" y="838.0"/>
      <point x="794.8182242990655" y="887.0" type="qcurve" smooth="yes"/>
      <point x="794.8182242990655" y="1149.1495327102805" type="line" smooth="yes"/>
      <point x="794.8182242990655" y="1320.2429906542056"/>
      <point x="654.1266355140186" y="1477.0"/>
      <point x="422.1546728971963" y="1477.0" type="qcurve" smooth="yes"/>
      <point x="213.0985981308411" y="1477.0"/>
      <point x="57.04252336448599" y="1356.0"/>
      <point x="48.07056074766356" y="1261.0" type="qcurve" smooth="yes"/>
      <point x="46.650000000000006" y="1234.0" type="line"/>
      <point x="414.73411214953273" y="1234.0" type="line"/>
      <point x="414.73411214953273" y="1247.0" type="line" smooth="yes"/>
      <point x="414.73411214953273" y="1292.0"/>
      <point x="416.73411214953273" y="1346.0"/>
      <point x="422.73411214953273" y="1346.0" type="qcurve" smooth="yes"/>
      <point x="431.73411214953273" y="1346.0"/>
      <point x="429.73411214953273" y="1276.0"/>
      <point x="429.73411214953273" y="1202.0" type="qcurve" smooth="yes"/>
    </contour>
    <contour>
      <point x="506.73411214953273" y="1149.0" type="line"/>
      <point x="436.73411214953273" y="1149.0" type="line" smooth="yes"/>
      <point x="165.67803738317755" y="1149.0"/>
      <point x="29.650000000000006" y="1028.0"/>
      <point x="29.650000000000006" y="918.0" type="qcurve" smooth="yes"/>
      <point x="29.650000000000006" y="816.0"/>
      <point x="153.67803738317755" y="692.0"/>
      <point x="281.1079439252336" y="692.0" type="qcurve" smooth="yes"/>
      <point x="387.2200934579439" y="692.0"/>
      <point x="494.73411214953273" y="794.0"/>
      <point x="506.73411214953273" y="852.0" type="qcurve"/>
      <point x="506.73411214953273" y="975.0" type="line"/>
      <point x="496.73411214953273" y="911.0"/>
      <point x="428.73411214953273" y="822.0"/>
      <point x="414.73411214953273" y="822.0" type="qcurve" smooth="yes"/>
      <point x="404.73411214953273" y="822.0"/>
      <point x="399.73411214953273" y="879.0"/>
      <point x="399.73411214953273" y="922.0" type="qcurve" smooth="yes"/>
      <point x="399.73411214953273" y="969.0"/>
      <point x="414.73411214953273" y="1042.0"/>
      <point x="437.73411214953273" y="1042.0" type="qcurve" smooth="yes"/>
      <point x="506.73411214953273" y="1042.0" type="line"/>
    </contour>
  </outline>
</glyph>
<glyph name="guillemotleft" format="2">
  <advance width="1194.4742990654204"/>
  <unicode hex="00AB"/>
  <guideline y="901.0" identifier="ZftBQarVKw"/>
  <guideline y="555.0" identifier="MVJpdoVRVd"/>
  <outline>
    <contour>
      <point x="24.700000000000003" y="522.0" type="line"/>
      <point x="24.700000000000003" y="581.0" type="line"/>
      <point x="184.7" y="949.0" type="line"/>
      <point x="630.8121495327102" y="949.0" type="line"/>
      <point x="507.8121495327102" y="551.0" type="line"/>
      <point x="630.8121495327102" y="153.0" type="line"/>
      <point x="184.7" y="153.0" type="line"/>
    </contour>
    <contour>
      <point x="566.8121495327102" y="522.0" type="line"/>
      <point x="566.8121495327102" y="581.0" type="line"/>
      <point x="726.8121495327102" y="949.0" type="line"/>
      <point x="1172.9242990654204" y="949.0" type="line"/>
      <point x="1049.9242990654204" y="551.0" type="line"/>
      <point x="1172.9242990654204" y="153.0" type="line"/>
      <point x="726.8121495327102" y="153.0" type="line"/>
    </contour>
  </outline>
</glyph>
<glyph name="registered" format="2">
  <advance width="1606.4"/>
  <unicode hex="00AE"/>
  <outline>
    <contour>
      <point x="14.2" y="687.0" type="qcurve" smooth="yes"/>
      <point x="14.2" y="1126.0"/>
      <point x="196.2" y="1519.0"/>
      <point x="398.2" y="1519.0" type="qcurve" smooth="yes"/>
      <point x="596.2" y="1519.0"/>
      <point x="774.2" y="1126.0"/>
      <point x="774.2" y="687.0" type="qcurve" smooth="yes"/>
      <point x="774.2" y="247.0"/>
      <point x="596.2" y="-147.0"/>
      <point x="398.2" y="-147.0" type="qcurve" smooth="yes"/>
      <point x="196.2" y="-147.0"/>
      <point x="14.2" y="247.0"/>
    </contour>
    <contour>
      <point x="162.2" y="687.0" type="qcurve" smooth="yes"/>
      <point x="162.2" y="327.0"/>
      <point x="274.2" y="4.0"/>
      <point x="399.2" y="4.0" type="qcurve" smooth="yes"/>
      <point x="519.2" y="4.0"/>
      <point x="627.2" y="327.0"/>
      <point x="627.2" y="687.0" type="qcurve" smooth="yes"/>
      <point x="627.2" y="1046.0"/>
      <point x="519.2" y="1367.0"/>
      <point x="399.2" y="1367.0" type="qcurve" smooth="yes"/>
      <point x="274.2" y="1367.0"/>
      <point x="162.2" y="1046.0"/>
    </contour>
    <contour>
      <point x="171.58317757009343" y="225.0" type="line"/>
      <point x="171.58317757009343" y="1158.0" type="line"/>
      <point x="443.9196261682243" y="1158.0" type="line" smooth="yes"/>
      <point x="580.0691588785046" y="1158.0"/>
      <point x="661.2280373831777" y="1018.0"/>
      <point x="661.2280373831777" y="877.0" type="qcurve" smooth="yes"/>
      <point x="661.2280373831777" y="751.2149532710281"/>
      <point x="568.2841121495328" y="597.0"/>
      <point x="444.1626168224299" y="597.0" type="qcurve" smooth="yes"/>
      <point x="309.2" y="597.0" type="line"/>
      <point x="309.2" y="738.0" type="line"/>
      <point x="380.9943925233645" y="738.0" type="line" smooth="yes"/>
      <point x="389.9943925233645" y="738.0"/>
      <point x="394.9943925233645" y="795.0"/>
      <point x="394.9943925233645" y="859.0" type="qcurve" smooth="yes"/>
      <point x="394.9943925233645" y="940.0"/>
      <point x="389.9943925233645" y="1007.7102803738318"/>
      <point x="380.9943925233645" y="1007.0" type="qcurve" smooth="yes"/>
      <point x="450.22803738317754" y="1007.0" type="line"/>
      <point x="450.22803738317754" y="225.0" type="line"/>
    </contour>
    <contour>
      <point x="394.9943925233644" y="225.0" type="line"/>
      <point x="370.73271028037385" y="672.0" type="line"/>
      <point x="537.6766355140187" y="672.0" type="line"/>
      <point x="595.6766355140187" y="638.0"/>
      <point x="638.5925233644859" y="567.9719626168225"/>
      <point x="643.4336448598131" y="530.0" type="qcurve" smooth="yes"/>
      <point x="664.4336448598131" y="243.0" type="line"/>
      <point x="664.4336448598131" y="225.0" type="line"/>
    </contour>
  </outline>
</glyph>
<glyph name="degree" format="2">
  <advance width="740.1303738317757"/>
  <unicode hex="00B0"/>
  <outline>
    <contour>
      <point x="28.68" y="1131.766355140187" type="qcurve"/>
      <point x="28.68" y="1271.8598130841121"/>
      <point x="232.24074766355142" y="1474.8691588785048"/>
      <point x="373.17532710280375" y="1474.8691588785048" type="qcurve" smooth="yes"/>
      <point x="512.3996261682242" y="1474.8691588785048"/>
      <point x="712.9603738317757" y="1271.839514576628"/>
      <point x="712.9603738317757" y="1131.766355140187" type="qcurve" smooth="yes"/>
      <point x="712.9603738317757" y="990.8657330171898"/>
      <point x="512.3894769145163" y="793.0841121495328"/>
      <point x="373.17532710280375" y="793.0841121495328" type="qcurve" smooth="yes"/>
      <point x="233.13371460453521" y="793.0841121495328"/>
      <point x="28.68" y="990.6728971962617"/>
    </contour>
    <contour>
      <point x="242.17532710280375" y="1132.4766355140187" type="qcurve"/>
      <point x="242.17532710280375" y="1077.3243967080587"/>
      <point x="319.35801366995577" y="1003.4766355140187"/>
      <point x="373.17532710280375" y="1003.4766355140187" type="qcurve" smooth="yes"/>
      <point x="426.9926405356517" y="1003.4766355140187"/>
      <point x="499.465046728972" y="1077.3243967080587"/>
      <point x="499.465046728972" y="1132.4766355140187" type="qcurve" smooth="yes"/>
      <point x="499.465046728972" y="1188.4563370065346"/>
      <point x="426.9926405356517" y="1264.4766355140187"/>
      <point x="373.17532710280375" y="1264.4766355140187" type="qcurve" smooth="yes"/>
      <point x="319.35801366995577" y="1264.4766355140187"/>
      <point x="242.17532710280375" y="1188.4563370065346"/>
    </contour>
  </outline>
</glyph>
<glyph name="plusminus" format="2">
  <advance width="458.1"/>
  <unicode hex="00B1"/>
  <outline>
    <contour>
      <point x="17.050000000000004" y="468.9439252336449" type="line"/>
      <point x="17.050000000000004" y="917.0560747663551" type="line"/>
      <point x="441.05" y="917.0560747663551" type="line"/>
      <point x="441.05" y="468.9439252336449" type="line"/>
    </contour>
    <contour>
      <point x="139.05" y="430.0" type="line"/>
      <point x="139.05" y="990.0280373831777" type="line"/>
      <point x="319.05" y="990.0280373831777" type="line"/>
      <point x="319.05" y="430.0" type="line"/>
    </contour>
    <contour>
      <point x="17.050000000000004" y="1.0" type="line"/>
      <point x="17.050000000000004" y="165.0" type="line"/>
      <point x="441.05" y="165.0" type="line"/>
      <point x="441.05" y="1.0" type="line"/>
    </contour>
  </outline>
</glyph>
<glyph name="twosuperior" format="2">
  <advance width="859.2359813084113"/>
  <unicode hex="00B2"/>
  <outline>
    <contour>
      <point x="15.264953271028041" y="697.0" type="line"/>
      <point x="15.264953271028041" y="805.0" type="line"/>
      <point x="217.19018691588786" y="1066.5794392523364" type="line" smooth="yes"/>
      <point x="265.8724299065421" y="1141.4766355140187"/>
      <point x="366.8911214953271" y="1238.728971962617"/>
      <point x="366.8911214953271" y="1271.728971962617" type="qcurve" smooth="yes"/>
      <point x="366.8911214953271" y="1311.9158878504672"/>
      <point x="368.9939252336449" y="1347.0"/>
      <point x="358.9939252336449" y="1347.0" type="qcurve" smooth="yes"/>
      <point x="348.99392523364486" y="1347.0"/>
      <point x="329.78831775700934" y="1275.8971962616822"/>
      <point x="329.78831775700934" y="1200.8971962616822" type="qcurve" smooth="yes"/>
      <point x="329.78831775700934" y="1194.4485981308412" type="line"/>
      <point x="21.470560747663562" y="1194.4485981308412" type="line"/>
      <point x="21.470560747663562" y="1200.8971962616822" type="line" smooth="yes"/>
      <point x="21.470560747663562" y="1331.8971962616822"/>
      <point x="234.24626168224302" y="1487.0"/>
      <point x="460.4331775700935" y="1487.0" type="qcurve" smooth="yes"/>
      <point x="654.4705607476635" y="1487.0"/>
      <point x="823.7415887850466" y="1359.0"/>
      <point x="823.7415887850466" y="1251.0" type="qcurve" smooth="yes"/>
      <point x="823.7415887850466" y="1171.0"/>
      <point x="699.9565420560747" y="1031.3738317757009"/>
      <point x="649.302336448598" y="971.0" type="qcurve" smooth="yes"/>
      <point x="518.3771028037382" y="845.0" type="line"/>
      <point x="840.5359813084112" y="845.0" type="line"/>
      <point x="840.5359813084112" y="697.0" type="line"/>
    </contour>
  </outline>
</glyph>
<glyph name="threesuperior" format="2">
  <advance width="975.2742990654203"/>
  <unicode hex="00B3"/>
  <outline>
    <contour>
      <point x="17.950000000000003" y="920.0" type="qcurve" smooth="yes"/>
      <point x="17.950000000000003" y="925.8411214953271" type="line"/>
      <point x="459.06214953271024" y="925.8411214953271" type="line"/>
      <point x="459.06214953271024" y="920.0" type="line" smooth="yes"/>
      <point x="459.06214953271024" y="875.0"/>
      <point x="464.0621495327102" y="824.0"/>
      <point x="474.0621495327102" y="824.0" type="qcurve" smooth="yes"/>
      <point x="484.0621495327102" y="824.0"/>
      <point x="489.0621495327102" y="876.0"/>
      <point x="489.0621495327102" y="925.0" type="qcurve" smooth="yes"/>
      <point x="489.0621495327102" y="978.0"/>
      <point x="484.0621495327102" y="1029.7102803738317"/>
      <point x="472.0621495327102" y="1029.0" type="qcurve" smooth="yes"/>
      <point x="446.0621495327102" y="1029.0" type="line"/>
      <point x="446.0621495327102" y="1151.0" type="line"/>
      <point x="472.0621495327102" y="1151.0" type="line" smooth="yes"/>
      <point x="495.0621495327102" y="1151.0"/>
      <point x="500.0621495327102" y="1207.0"/>
      <point x="500.0621495327102" y="1255.0" type="qcurve" smooth="yes"/>
      <point x="500.0621495327102" y="1299.0"/>
      <point x="495.0621495327102" y="1349.0"/>
      <point x="485.0621495327102" y="1349.0" type="qcurve" smooth="yes"/>
      <point x="475.0621495327102" y="1349.0"/>
      <point x="470.0621495327102" y="1299.0"/>
      <point x="470.0621495327102" y="1256.0" type="qcurve" smooth="yes"/>
      <point x="470.0621495327102" y="1252.0" type="line"/>
      <point x="28.950000000000003" y="1252.0" type="line"/>
      <point x="28.950000000000003" y="1256.0" type="line" smooth="yes"/>
      <point x="28.950000000000003" y="1357.0"/>
      <point x="177.90327102803735" y="1487.0"/>
      <point x="485.0621495327102" y="1487.0" type="qcurve" smooth="yes"/>
      <point x="752.9967289719626" y="1487.0"/>
      <point x="954.1742990654204" y="1372.0"/>
      <point x="954.1742990654204" y="1263.0" type="qcurve" smooth="yes"/>
      <point x="954.1742990654204" y="1204.8971962616822"/>
      <point x="907.8845794392523" y="1116.4485981308412"/>
      <point x="847.1742990654204" y="1098.0" type="qcurve"/>
      <point x="847.1742990654204" y="1097.0" type="line"/>
      <point x="913.4640186915888" y="1074.4205607476636"/>
      <point x="941.1742990654204" y="992.3644859813085"/>
      <point x="941.1742990654204" y="917.0" type="qcurve" smooth="yes"/>
      <point x="941.1742990654204" y="807.0"/>
      <point x="700.146261682243" y="686.0"/>
      <point x="474.0621495327102" y="686.0" type="qcurve" smooth="yes"/>
      <point x="226.69766355140183" y="686.0"/>
      <point x="17.950000000000003" y="802.0"/>
    </contour>
  </outline>
</glyph>
<glyph name="paragraph" format="2">
  <advance width="1232.5121495327103"/>
  <unicode hex="00B6"/>
  <guideline y="901.0" identifier="27539Lsr1A"/>
  <guideline y="555.0" identifier="e34wUdCmXR"/>
  <outline>
    <contour>
      <point x="978.0121495327102" y="-146.0" type="line"/>
      <point x="507.9" y="-146.0" type="line"/>
      <point x="507.9" y="463.97512437810946" type="line"/>
      <point x="420.9" y="463.97512437810946" type="line" smooth="yes"/>
      <point x="225.9" y="463.97512437810946"/>
      <point x="16.9" y="745.9502487562189"/>
      <point x="16.9" y="959.6169154228855" type="qcurve" smooth="yes"/>
      <point x="16.9" y="1171.2835820895523"/>
      <point x="225.9" y="1456.0"/>
      <point x="420.9" y="1456.0" type="qcurve" smooth="yes"/>
      <point x="978.0121495327102" y="1456.0" type="line"/>
    </contour>
    <contour>
      <point x="1008.0121495327102" y="1459.0" type="line"/>
      <point x="1194.0121495327103" y="1459.0" type="line"/>
      <point x="1194.0121495327103" y="-146.0" type="line"/>
      <point x="1008.0121495327102" y="-146.0" type="line"/>
    </contour>
  </outline>
</glyph>
<glyph name="periodcentered" format="2">
  <advance width="557.1644859813084"/>
  <unicode hex="00B7"/>
  <outline>
    <contour>
      <point x="34.900000000000006" y="749.0" type="qcurve" smooth="yes"/>
      <point x="34.900000000000006" y="845.588785046729"/>
      <point x="160.69439252336448" y="983.0654205607476"/>
      <point x="278.22710280373826" y="983.0654205607476" type="qcurve" smooth="yes"/>
      <point x="396.4700934579439" y="983.0654205607476"/>
      <point x="522.2644859813084" y="845.588785046729"/>
      <point x="522.2644859813084" y="749.0" type="qcurve" smooth="yes"/>
      <point x="522.2644859813084" y="652.411214953271"/>
      <point x="396.4700934579439" y="514.9345794392524"/>
      <point x="278.22710280373826" y="514.9345794392524" type="qcurve" smooth="yes"/>
      <point x="160.69439252336448" y="514.9345794392524"/>
      <point x="34.900000000000006" y="652.411214953271"/>
    </contour>
  </outline>
</glyph>
<glyph name="onesuperior" format="2">
  <advance width="629.0621495327102"/>
  <unicode hex="00B9"/>
  <outline>
    <contour>
      <point x="26.950000000000003" y="1211.0" type="line"/>
      <point x="26.950000000000003" y="1370.0" type="line"/>
      <point x="254.95" y="1486.0" type="line"/>
      <point x="583.0621495327102" y="1486.0" type="line"/>
      <point x="583.0621495327102" y="697.0" type="line"/>
      <point x="136.95" y="697.0" type="line"/>
      <point x="136.95" y="1262.0" type="line"/>
    </contour>
  </outline>
</glyph>
<glyph name="AE" format="2">
  <advance width="889.0621495327102"/>
  <unicode hex="00C6"/>
  <anchor x="326.25" y="1456.0" name="top"/>
  <outline>
    <contour>
      <point x="6.25" y="0.0" type="line"/>
      <point x="199.25" y="1456.0" type="line"/>
      <point x="866.3621495327102" y="1456.0" type="line"/>
      <point x="866.3621495327102" y="1001.4825870646766" type="line"/>
      <point x="752.1471962616822" y="1001.4825870646766" type="line"/>
      <point x="752.1471962616822" y="449.3283582089552" type="line"/>
      <point x="870.3621495327102" y="449.3283582089552" type="line"/>
      <point x="870.3621495327102" y="0.0" type="line"/>
      <point x="263.25" y="0.0" type="line"/>
      <point x="263.25" y="1238.0" type="line"/>
      <point x="233.25" y="0.0" type="line"/>
    </contour>
    <contour>
      <point x="509.43691588785055" y="523.7412935323383" type="line"/>
      <point x="509.43691588785055" y="978.2587064676617" type="line"/>
      <point x="826.3621495327102" y="978.2587064676617" type="line"/>
      <point x="826.3621495327102" y="523.7412935323383" type="line"/>
    </contour>
    <contour>
      <point x="105.7723880597015" y="278.87064676616916" type="line"/>
      <point x="250.205223880597" y="676.2587064676617" type="line"/>
      <point x="510.3060747663551" y="676.2587064676617" type="line"/>
      <point x="510.3060747663551" y="278.87064676616916" type="line"/>
    </contour>
  </outline>
</glyph>
<glyph name="multiply" format="2">
  <advance width="658.1752336448599"/>
  <unicode hex="00D7"/>
  <outline>
    <contour>
      <point x="271.09663551401866" y="360.68224299065423" type="line"/>
      <point x="21.040560747663562" y="614.7383177570093" type="line"/>
      <point x="373.7788785046729" y="979.7383177570093" type="line"/>
      <point x="623.834953271028" y="724.6822429906542" type="line"/>
    </contour>
    <contour>
      <point x="371.48915887850467" y="355.97196261682245" type="line"/>
      <point x="15.48915887850468" y="719.9719626168225" type="line"/>
      <point x="276.5452336448598" y="986.0280373831777" type="line"/>
      <point x="632.5452336448599" y="621.0280373831775" type="line"/>
    </contour>
  </outline>
</glyph>
<glyph name="ae" format="2">
  <advance width="1547.640186915888"/>
  <unicode hex="00E6"/>
  <anchor x="724.1775700934579" y="1052.0" name="top"/>
  <outline>
    <contour>
      <point x="305.7943925233644" y="-20.0" type="qcurve" smooth="yes"/>
      <point x="123.21046728971963" y="-20.0"/>
      <point x="22.0" y="133.0"/>
      <point x="22.0" y="289.90280373831774" type="qcurve" smooth="yes"/>
      <point x="22.0" y="413.56"/>
      <point x="173.51439252336448" y="573.2"/>
      <point x="441.8878504672897" y="573.2" type="qcurve" smooth="yes"/>
      <point x="703.2897196261683" y="573.2" type="line"/>
      <point x="703.2897196261683" y="319.6278606965174" type="line"/>
      <point x="555.6448598130842" y="319.6278606965174" type="line" smooth="yes"/>
      <point x="487.6848598130842" y="319.6278606965174"/>
      <point x="473.64485981308417" y="305.56557213930347"/>
      <point x="473.64485981308417" y="288.9651741293532" type="qcurve" smooth="yes"/>
      <point x="473.64485981308417" y="271.00477611940295"/>
      <point x="480.40485981308416" y="252.53731343283582"/>
      <point x="485.64485981308417" y="252.53731343283582" type="qcurve" smooth="yes"/>
      <point x="512.5107304598504" y="252.53731343283582"/>
      <point x="499.64485981308417" y="328.6686567164179"/>
      <point x="499.64485981308417" y="399.58407960199" type="qcurve"/>
      <point x="499.64485981308417" y="486.7415260147859" type="line" smooth="yes"/>
      <point x="499.64485981308417" y="578.615241549263"/>
      <point x="498.64485981308417" y="638.6218905472637"/>
      <point x="481.09345794392516" y="638.6218905472637" type="qcurve" smooth="yes"/>
      <point x="483.48485981308414" y="638.6218905472637"/>
      <point x="451.8878504672897" y="625.3840796019902"/>
      <point x="454.7289719626168" y="602.7661691542289" type="qcurve" smooth="yes"/>
      <point x="454.7289719626168" y="588.4394848188962" type="line"/>
      <point x="32.0" y="588.4394848188962" type="line"/>
      <point x="32.0" y="602.7661691542289" type="line" smooth="yes"/>
      <point x="32.0" y="770.6941293532338"/>
      <point x="231.37009345794394" y="946.0"/>
      <point x="448.31775700934577" y="946.0" type="qcurve" smooth="yes"/>
      <point x="541.5502803738317" y="946.0"/>
      <point x="633.3887850467288" y="991.9790654205607"/>
      <point x="707.8844859813084" y="972.6983177570094" type="qcurve"/>
      <point x="766.5151401869158" y="984.0882242990655"/>
      <point x="883.0392523364486" y="946.0"/>
      <point x="964.8108411214954" y="946.0" type="qcurve" smooth="yes"/>
      <point x="1217.6332710280374" y="946.0"/>
      <point x="1443.8201869158881" y="700.72"/>
      <point x="1443.8201869158881" y="492.0" type="qcurve" smooth="yes"/>
      <point x="1443.8201869158881" y="349.2835820895522" type="line"/>
      <point x="749.5117757009344" y="349.2835820895522" type="line"/>
      <point x="749.5117757009344" y="638.1293532338309" type="line"/>
      <point x="971.0983177570093" y="638.1293532338309" type="line"/>
      <point x="974.3562779560143" y="502.49452736318403" type="line" smooth="yes"/>
      <point x="971.0983177570093" y="520.6664676616916"/>
      <point x="973.5080373831775" y="547.1492537313433"/>
      <point x="972.0011214953271" y="547.1492537313433" type="qcurve" smooth="yes"/>
      <point x="951.5080373831775" y="547.1492537313433"/>
      <point x="942.7080373831774" y="508.8001990049751"/>
      <point x="942.7080373831774" y="474.0" type="qcurve" smooth="yes"/>
      <point x="942.7080373831774" y="442.0" type="line" smooth="yes"/>
      <point x="942.7080373831774" y="415.3540298507462"/>
      <point x="1022.7177570093457" y="385.9004975124378"/>
      <point x="1080.3278355884129" y="385.9004975124378" type="qcurve" smooth="yes"/>
      <point x="1167.16895708374" y="385.9004975124378"/>
      <point x="1242.5177272515925" y="414.5970149253731"/>
      <point x="1264.5364188403773" y="433.82587064676613" type="qcurve"/>
      <point x="1410.137943925234" y="175.0" type="line"/>
      <point x="1370.306168224299" y="100.0"/>
      <point x="1156.3248598130842" y="-30.0"/>
      <point x="1055.7267289719628" y="-30.0" type="qcurve" smooth="yes"/>
      <point x="875.6355140186915" y="-30.0"/>
      <point x="746.7943925233644" y="51.59214953271028"/>
      <point x="685.1342056074766" y="100.8007476635514" type="qcurve"/>
      <point x="550.5966355140187" y="-1.7431775700934686"/>
      <point x="377.5259813084112" y="-20.0"/>
    </contour>
  </outline>
</glyph>
<glyph name="eth" format="2">
  <advance width="1012.7242990654204"/>
  <unicode hex="00F0"/>
  <outline>
    <contour>
      <point x="376.36214953271025" y="1421.0" type="qcurve"/>
      <point x="433.3621495327102" y="1581.0" type="line"/>
      <point x="662.464953271028" y="1508.0654205607477"/>
      <point x="991.4742990654204" y="897.6859813084111"/>
      <point x="991.4742990654204" y="534.0504672897196" type="qcurve"/>
      <point x="991.4742990654204" y="537.9345794392523" type="line"/>
      <point x="991.4742990654204" y="258.4743925233645"/>
      <point x="703.0866355140187" y="-20.0"/>
      <point x="429.2032710280373" y="-20.0" type="qcurve" smooth="yes"/>
      <point x="176.3202803738318" y="-20.0"/>
      <point x="21.25" y="241.88"/>
      <point x="21.25" y="436.72" type="qcurve" smooth="yes"/>
      <point x="21.25" y="647.68"/>
      <point x="215.94607476635508" y="912.72"/>
      <point x="389.2032710280373" y="912.72" type="qcurve" smooth="yes"/>
      <point x="541.3621495327102" y="912.72"/>
      <point x="638.3528037383178" y="682.7233644859814"/>
      <point x="658.9509345794393" y="539.2" type="qcurve"/>
      <point x="542.3621495327102" y="482.8616915422885" type="line"/>
      <point x="527.446261682243" y="516.5208722741434"/>
      <point x="522.3621495327102" y="563.5359203980099"/>
      <point x="506.3621495327102" y="563.5359203980099" type="qcurve" smooth="yes"/>
      <point x="504.5221495327102" y="563.5359203980099"/>
      <point x="491.3621495327102" y="513.4809950248756"/>
      <point x="491.3621495327102" y="478.23243781094527" type="qcurve" smooth="yes"/>
      <point x="491.3621495327102" y="436.15601990049754"/>
      <point x="505.20214953271017" y="398.1243781094527"/>
      <point x="506.3621495327102" y="398.1243781094527" type="qcurve" smooth="yes"/>
      <point x="511.6021495327102" y="398.1243781094527"/>
      <point x="521.3621495327102" y="464.2947263681592"/>
      <point x="521.3621495327102" y="529.1691542288557" type="qcurve" smooth="yes"/>
      <point x="521.3621495327102" y="560.2" type="line" smooth="yes"/>
      <point x="521.3621495327102" y="909.2"/>
      <point x="439.3621495327102" y="1403.0"/>
    </contour>
    <contour>
      <point x="879.9044380899242" y="1211.0995024875622" type="line"/>
      <point x="542.9044380899242" y="946.0995024875622" type="line"/>
      <point x="335.3671246570883" y="1239.5621890547263" type="line"/>
      <point x="672.3671246570883" y="1503.5621890547263" type="line"/>
    </contour>
  </outline>
</glyph>
<glyph name="divide" format="2">
  <advance width="458.1"/>
  <unicode hex="00F7"/>
  <outline>
    <contour>
      <point x="0.3490654205607413" y="1167.9906542056074" type="qcurve" smooth="yes"/>
      <point x="0.3490654205607413" y="1265.7383177570093"/>
      <point x="114.4892523364486" y="1393.271028037383"/>
      <point x="228.33971962616823" y="1393.271028037383" type="qcurve" smooth="yes"/>
      <point x="339.7696261682243" y="1393.271028037383"/>
      <point x="458.0406542056075" y="1265.7383177570093"/>
      <point x="458.0406542056075" y="1167.9906542056074" type="qcurve" smooth="yes"/>
      <point x="458.0406542056075" y="1075.0841121495328"/>
      <point x="339.7696261682243" y="949.2616822429907"/>
      <point x="228.33971962616823" y="949.2616822429907" type="qcurve" smooth="yes"/>
      <point x="114.4892523364486" y="949.2616822429907"/>
      <point x="0.3490654205607413" y="1075.0841121495328"/>
    </contour>
    <contour>
      <point x="1.0593457943925202" y="176.48598130841123" type="qcurve" smooth="yes"/>
      <point x="1.0593457943925202" y="271.1028037383178"/>
      <point x="115.19953271028038" y="401.05607476635515"/>
      <point x="229.05" y="401.05607476635515" type="qcurve" smooth="yes"/>
      <point x="340.4799065420561" y="401.05607476635515"/>
      <point x="458.7509345794393" y="271.1028037383178"/>
      <point x="458.7509345794393" y="176.48598130841123" type="qcurve" smooth="yes"/>
      <point x="458.7509345794393" y="82.86915887850469"/>
      <point x="340.4799065420561" y="-44.66355140186914"/>
      <point x="229.05" y="-44.66355140186914" type="qcurve" smooth="yes"/>
      <point x="115.19953271028038" y="-44.66355140186914"/>
      <point x="1.0593457943925202" y="82.86915887850469"/>
    </contour>
    <contour>
      <point x="17.050000000000004" y="588.0" type="line"/>
      <point x="17.050000000000004" y="760.0" type="line"/>
      <point x="441.05" y="760.0" type="line"/>
      <point x="441.05" y="588.0" type="line"/>
    </contour>
  </outline>
</glyph>
<glyph name="kgreenlandic" format="2">
  <advance width="1055.0742990654203"/>
  <unicode hex="0138"/>
  <outline>
    <contour>
      <point x="500.8621495327102" y="916.0" type="line"/>
      <point x="500.8621495327102" y="0.0" type="line"/>
      <point x="31.75" y="0.0" type="line"/>
      <point x="31.75" y="916.0" type="line"/>
    </contour>
    <contour>
      <point x="933.982900915981" y="916.0" type="line"/>
      <point x="779.9829009159808" y="394.0" type="line"/>
      <point x="268.8060747663551" y="394.0" type="line"/>
      <point x="268.8060747663551" y="756.1492537313433" type="line"/>
      <point x="589.3630004184683" y="756.1492537313433" type="line"/>
      <point x="423.5984233040407" y="916.0" type="line"/>
    </contour>
    <contour>
      <point x="530.8621495327102" y="0.0" type="line"/>
      <point x="533.3163551401868" y="407.3869158878505" type="line"/>
      <point x="847.3787850467288" y="620.5005607476636" type="line"/>
      <point x="1048.9742990654204" y="0.0" type="line"/>
    </contour>
  </outline>
</glyph>
<glyph name="Schwa" format="2">
  <advance width="1028.6714953271028"/>
  <unicode hex="018F"/>
  <outline>
    <contour>
      <point x="535.0710280373831" y="-10.0" type="qcurve" smooth="yes"/>
      <point x="222.5102803738318" y="-10.0"/>
      <point x="35.1644859813084" y="330.2897196261682"/>
      <point x="25.220560747663555" y="724.5794392523364" type="qcurve" smooth="yes"/>
      <point x="23.799999999999997" y="783.2897196261682" type="line"/>
      <point x="751.1551401869158" y="783.2897196261682" type="line"/>
      <point x="751.1551401869158" y="476.7064676616916" type="line"/>
      <point x="495.60373831775706" y="478.7412935323383" type="line"/>
      <point x="480.60373831775706" y="477.9651741293533" type="line"/>
      <point x="480.60373831775706" y="658.1791044776119" type="line" smooth="yes"/>
      <point x="480.60373831775706" y="593.1641791044776"/>
      <point x="481.60373831775706" y="477.39303482587064"/>
      <point x="532.7896629004512" y="477.39303482587064" type="qcurve" smooth="yes"/>
      <point x="508.60373831775706" y="477.39303482587064"/>
      <point x="511.12115125308037" y="620.6218905472637"/>
      <point x="510.60373831775706" y="736.3980099502487" type="qcurve" smooth="yes"/>
      <point x="510.0863253824337" y="857.5721393034826"/>
      <point x="513.603738317757" y="971.5373134328358"/>
      <point x="500.60373831775706" y="971.5373134328358" type="qcurve" smooth="yes"/>
      <point x="491.60373831775706" y="971.5373134328358"/>
      <point x="493.9370716510904" y="890.0995024875623"/>
      <point x="492.60373831775706" y="828.5671641791045" type="qcurve" smooth="yes"/>
      <point x="492.60373831775706" y="821.4626865671642" type="line"/>
      <point x="41.35140186915888" y="821.4626865671642" type="line"/>
      <point x="40.610108336820566" y="852.4814246524387" type="line" smooth="yes"/>
      <point x="19.174622216022698" y="1099.472962291347"/>
      <point x="236.71161017343192" y="1467.7102803738317"/>
      <point x="514.0362291347002" y="1467.7102803738317" type="qcurve" smooth="yes"/>
      <point x="822.1640675129028" y="1467.7102803738317"/>
      <point x="1002.9214953271028" y="1096.056074766355"/>
      <point x="1002.9214953271028" y="759.0" type="qcurve" smooth="yes"/>
      <point x="1002.9214953271028" y="418.2056074766355"/>
      <point x="798.9214953271028" y="-10.0"/>
    </contour>
  </outline>
</glyph>
<glyph name="florin" format="2">
  <advance width="481.8621495327102"/>
  <unicode hex="0192"/>
  <outline>
    <contour>
      <point x="463.9621495327102" y="956.1293532338309" type="line"/>
      <point x="463.9621495327102" y="517.6119402985075" type="line"/>
      <point x="-65.14999999999999" y="517.6119402985075" type="line"/>
      <point x="-65.14999999999999" y="956.1293532338309" type="line"/>
    </contour>
    <contour>
      <point x="433.9621495327102" y="111.0" type="line" smooth="yes"/>
      <point x="433.9621495327102" y="-173.0"/>
      <point x="284.9341121495328" y="-437.0"/>
      <point x="103.19579439252335" y="-437.0" type="qcurve" smooth="yes"/>
      <point x="1.6724299065420638" y="-437.0"/>
      <point x="-96.72943925233645" y="-428.57943925233644"/>
      <point x="-110.14999999999999" y="-420.0" type="qcurve"/>
      <point x="-96.14999999999999" y="-1.9104477611940638" type="line"/>
      <point x="-91.14999999999999" y="-7.910447761194064"/>
      <point x="-78.14999999999999" y="-14.910447761194064"/>
      <point x="-71.14999999999999" y="-14.910447761194064" type="qcurve" smooth="yes"/>
      <point x="-53.14999999999999" y="-14.910447761194064"/>
      <point x="-35.14999999999999" y="34.41293532338307"/>
      <point x="-35.14999999999999" y="111.0" type="qcurve" smooth="yes"/>
      <point x="-35.14999999999999" y="1051.4205607476636" type="line" smooth="yes"/>
      <point x="-35.14999999999999" y="1272.588785046729"/>
      <point x="107.46682242990651" y="1487.0"/>
      <point x="311.0088785046729" y="1487.0" type="qcurve" smooth="yes"/>
      <point x="421.9341121495328" y="1487.0"/>
      <point x="532.3079439252336" y="1441.8130841121495"/>
      <point x="544.9621495327102" y="1404.0" type="qcurve"/>
      <point x="429.1213535128097" y="1025.4925373134329" type="line"/>
      <point x="445.1711047565908" y="1039.4427860696517"/>
      <point x="457.9621495327102" y="1051.6517412935323"/>
      <point x="449.9621495327102" y="1051.6517412935323" type="qcurve" smooth="yes"/>
      <point x="438.9621495327102" y="1051.6517412935323"/>
      <point x="433.9621495327102" y="1012.7313432835821"/>
      <point x="433.9621495327102" y="934.3521644115868" type="qcurve" smooth="yes"/>
    </contour>
  </outline>
</glyph>
<glyph name="schwa" format="2">
  <advance width="1021.2359813084113"/>
  <unicode hex="0259"/>
  <outline>
    <contour>
      <point x="1004.1272748407496" y="463.3457943925233" type="qcurve" smooth="yes"/>
      <point x="1004.1272748407496" y="446.2616822429907" type="line" smooth="yes"/>
      <point x="1004.1272748407496" y="236.70056074766356"/>
      <point x="766.2233496071048" y="-30.0"/>
      <point x="503.6506393267308" y="-30.0" type="qcurve" smooth="yes"/>
      <point x="250.82820942018876" y="-30.0"/>
      <point x="24.64129353233831" y="216.7625870646766"/>
      <point x="24.64129353233831" y="443.27363184079604" type="qcurve" smooth="yes"/>
      <point x="24.64129353233831" y="649.0" type="line"/>
      <point x="601.7534430650485" y="649.0" type="line"/>
      <point x="601.7534430650485" y="277.87064676616916" type="line"/>
      <point x="496.62186915887855" y="277.87064676616916" type="line"/>
      <point x="498.7534430650485" y="399.42089552238804" type="line"/>
      <point x="496.62186915887855" y="395.33353233830843"/>
      <point x="494.2121495327102" y="370.3333333333333"/>
      <point x="511.7534430650485" y="370.3333333333333" type="qcurve" smooth="yes"/>
      <point x="518.4360301297252" y="370.3333333333333"/>
      <point x="525.7534430650485" y="420.5430845771144"/>
      <point x="525.7534430650485" y="450.8955223880597" type="qcurve" smooth="yes"/>
      <point x="525.7534430650485" y="465.1044776119403" type="line" smooth="yes"/>
      <point x="525.7534430650485" y="491.0091542288557"/>
      <point x="526.544718463756" y="530.8407960199005"/>
      <point x="472.64110754638017" y="530.8407960199005" type="qcurve" smooth="yes"/>
      <point x="413.22784674757054" y="530.8407960199005"/>
      <point x="323.05320593295204" y="465.0796019900497"/>
      <point x="295.84545961779884" y="419.90547263681594" type="qcurve"/>
      <point x="58.32353652299251" y="741.0" type="line"/>
      <point x="98.15531222392708" y="816.0"/>
      <point x="312.136620635142" y="946.0"/>
      <point x="485.1833496071047" y="946.0" type="qcurve" smooth="yes"/>
      <point x="761.4633496071046" y="946.0"/>
      <point x="1004.1272748407496" y="680.0097196261682"/>
    </contour>
  </outline>
</glyph>
<glyph name="apostrophemod" format="2">
  <advance width="505.0341121495328"/>
  <unicode hex="02BC"/>
  <outline>
    <contour>
      <point x="75.78738317757009" y="870.2242990654206" type="line"/>
      <point x="115.78738317757009" y="900.2242990654206"/>
      <point x="234.70327102803736" y="1047.3457943925234"/>
      <point x="257.51635514018693" y="1146.3084112149534" type="qcurve"/>
      <point x="152.42289719626166" y="1146.3084112149534"/>
      <point x="34.0677570093458" y="1257.5327102803737"/>
      <point x="34.0677570093458" y="1344.943925233645" type="qcurve" smooth="yes"/>
      <point x="34.0677570093458" y="1430.6448598130842"/>
      <point x="153.42289719626166" y="1544.5794392523364"/>
      <point x="246.96495327102804" y="1544.5794392523364" type="qcurve" smooth="yes"/>
      <point x="334.3761682242991" y="1544.5794392523364"/>
      <point x="475.83411214953276" y="1402.411214953271"/>
      <point x="475.83411214953276" y="1288.4766355140187" type="qcurve" smooth="yes"/>
      <point x="475.83411214953276" y="1108.233644859813"/>
      <point x="223.78738317757006" y="871.2242990654206"/>
      <point x="118.78738317757009" y="821.2242990654206" type="qcurve"/>
    </contour>
  </outline>
</glyph>
<glyph name="gravecomb" format="2">
  <unicode hex="0300"/>
  <anchor x="0.0" y="1052.0" name="_top"/>
  <anchor x="0.0" y="1763.233644859813" name="top"/>
  <outline>
    <contour>
      <point x="-85.44278606965173" y="1177.7734691030828" type="line"/>
      <point x="-245.17757009345792" y="1612.0934579439252" type="line"/>
      <point x="111.23364485981308" y="1760.392523364486" type="line"/>
      <point x="273.90663504905376" y="1369.5870646766168" type="line"/>
    </contour>
  </outline>
</glyph>
<glyph name="acutecomb" format="2">
  <unicode hex="0301"/>
  <anchor x="0.0" y="1052.0" name="_top"/>
  <anchor x="0.0" y="1665.9252336448599" name="top"/>
  <outline>
    <contour>
      <point x="-93.71028037383178" y="1227.2897196261683" type="line"/>
      <point x="-28.130841121495322" y="1659.5327102803737" type="line"/>
      <point x="215.34579439252337" y="1571.607476635514" type="line"/>
      <point x="38.0" y="1217.0" type="line"/>
    </contour>
  </outline>
</glyph>
<glyph name="tildecomb" format="2">
  <unicode hex="0303"/>
  <anchor x="0.0" y="1052.0" name="_top"/>
  <anchor x="0.0" y="1503.3364485981308" name="top"/>
  <outline>
    <contour>
      <point x="-175.16915422885572" y="1354.4202352722368" type="line"/>
      <point x="-148.91891012228575" y="1427.8573487701678"/>
      <point x="-91.11940298507463" y="1508.590505416841"/>
      <point x="-60.189054726368155" y="1508.590505416841" type="qcurve" smooth="yes"/>
      <point x="-27.89719626168224" y="1508.590505416841"/>
      <point x="5.819872599618728" y="1465.2374575719534"/>
      <point x="21.364485981308412" y="1447.2056074766356" type="qcurve" smooth="yes"/>
      <point x="34.364485981308405" y="1430.4944901659926"/>
      <point x="53.261682242990645" y="1404.554842609383"/>
      <point x="68.23066908448412" y="1404.554842609383" type="qcurve" smooth="yes"/>
      <point x="77.51741293532338" y="1404.554842609383"/>
      <point x="103.74510624447855" y="1437.480913191054"/>
      <point x="112.00381271214023" y="1473.7910447761194" type="qcurve"/>
      <point x="175.16915422885572" y="1329.8308457711444" type="line"/>
      <point x="145.6534151671549" y="1254.9723345887387"/>
      <point x="91.91974705909703" y="1184.858092714"/>
      <point x="63.189054726368155" y="1184.858092714" type="qcurve" smooth="yes"/>
      <point x="29.766355140186917" y="1184.858092714"/>
      <point x="4.316920072534524" y="1229.7778397730972"/>
      <point x="-14.230669084484122" y="1244.4269307667273" type="qcurve" smooth="yes"/>
      <point x="-28.071790579811225" y="1257.5934346956806"/>
      <point x="-59.78504672897196" y="1290.445157390617"/>
      <point x="-71.81987259961873" y="1290.445157390617" type="qcurve" smooth="yes"/>
      <point x="-79.43116194727298" y="1290.445157390617"/>
      <point x="-94.39800995024876" y="1255.7837448272655"/>
      <point x="-102.17412935323384" y="1213.4328358208954" type="qcurve"/>
    </contour>
  </outline>
</glyph>
<glyph name="brevecomb" format="2">
  <unicode hex="0306"/>
  <anchor x="0.0" y="1052.0" name="_top"/>
  <anchor x="0.0" y="1539.3084112149534" name="top"/>
  <outline>
    <contour>
      <point x="55.20560747663552" y="1540.4392523364486" type="qcurve"/>
      <point x="154.49532710280374" y="1494.8317757009345" type="line"/>
      <point x="123.0" y="1351.0"/>
      <point x="47.0" y="1197.0"/>
      <point x="0.0" y="1197.0" type="qcurve" smooth="yes"/>
      <point x="-47.0" y="1197.0"/>
      <point x="-123.0" y="1351.0"/>
      <point x="-154.49532710280374" y="1493.411214953271" type="qcurve"/>
      <point x="-56.62616822429908" y="1539.018691588785" type="line"/>
      <point x="-47.04672897196261" y="1496.9345794392523"/>
      <point x="-11.0" y="1413.5607476635514"/>
      <point x="0.0" y="1413.5607476635514" type="qcurve" smooth="yes"/>
      <point x="11.0" y="1413.5607476635514"/>
      <point x="45.62616822429908" y="1499.0654205607477"/>
    </contour>
  </outline>
</glyph>
<glyph name="dieresiscomb" format="2">
  <unicode hex="0308"/>
  <anchor x="0.0" y="1052.0" name="_GRK_top"/>
  <anchor x="0.0" y="1052.0" name="_top"/>
  <anchor x="0.0" y="1507.7102803738317" name="top"/>
  <outline>
    <contour>
      <point x="-246.7196261682243" y="1384.196261682243" type="qcurve" smooth="yes"/>
      <point x="-246.7196261682243" y="1435.9532710280373"/>
      <point x="-180.41121495327104" y="1509.8130841121495"/>
      <point x="-116.10280373831776" y="1509.8130841121495" type="qcurve" smooth="yes"/>
      <point x="-51.79439252336448" y="1509.8130841121495"/>
      <point x="16.93457943925233" y="1435.9532710280373"/>
      <point x="16.93457943925233" y="1384.196261682243" type="qcurve" smooth="yes"/>
      <point x="16.93457943925233" y="1331.1495327102805"/>
      <point x="-51.79439252336448" y="1258.0"/>
      <point x="-116.10280373831776" y="1258.0" type="qcurve" smooth="yes"/>
      <point x="-180.41121495327104" y="1258.0"/>
      <point x="-246.7196261682243" y="1331.1495327102805"/>
    </contour>
    <contour>
      <point x="-17.93457943925233" y="1384.196261682243" type="qcurve" smooth="yes"/>
      <point x="-17.93457943925233" y="1435.9532710280373"/>
      <point x="49.0841121495327" y="1509.8130841121495"/>
      <point x="114.10280373831776" y="1509.8130841121495" type="qcurve" smooth="yes"/>
      <point x="178.41121495327104" y="1509.8130841121495"/>
      <point x="245.7196261682243" y="1435.9532710280373"/>
      <point x="245.7196261682243" y="1384.196261682243" type="qcurve" smooth="yes"/>
      <point x="245.7196261682243" y="1331.1495327102805"/>
      <point x="178.41121495327104" y="1258.0"/>
      <point x="114.10280373831776" y="1258.0" type="qcurve" smooth="yes"/>
      <point x="49.0841121495327" y="1258.0"/>
      <point x="-17.93457943925233" y="1331.1495327102805"/>
    </contour>
  </outline>
</glyph>
<glyph name="hungarumlautcomb" format="2">
  <unicode hex="030B"/>
  <anchor x="0.0" y="1052.0" name="_top"/>
  <anchor x="0.0" y="1644.214953271028" name="top"/>
  <outline>
    <contour>
      <point x="-187.73831775700936" y="1226.5794392523364" type="line"/>
      <point x="-138.49532710280374" y="1663.7943925233644" type="line"/>
      <point x="99.29906542056074" y="1589.3644859813085" type="line"/>
      <point x="-61.0" y="1217.0" type="line"/>
    </contour>
    <contour>
      <point x="20.13084112149533" y="1228.7102803738317" type="line"/>
      <point x="82.86915887850466" y="1656.6915887850466" type="line"/>
      <point x="324.21495327102804" y="1578.7102803738317" type="line"/>
      <point x="149.0" y="1219.1308411214952" type="line"/>
    </contour>
  </outline>
</glyph>
<glyph name="breveinvertedcomb" format="2">
  <unicode hex="030F"/>
  <anchor x="0.0" y="1052.0" name="_top"/>
  <anchor x="0.0" y="1570.5420560747664" name="top"/>
  <outline>
    <contour>
      <point x="-100.13084112149534" y="1220.7102803738317" type="qcurve"/>
      <point x="-142.42056074766356" y="1272.5794392523364" type="line"/>
      <point x="-126.71028037383178" y="1390.0467289719627"/>
      <point x="-52.71028037383178" y="1569.8317757009345"/>
      <point x="1.0" y="1570.5420560747664" type="qcurve" smooth="yes"/>
      <point x="48.71028037383178" y="1571.252336448598"/>
      <point x="125.42056074766356" y="1402.3364485981308"/>
      <point x="141.28971962616822" y="1273.4205607476636" type="qcurve"/>
      <point x="102.13084112149534" y="1220.7102803738317" type="line"/>
      <point x="87.13084112149534" y="1264.9252336448599"/>
      <point x="37.55140186915888" y="1339.7757009345794"/>
      <point x="1.0" y="1340.4859813084113" type="qcurve" smooth="yes"/>
      <point x="-35.0" y="1339.7757009345794"/>
      <point x="-85.84112149532712" y="1264.6635514018692"/>
    </contour>
  </outline>
</glyph>
<glyph name="commaaccentturnedcomb" format="2">
  <unicode hex="0312"/>
  <anchor x="0.0" y="1052.0" name="_top"/>
  <outline>
    <contour>
      <point x="137.15887850467288" y="1655.0" type="line"/>
      <point x="125.42990654205607" y="1246.6728971962616" type="line"/>
      <point x="-157.11214953271028" y="1284.8785046728972" type="line"/>
      <point x="11.0" y="1675.7102803738317" type="line"/>
    </contour>
  </outline>
</glyph>
<glyph name="horncomb" format="2">
  <unicode hex="031B"/>
  <anchor x="0.0" y="1052.0" name="_topright"/>
  <anchor x="0.0" y="1293.0" name="topright"/>
  <outline>
    <contour>
      <point x="0.0" y="1052.0" type="line"/>
      <point x="15.0" y="1052.0" type="line" smooth="yes"/>
      <point x="25.0" y="1052.0"/>
      <point x="30.0" y="1086.0"/>
      <point x="30.0" y="1138.0" type="qcurve" smooth="yes"/>
      <point x="30.0" y="1184.0"/>
      <point x="17.0" y="1257.0"/>
      <point x="7.0" y="1293.0" type="qcurve"/>
      <point x="295.0560747663551" y="1293.0" type="line"/>
      <point x="315.0560747663551" y="1260.0"/>
      <point x="348.0560747663551" y="1157.0"/>
      <point x="348.0560747663551" y="1093.0" type="qcurve" smooth="yes"/>
      <point x="348.0560747663551" y="1005.0"/>
      <point x="258.0560747663551" y="920.0"/>
      <point x="121.89719626168224" y="920.0" type="qcurve" smooth="yes"/>
      <point x="42.0" y="920.0"/>
      <point x="3.0" y="932.0"/>
      <point x="0.0" y="941.0" type="qcurve"/>
    </contour>
  </outline>
</glyph>
<glyph name="dotbelowcomb" format="2">
  <unicode hex="0323"/>
  <anchor x="0.0" y="0.0" name="_bottom"/>
  <anchor x="0.0" y="-484.05607476635515" name="bottom"/>
  <outline>
    <contour>
      <point x="-145.48598130841123" y="-301.9906542056075" type="qcurve" smooth="yes"/>
      <point x="-145.48598130841123" y="-241.94392523364485"/>
      <point x="-71.17757009345794" y="-163.21495327102804"/>
      <point x="0.0" y="-163.21495327102804" type="qcurve" smooth="yes"/>
      <point x="68.17757009345794" y="-163.21495327102804"/>
      <point x="143.48598130841123" y="-241.94392523364485"/>
      <point x="143.48598130841123" y="-301.9906542056075" type="qcurve" smooth="yes"/>
      <point x="143.48598130841123" y="-360.3271028037383"/>
      <point x="68.17757009345794" y="-440.05607476635515"/>
      <point x="0.0" y="-440.05607476635515" type="qcurve" smooth="yes"/>
      <point x="-71.17757009345794" y="-440.05607476635515"/>
      <point x="-145.48598130841123" y="-360.3271028037383"/>
    </contour>
  </outline>
</glyph>
<glyph name="cedillacomb" format="2">
  <unicode hex="0327"/>
  <anchor x="0.0" y="0.0" name="_bottom"/>
  <anchor x="0.0" y="-457.0" name="bottom"/>
  <outline>
    <contour>
      <point x="-72.0" y="20.0" type="line"/>
      <point x="57.0" y="20.0" type="line"/>
      <point x="29.0" y="-75.0" type="line"/>
      <point x="144.78504672897196" y="-82.86915887850468"/>
      <point x="222.74766355140184" y="-161.0"/>
      <point x="222.74766355140184" y="-248.0" type="qcurve" smooth="yes"/>
      <point x="222.74766355140184" y="-341.0"/>
      <point x="118.74766355140184" y="-457.0"/>
      <point x="-134.0" y="-457.0" type="qcurve"/>
      <point x="-141.0" y="-350.0" type="line"/>
      <point x="-119.0" y="-350.0"/>
      <point x="-80.0" y="-303.0"/>
      <point x="-80.0" y="-250.0" type="qcurve" smooth="yes"/>
      <point x="-80.0" y="-201.0"/>
      <point x="-91.0" y="-164.0"/>
      <point x="-113.0" y="-157.0" type="qcurve"/>
    </contour>
  </outline>
</glyph>
<glyph name="Gamma" format="2">
  <advance width="639.4088785046729"/>
  <unicode hex="0393"/>
  <anchor x="336.97196261682245" y="1456.0" name="top"/>
  <anchor x="354.75700934579436" y="708.0" name="center"/>
  <outline>
    <contour>
      <point x="34.0" y="0.0" type="line"/>
      <point x="34.0" y="1456.0" type="line"/>
      <point x="627.1588785046729" y="1456.0" type="line"/>
      <point x="627.1588785046729" y="1000.0" type="line"/>
      <point x="530.7102803738318" y="1000.0" type="line"/>
      <point x="530.7102803738318" y="0.0" type="line"/>
    </contour>
  </outline>
</glyph>
<glyph name="Delta" format="2">
  <advance width="819.3817757009344"/>
  <unicode hex="0394"/>
  <outline>
    <contour>
      <point x="12.850000000000001" y="0.0" type="line"/>
      <point x="12.850000000000001" y="107.0" type="line"/>
      <point x="156.85" y="1466.0" type="line"/>
      <point x="662.6817757009345" y="1466.0" type="line"/>
      <point x="806.6817757009345" y="107.0" type="line"/>
      <point x="806.6817757009345" y="0.0" type="line"/>
    </contour>
    <contour>
      <point x="542.3823383084576" y="478.9800995024875" type="line"/>
      <point x="132.79527363184081" y="478.9800995024875" type="line"/>
      <point x="347.442039800995" y="839.0646766169154" type="line" smooth="yes"/>
      <point x="348.18333333333334" y="870.5820895522388"/>
      <point x="341.99427860696517" y="934.0646766169154"/>
      <point x="341.99427860696517" y="967.0646766169154" type="qcurve"/>
      <point x="331.99427860696517" y="967.0646766169154" type="line"/>
      <point x="331.99427860696517" y="934.0646766169154"/>
      <point x="331.7355721393035" y="880.2189054726368"/>
      <point x="328.0291044776119" y="839.0646766169154" type="qcurve" smooth="yes"/>
    </contour>
  </outline>
</glyph>
<glyph name="Theta" format="2">
  <advance width="1103.7803738317757"/>
  <unicode hex="0398"/>
  <outline>
    <contour>
      <point x="552.2453271028037" y="-10.0" type="qcurve" smooth="yes"/>
      <point x="235.27336448598135" y="-10.0"/>
      <point x="25.75" y="377.3644859813084"/>
      <point x="25.75" y="723.3084112149533" type="qcurve" smooth="yes"/>
      <point x="25.75" y="729.1401869158879" type="line" smooth="yes"/>
      <point x="25.75" y="1077.214953271028"/>
      <point x="227.46028037383178" y="1466.0"/>
      <point x="552.2453271028037" y="1466.0" type="qcurve" smooth="yes"/>
      <point x="877.0303738317757" y="1466.0"/>
      <point x="1078.0303738317757" y="1077.214953271028"/>
      <point x="1078.0303738317757" y="729.1401869158879" type="qcurve" smooth="yes"/>
      <point x="1078.0303738317757" y="723.3084112149533" type="line" smooth="yes"/>
      <point x="1078.0303738317757" y="377.3644859813084"/>
      <point x="869.217289719626" y="-10.0"/>
    </contour>
    <contour>
      <point x="552.2453271028037" y="478.6865671641791" type="qcurve" smooth="yes"/>
      <point x="573.0303738317757" y="478.6865671641791"/>
      <point x="567.2453271028037" y="609.8258706467661"/>
      <point x="567.2453271028037" y="725.7213930348258" type="qcurve" smooth="yes"/>
      <point x="567.2453271028037" y="727.3134328358209" type="line" smooth="yes"/>
      <point x="567.2453271028037" y="843.2089552238806"/>
      <point x="573.0303738317757" y="977.3134328358209"/>
      <point x="552.2453271028037" y="977.3134328358209" type="qcurve" smooth="yes"/>
      <point x="530.4602803738318" y="977.3134328358209"/>
      <point x="537.2453271028037" y="843.2089552238806"/>
      <point x="537.2453271028037" y="727.3134328358209" type="qcurve" smooth="yes"/>
      <point x="537.2453271028037" y="725.7213930348258" type="line" smooth="yes"/>
      <point x="537.2453271028037" y="609.8258706467661"/>
      <point x="530.4602803738318" y="478.6865671641791"/>
    </contour>
    <contour>
      <point x="543.2453271028037" y="510.7412935323383" type="line"/>
      <point x="543.2453271028037" y="975.2587064676617" type="line"/>
      <point x="561.2453271028037" y="975.2587064676617" type="line"/>
      <point x="561.2453271028037" y="510.7412935323383" type="line"/>
    </contour>
  </outline>
</glyph>
<glyph name="Lambda" format="2">
  <advance width="767.1495327102803"/>
  <unicode hex="039B"/>
  <outline>
    <contour>
      <point x="8.5" y="0.0" type="line"/>
      <point x="132.5" y="1466.0" type="line"/>
      <point x="632.6495327102803" y="1466.0" type="line"/>
      <point x="758.6495327102803" y="0.0" type="line"/>
      <point x="230.5" y="0.0" type="line"/>
      <point x="222.5" y="1100.0" type="line" smooth="yes"/>
      <point x="222.5" y="1135.0"/>
      <point x="221.5" y="1195.0"/>
      <point x="221.5" y="1228.0" type="qcurve"/>
      <point x="211.5" y="1228.0" type="line"/>
      <point x="211.5" y="1195.0"/>
      <point x="210.5" y="1135.0"/>
      <point x="210.5" y="1100.0" type="qcurve" smooth="yes"/>
      <point x="200.5" y="0.0" type="line"/>
    </contour>
  </outline>
</glyph>
<glyph name="beta" format="2">
  <advance width="1032.98738317757"/>
  <unicode hex="03B2"/>
  <outline>
    <contour>
      <point x="30.700000000000003" y="-416.0" type="line"/>
      <point x="30.700000000000003" y="918.785046728972" type="line" smooth="yes"/>
      <point x="30.700000000000003" y="1257.018691588785"/>
      <point x="274.62523364485986" y="1556.0"/>
      <point x="555.1672897196262" y="1556.0" type="qcurve" smooth="yes"/>
      <point x="825.0831775700935" y="1556.0"/>
      <point x="997.7373831775701" y="1350.0"/>
      <point x="997.7373831775701" y="1155.0" type="qcurve"/>
      <point x="997.7373831775701" y="1026.0"/>
      <point x="893.326168224299" y="820.92"/>
      <point x="809.326168224299" y="795.92" type="qcurve"/>
      <point x="809.326168224299" y="811.92" type="line"/>
      <point x="922.326168224299" y="791.92"/>
      <point x="1011.7373831775701" y="591.92"/>
      <point x="1011.7373831775701" y="424.92" type="qcurve" smooth="yes"/>
      <point x="1011.7373831775701" y="204.92"/>
      <point x="938.66261682243" y="-21.0"/>
      <point x="746.0925233644859" y="-21.0" type="qcurve" smooth="yes"/>
      <point x="568.4476635514019" y="-21.0"/>
      <point x="340.7841121495327" y="161.9158878504673"/>
      <point x="298.2700934579439" y="270.33644859813086" type="qcurve"/>
      <point x="298.2700934579439" y="569.6051053145487" type="line"/>
      <point x="384.1953271028037" y="468.31608313572326"/>
      <point x="515.1205607476636" y="381.8159203980099"/>
      <point x="516.8121495327102" y="381.8159203980099" type="qcurve" smooth="yes"/>
      <point x="526.8121495327102" y="381.8159203980099"/>
      <point x="530.8121495327102" y="414.3180099502487"/>
      <point x="530.8121495327102" y="464.691144278607" type="qcurve" smooth="yes"/>
      <point x="530.8121495327102" y="531.2078597665875"/>
      <point x="507.3758729715906" y="565.1954228855722"/>
      <point x="515.8121495327102" y="565.3180099502487" type="qcurve" smooth="yes"/>
      <point x="510.8121495327102" y="565.3180099502487" type="line"/>
      <point x="510.8121495327102" y="925.2583084577115" type="line"/>
      <point x="516.8121495327102" y="925.2583084577115" type="line" smooth="yes"/>
      <point x="525.8121495327102" y="925.2583084577115"/>
      <point x="530.8121495327102" y="1002.9004975124378"/>
      <point x="530.8121495327102" y="1049.995024875622" type="qcurve" smooth="yes"/>
      <point x="530.8121495327102" y="1095.5373134328358"/>
      <point x="525.8121495327102" y="1152.7014925373135"/>
      <point x="516.8121495327102" y="1152.7014925373135" type="qcurve" smooth="yes"/>
      <point x="505.8121495327102" y="1152.7014925373135"/>
      <point x="500.8121495327102" y="1069.950248756219"/>
      <point x="500.8121495327102" y="984.9402985074627" type="qcurve" smooth="yes"/>
      <point x="500.8121495327102" y="-416.0" type="line"/>
    </contour>
  </outline>
</glyph>
<glyph name="gamma" format="2">
  <advance width="719.1121495327102"/>
  <unicode hex="03B3"/>
  <outline>
    <contour>
      <point x="123.5" y="-366.0" type="line"/>
      <point x="123.5" y="51.2" type="line"/>
      <point x="8.5" y="916.0" type="line"/>
      <point x="472.61214953271025" y="916.0" type="line"/>
      <point x="498.6121495327102" y="309.2" type="line" smooth="yes"/>
      <point x="501.6521495327102" y="270.56"/>
      <point x="500.6121495327102" y="199.2"/>
      <point x="500.6121495327102" y="179.2" type="qcurve"/>
      <point x="506.6121495327102" y="179.2" type="line"/>
      <point x="506.6121495327102" y="199.2"/>
      <point x="508.1235514018692" y="267.8497196261682"/>
      <point x="508.6121495327102" y="309.2" type="qcurve" smooth="yes"/>
      <point x="534.6121495327102" y="916.0" type="line"/>
      <point x="710.6121495327102" y="916.0" type="line"/>
      <point x="593.6121495327102" y="51.2" type="line"/>
      <point x="593.6121495327102" y="-366.0" type="line"/>
    </contour>
  </outline>
</glyph>
<glyph name="epsilon" format="2">
  <advance width="1009.6742990654204"/>
  <unicode hex="03B5"/>
  <anchor x="512.4621495327102" y="916.0" name="top"/>
  <outline>
    <contour>
      <point x="500.3873831775701" y="-30.0" type="qcurve"/>
      <point x="290.4202803738318" y="-30.0"/>
      <point x="16.247196261682248" y="116.0"/>
      <point x="16.247196261682248" y="252.0" type="qcurve" smooth="yes"/>
      <point x="16.247196261682248" y="364.4975700934579"/>
      <point x="246.1488785046729" y="453.86915887850466"/>
      <point x="425.4341121495328" y="468.0" type="qcurve"/>
      <point x="425.4341121495328" y="446.0" type="line"/>
      <point x="242.32794392523365" y="462.93943925233646"/>
      <point x="17.247196261682248" y="566.2"/>
      <point x="17.247196261682248" y="666.0747663551402" type="qcurve" smooth="yes"/>
      <point x="17.247196261682248" y="791.76"/>
      <point x="278.1630841121496" y="945.0"/>
      <point x="493.2845794392523" y="945.0" type="qcurve" smooth="yes"/>
      <point x="748.3067117682616" y="945.0"/>
      <point x="991.5742990654204" y="746.6659878179198"/>
      <point x="991.5742990654204" y="522.6228855721392" type="qcurve"/>
      <point x="527.4621495327102" y="522.6228855721392" type="line"/>
      <point x="527.4621495327102" y="549.8716417910448"/>
      <point x="522.4621495327102" y="561.9751243781095"/>
      <point x="512.4621495327102" y="561.9751243781095" type="qcurve" smooth="yes"/>
      <point x="503.8221495327102" y="561.9751243781095"/>
      <point x="497.4621495327102" y="549.8786069651742"/>
      <point x="497.4621495327102" y="543.2885572139304" type="qcurve" smooth="yes"/>
      <point x="497.4621495327102" y="534.9468656716417"/>
      <point x="501.9821495327102" y="618.6965174129353"/>
      <point x="520.4621495327102" y="618.6965174129353" type="qcurve" smooth="yes"/>
      <point x="600.4621495327102" y="618.6965174129353" type="line"/>
      <point x="600.4621495327102" y="313.6119402985075" type="line"/>
      <point x="512.4621495327102" y="313.6119402985075" type="line" smooth="yes"/>
      <point x="504.50214953271023" y="313.6119402985075"/>
      <point x="497.4621495327102" y="322.84"/>
      <point x="497.4621495327102" y="333.1641791044776" type="qcurve" smooth="yes"/>
      <point x="497.4621495327102" y="351.4742288557214"/>
      <point x="513.3421495327102" y="371.8159203980099"/>
      <point x="506.0696261682243" y="371.8159203980099" type="qcurve"/>
      <point x="522.4621495327102" y="371.8159203980099"/>
      <point x="523.0143883386804" y="375.6955223880597"/>
      <point x="527.4621495327102" y="405.2378109452736" type="qcurve"/>
      <point x="991.5742990654204" y="405.2378109452736" type="line"/>
      <point x="991.5742990654204" y="172.26436044078673"/>
      <point x="765.7459641047102" y="-30.0"/>
    </contour>
  </outline>
</glyph>
<glyph name="zeta" format="2">
  <advance width="660.4135514018692"/>
  <unicode hex="03B6"/>
  <guideline x="809.0" y="291.0" angle="90.0" identifier="Hhem4nGbLg"/>
  <guideline x="856.0" y="823.0" angle="90.0" identifier="UwRnHAo0ZQ"/>
  <outline>
    <contour>
      <point x="447.1565420560747" y="-348.0" type="line"/>
      <point x="455.1565420560747" y="-295.0"/>
      <point x="450.2958455386618" y="-258.99330450550985"/>
      <point x="456.96748732970656" y="-229.2321104756591" type="qcurve" smooth="yes"/>
      <point x="463.63912912075136" y="-204.1425117403636"/>
      <point x="449.74360673269166" y="-124.38513042265308"/>
      <point x="438.74360673269166" y="-120.6748500488213" type="qcurve" smooth="yes"/>
      <point x="358.3697749569908" y="-100.75896219835401" type="line" smooth="yes"/>
      <point x="194.13613009717764" y="-60.450550983400746"/>
      <point x="18.25" y="128.03124564095413"/>
      <point x="18.25" y="308.75775328962663" type="qcurve"/>
      <point x="18.25" y="499.9035662807458"/>
      <point x="230.69139117496633" y="731.397219509927"/>
      <point x="329.035046728972" y="951.8317757009346" type="qcurve" smooth="yes"/>
      <point x="227.67353652299255" y="1099.0280373831777" type="line"/>
      <point x="58.17304830985262" y="803.3704375319664" type="line"/>
      <point x="64.25" y="803.3704375319664" type="line"/>
      <point x="64.25" y="1536.0" type="line"/>
      <point x="601.3621495327102" y="1536.0" type="line"/>
      <point x="601.3621495327102" y="1379.0" type="line"/>
      <point x="542.3621495327102" y="916.0" type="line" smooth="yes"/>
      <point x="548.3920002789788" y="707.0796019900497"/>
      <point x="524.4798321476729" y="577.0413353791789"/>
      <point x="524.4798321476729" y="559.4997907657971" type="qcurve"/>
      <point x="524.4798321476729" y="536.5181568791556"/>
      <point x="568.1851838936161" y="477.2769330915516"/>
      <point x="547.8928139675454" y="474.88357279025433" type="qcurve" smooth="yes"/>
      <point x="517.1897405495885" y="474.7973218022039" type="line" smooth="yes"/>
      <point x="569.5486004556657" y="455.7905333147347"/>
      <point x="661.464953271028" y="186.9815408936625"/>
      <point x="661.464953271028" y="20.082159296973074" type="qcurve" smooth="yes"/>
      <point x="661.464953271028" y="-118.27865346166365"/>
      <point x="632.1565420560746" y="-278.0"/>
      <point x="617.1565420560746" y="-348.0" type="qcurve"/>
    </contour>
  </outline>
</glyph>
<glyph name="eta" format="2">
  <advance width="1031.1242990654205"/>
  <unicode hex="03B7"/>
  <anchor x="741.4943925233645" y="0.0" name="bottom"/>
  <anchor x="519.4943925233645" y="916.0" name="top"/>
  <outline>
    <contour>
      <point x="30.700000000000003" y="0.0" type="line"/>
      <point x="30.700000000000003" y="916.0" type="line"/>
      <point x="482.8121495327102" y="916.0" type="line"/>
      <point x="500.8121495327102" y="821.0" type="line"/>
      <point x="500.8121495327102" y="0.0" type="line"/>
    </contour>
    <contour>
      <point x="407.8121495327102" y="260.50248756218906" type="qcurve"/>
      <point x="407.8121495327102" y="610.0" type="line"/>
      <point x="468.9897196261682" y="812.1308411214953"/>
      <point x="614.5224299065421" y="941.8"/>
      <point x="716.4850467289721" y="942.8" type="qcurve" smooth="yes"/>
      <point x="886.643925233645" y="943.8"/>
      <point x="1000.9242990654204" y="742.9252336448598"/>
      <point x="1000.9242990654204" y="487.5981308411215" type="qcurve" smooth="yes"/>
      <point x="1000.9242990654204" y="-416.0" type="line"/>
      <point x="530.8121495327102" y="-416.0" type="line"/>
      <point x="530.8121495327102" y="272.9452736318408" type="line" smooth="yes"/>
      <point x="530.8121495327102" y="488.9452736318408"/>
      <point x="521.5882689356953" y="514.7452736318407"/>
      <point x="513.8121495327102" y="514.7452736318407" type="qcurve" smooth="yes"/>
      <point x="491.3992142093271" y="514.7452736318407"/>
      <point x="441.13288231738494" y="406.339982331334"/>
    </contour>
  </outline>
</glyph>
<glyph name="theta" format="2">
  <advance width="1028.5654205607475"/>
  <unicode hex="03B8"/>
  <outline>
    <contour>
      <point x="515.9929906542056" y="-30.0" type="qcurve" smooth="yes"/>
      <point x="265.3743073360351" y="-30.0"/>
      <point x="22.75" y="349.3457943925234"/>
      <point x="22.75" y="719.3457943925233" type="qcurve"/>
      <point x="22.75" y="818.0747663551402" type="line"/>
      <point x="22.75" y="1176.6542056074766"/>
      <point x="262.6640269622033" y="1556.0"/>
      <point x="512.5724299065421" y="1556.0" type="qcurve" smooth="yes"/>
      <point x="767.1780456537922" y="1556.0"/>
      <point x="1005.5986064014555" y="1176.6542056074766"/>
      <point x="1005.5986064014555" y="818.0747663551402" type="qcurve"/>
      <point x="1005.5986064014555" y="719.3457943925233" type="line"/>
      <point x="1005.5986064014555" y="349.3457943925234"/>
      <point x="769.8883260276239" y="-30.0"/>
    </contour>
    <contour>
      <point x="514.2827102803737" y="390.3482587064676" type="qcurve" smooth="yes"/>
      <point x="524.2827102803737" y="390.3482587064676"/>
      <point x="529.0658961210818" y="523.9800995024875"/>
      <point x="529.0658961210818" y="676.2686567164179" type="qcurve"/>
      <point x="529.0658961210818" y="852.2487562189054" type="line" smooth="yes"/>
      <point x="529.0658961210818" y="1004.5373134328358"/>
      <point x="524.2827102803737" y="1135.6517412935323"/>
      <point x="514.2827102803737" y="1135.6517412935323" type="qcurve" smooth="yes"/>
      <point x="504.28271028037375" y="1135.6517412935323"/>
      <point x="499.28271028037375" y="1004.5373134328358"/>
      <point x="499.28271028037375" y="852.2487562189054" type="qcurve" smooth="yes"/>
      <point x="499.28271028037375" y="676.2686567164179" type="line" smooth="yes"/>
      <point x="499.28271028037375" y="523.9800995024875"/>
      <point x="504.28271028037375" y="390.3482587064676"/>
    </contour>
    <contour>
      <point x="261.22663551401865" y="496.3930348258707" type="line"/>
      <point x="261.22663551401865" y="890.4328358208955" type="line"/>
      <point x="767.1219708874369" y="890.4328358208955" type="line"/>
      <point x="767.1219708874369" y="496.3930348258707" type="line"/>
    </contour>
  </outline>
</glyph>
<glyph name="iota" format="2">
  <advance width="554.3121495327102"/>
  <unicode hex="03B9"/>
  <anchor x="273.22803738317754" y="916.0" name="top"/>
  <outline>
    <contour>
      <point x="294.1626168224299" y="-30.0" type="qcurve" smooth="yes"/>
      <point x="166.54579439252336" y="-30.0"/>
      <point x="29.200000000000003" y="144.09345794392522"/>
      <point x="29.200000000000003" y="302.61682242990656" type="qcurve" smooth="yes"/>
      <point x="29.200000000000003" y="916.0" type="line"/>
      <point x="499.3121495327102" y="916.0" type="line"/>
      <point x="499.3121495327102" y="526.8656716417911" type="line" smooth="yes"/>
      <point x="499.3121495327102" y="456.86567164179104"/>
      <point x="505.3121495327102" y="396.86567164179104"/>
      <point x="519.3121495327102" y="396.86567164179104" type="qcurve" smooth="yes"/>
      <point x="525.3121495327102" y="396.86567164179104"/>
      <point x="535.3121495327102" y="408.86567164179104"/>
      <point x="538.3121495327102" y="418.86567164179104" type="qcurve"/>
      <point x="538.3121495327102" y="0.0" type="line"/>
      <point x="532.3121495327102" y="-12.0"/>
      <point x="406.1065420560747" y="-30.0"/>
    </contour>
  </outline>
</glyph>
<glyph name="kappa" format="2">
  <advance width="1197.433005533082"/>
  <unicode hex="03BA"/>
  <outline>
    <contour>
      <point x="679.0708560003719" y="0.0" type="line"/>
      <point x="642.9144380899243" y="484.6119402985074" type="line"/>
      <point x="965.2116343516067" y="679.5091365601896" type="line"/>
      <point x="1191.183005533082" y="0.0" type="line"/>
    </contour>
    <contour>
      <point x="265.7560747663551" y="542.0" type="line"/>
      <point x="613.8527372483377" y="542.0" type="line"/>
      <point x="583.2927372483377" y="916.0" type="line"/>
      <point x="1053.3325382433627" y="916.0" type="line"/>
      <point x="938.2925382433626" y="397.0" type="line"/>
      <point x="265.7560747663551" y="397.0" type="line"/>
    </contour>
    <contour>
      <point x="500.8121495327102" y="916.0" type="line"/>
      <point x="500.8121495327102" y="0.0" type="line"/>
      <point x="30.700000000000003" y="0.0" type="line"/>
      <point x="30.700000000000003" y="916.0" type="line"/>
    </contour>
  </outline>
</glyph>
<glyph name="lambda" format="2">
  <advance width="731.1121495327102"/>
  <unicode hex="03BB"/>
  <outline>
    <contour>
      <point x="8.5" y="0.0" type="line"/>
      <point x="150.06" y="1015.36" type="line"/>
      <point x="128.5" y="1110.0" type="line" smooth="yes"/>
      <point x="99.82" y="1285.32"/>
      <point x="74.5" y="1396.0"/>
      <point x="57.5" y="1396.0" type="qcurve" smooth="yes"/>
      <point x="51.5" y="1396.0"/>
      <point x="41.5" y="1389.0"/>
      <point x="37.5" y="1381.0" type="qcurve"/>
      <point x="37.5" y="1536.0" type="line"/>
      <point x="46.5" y="1546.0"/>
      <point x="94.22897196261681" y="1556.0"/>
      <point x="228.5560747663551" y="1556.0" type="qcurve" smooth="yes"/>
      <point x="346.6682242990654" y="1556.0"/>
      <point x="518.7616822429907" y="1378.6728971962616"/>
      <point x="557.1261682242991" y="1175.2897196261683" type="qcurve" smooth="yes"/>
      <point x="722.6121495327102" y="0.0" type="line"/>
      <point x="238.5" y="0.0" type="line"/>
      <point x="229.5" y="616.6" type="line" smooth="yes"/>
      <point x="228.5" y="676.6"/>
      <point x="227.5" y="736.6"/>
      <point x="226.5" y="787.6" type="qcurve"/>
      <point x="220.5" y="787.6" type="line"/>
      <point x="218.5" y="738.6"/>
      <point x="217.5" y="661.6"/>
      <point x="216.5" y="616.6" type="qcurve" smooth="yes"/>
      <point x="208.5" y="0.0" type="line"/>
    </contour>
  </outline>
</glyph>
<glyph name="mu" format="2">
  <advance width="1054.7242990654204"/>
  <unicode hex="03BC"/>
  <outline>
    <contour>
      <point x="30.700000000000003" y="-416.0" type="line"/>
      <point x="30.700000000000003" y="916.0" type="line"/>
      <point x="500.8121495327102" y="916.0" type="line"/>
      <point x="500.8121495327102" y="-416.0" type="line"/>
    </contour>
    <contour>
      <point x="280.7560747663551" y="658.8656716417911" type="line"/>
      <point x="338.51308411214956" y="522.3049239782397"/>
      <point x="467.45700934579435" y="398.86567164179104"/>
      <point x="515.8121495327102" y="398.86567164179104" type="qcurve" smooth="yes"/>
      <point x="526.8121495327102" y="398.86567164179104"/>
      <point x="531.8121495327102" y="534.8656716417911"/>
      <point x="530.8121495327102" y="623.8656716417911" type="qcurve" smooth="yes"/>
      <point x="530.8121495327102" y="916.0" type="line"/>
      <point x="1000.9242990654204" y="916.0" type="line"/>
      <point x="1000.9242990654204" y="534.4527363184079" type="line" smooth="yes"/>
      <point x="1000.9242990654204" y="459.452736318408"/>
      <point x="1006.9242990654204" y="402.452736318408"/>
      <point x="1020.9242990654204" y="402.452736318408" type="qcurve" smooth="yes"/>
      <point x="1026.9242990654204" y="402.452736318408"/>
      <point x="1037.9242990654204" y="409.452736318408"/>
      <point x="1039.9242990654204" y="416.452736318408" type="qcurve"/>
      <point x="1039.9242990654204" y="5.0" type="line"/>
      <point x="1033.9242990654204" y="-4.0"/>
      <point x="911.9803738317758" y="-17.0"/>
      <point x="775.1766355140187" y="-17.0" type="qcurve" smooth="yes"/>
      <point x="638.1205607476636" y="-17.0"/>
      <point x="554.8121495327102" y="59.0"/>
      <point x="546.8121495327102" y="130.0" type="qcurve"/>
      <point x="540.8121495327102" y="130.0" type="line"/>
      <point x="537.8121495327102" y="68.0"/>
      <point x="524.307476635514" y="-20.0"/>
      <point x="482.0271028037383" y="-20.0" type="qcurve" smooth="yes"/>
      <point x="423.8308411214953" y="-20.0"/>
      <point x="314.2233644859813" y="103.07476635514018"/>
      <point x="280.7560747663551" y="194.0" type="qcurve"/>
    </contour>
  </outline>
</glyph>
<glyph name="xi" format="2">
  <advance width="678.814953271028"/>
  <unicode hex="03BE"/>
  <outline>
    <contour>
      <point x="464.3621495327102" y="-348.0" type="line"/>
      <point x="470.94158878504663" y="-324.89682428976613"/>
      <point x="472.2593457943925" y="-288.14883526293767"/>
      <point x="472.2593457943925" y="-260.332403403543" type="qcurve"/>
      <point x="472.2593457943925" y="-210.81415353140835"/>
      <point x="416.389210489608" y="-115.55163435160644"/>
      <point x="332.9406123587669" y="-93.37406425814851" type="qcurve" smooth="yes"/>
      <point x="203.5574347886735" y="-60.673129678709245" type="line" smooth="yes"/>
      <point x="73.41724787278561" y="-26.04696145441018"/>
      <point x="21.25" y="180.27595666527176"/>
      <point x="21.25" y="345.03003673222673" type="qcurve"/>
      <point x="21.25" y="543.9906542056075"/>
      <point x="122.77336448598129" y="722.5233644859813"/>
      <point x="186.27803738317755" y="767.0" type="qcurve"/>
      <point x="186.27803738317755" y="743.0" type="line"/>
      <point x="104.02570093457945" y="785.3177570093458"/>
      <point x="42.82943925233644" y="932.2149532710281"/>
      <point x="42.25" y="1045.214953271028" type="qcurve"/>
      <point x="42.25" y="1195.5233644859813"/>
      <point x="250.66121495327104" y="1358.5233644859813"/>
      <point x="396.3621495327102" y="1393.0" type="qcurve"/>
      <point x="396.3621495327102" y="1094.8955223880598" type="line"/>
      <point x="33.25" y="1094.8955223880598" type="line"/>
      <point x="33.25" y="1536.0" type="line"/>
      <point x="562.3621495327102" y="1536.0" type="line"/>
      <point x="562.3621495327102" y="1094.8955223880598" type="line"/>
      <point x="544.3969754033569" y="1089.9800995024875"/>
      <point x="505.3621495327102" y="1050.5024875621891"/>
      <point x="505.3621495327102" y="1024.1791044776119" type="qcurve" smooth="yes"/>
      <point x="505.3621495327102" y="1005.3930348258707"/>
      <point x="515.3621495327102" y="977.9502487562189"/>
      <point x="525.3621495327102" y="972.0199004975125" type="qcurve" smooth="yes"/>
      <point x="544.3621495327102" y="972.0199004975125" type="line"/>
      <point x="544.3621495327102" y="560.5671641791045" type="line"/>
      <point x="525.3621495327102" y="560.5671641791045" type="line" smooth="yes"/>
      <point x="495.3621495327102" y="560.5671641791045"/>
      <point x="500.64424373459804" y="567.3635560515181"/>
      <point x="500.64424373459804" y="540.4011252150462" type="qcurve"/>
      <point x="500.64424373459804" y="524.7322267168829"/>
      <point x="500.9824127028409" y="480.3971730134375"/>
      <point x="453.1441739898638" y="488.07179057981125" type="qcurve" smooth="yes"/>
      <point x="469.7197540335705" y="481.93416097084673" type="line" smooth="yes"/>
      <point x="560.2847328776677" y="458.6346770818803"/>
      <point x="664.464953271028" y="178.09206304923975"/>
      <point x="664.464953271028" y="-18.524108429813552" type="qcurve"/>
      <point x="664.464953271028" y="-81.52410842981355"/>
      <point x="649.3621495327102" y="-278.0"/>
      <point x="634.3621495327102" y="-348.0" type="qcurve"/>
    </contour>
  </outline>
</glyph>
<glyph name="pi" format="2">
  <advance width="1063.7242990654204"/>
  <unicode hex="03C0"/>
  <outline>
    <contour>
      <point x="8.5" y="504.5472636815921" type="line"/>
      <point x="8.5" y="916.0" type="line"/>
      <point x="1038.7242990654204" y="916.0" type="line"/>
      <point x="1038.7242990654204" y="504.5472636815921" type="line"/>
    </contour>
    <contour>
      <point x="38.5" y="0.0" type="line"/>
      <point x="38.5" y="835.0" type="line"/>
      <point x="508.6121495327102" y="835.0" type="line"/>
      <point x="508.6121495327102" y="0.0" type="line"/>
    </contour>
    <contour>
      <point x="837.6682242990655" y="-30.0" type="qcurve" smooth="yes"/>
      <point x="708.6308411214955" y="-30.0"/>
      <point x="538.6121495327102" y="134.87850467289718"/>
      <point x="538.6121495327102" y="320.97196261682245" type="qcurve"/>
      <point x="538.6121495327102" y="916.0" type="line"/>
      <point x="1008.7242990654204" y="916.0" type="line"/>
      <point x="1008.7242990654204" y="501.3880597014925" type="line"/>
      <point x="1008.7242990654204" y="444.3333333333333"/>
      <point x="1014.7242990654204" y="398.3482587064676"/>
      <point x="1028.7242990654204" y="398.3482587064676" type="qcurve"/>
      <point x="1034.7242990654204" y="398.3482587064676"/>
      <point x="1044.7242990654204" y="405.1243781094527"/>
      <point x="1047.7242990654204" y="407.9004975124378" type="qcurve"/>
      <point x="1047.7242990654204" y="-8.0" type="line"/>
      <point x="1013.3130841121495" y="-19.8411214953271"/>
      <point x="910.5467289719627" y="-30.0"/>
    </contour>
  </outline>
</glyph>
<glyph name="rho" format="2">
  <advance width="1024.0434579439252"/>
  <unicode hex="03C1"/>
  <outline>
    <contour>
      <point x="28.569158878504666" y="-416.0" type="line"/>
      <point x="28.569158878504666" y="428.25233644859816" type="line" smooth="yes"/>
      <point x="28.569158878504666" y="688.2822429906543"/>
      <point x="248.1418691588785" y="942.8"/>
      <point x="513.681308411215" y="942.8" type="qcurve" smooth="yes"/>
      <point x="758.7373831775701" y="942.8"/>
      <point x="1002.7934579439252" y="685.44"/>
      <point x="1002.7934579439252" y="484.0" type="qcurve" smooth="yes"/>
      <point x="1002.7934579439252" y="452.0" type="line" smooth="yes"/>
      <point x="1002.7934579439252" y="247.84"/>
      <point x="776.0973831775701" y="-20.0"/>
      <point x="632.0738317757009" y="-20.0" type="qcurve" smooth="yes"/>
      <point x="503.68130841121496" y="-20.0"/>
      <point x="339.1306969823778" y="147.9715906449063"/>
      <point x="315.76542056074766" y="263.0" type="qcurve"/>
      <point x="315.76542056074766" y="554.6682475473102" type="line"/>
      <point x="365.4943925233644" y="518.1575766029664"/>
      <point x="485.9242990654206" y="396.6417910447761"/>
      <point x="508.68130841121496" y="396.6417910447761" type="qcurve" smooth="yes"/>
      <point x="514.841308411215" y="396.6417910447761"/>
      <point x="528.681308411215" y="425.572736318408"/>
      <point x="528.681308411215" y="454.22388059701495" type="qcurve" smooth="yes"/>
      <point x="528.681308411215" y="464.72636815920396" type="line" smooth="yes"/>
      <point x="528.681308411215" y="489.2362189054727"/>
      <point x="511.441308411215" y="522.4517412935323"/>
      <point x="513.681308411215" y="522.4517412935323" type="qcurve" smooth="yes"/>
      <point x="494.841308411215" y="522.4517412935323"/>
      <point x="498.68130841121496" y="474.1522388059701"/>
      <point x="498.68130841121496" y="462.43283582089555" type="qcurve" smooth="yes"/>
      <point x="498.68130841121496" y="-416.0" type="line"/>
    </contour>
  </outline>
</glyph>
<glyph name="finalsigma" format="2">
  <advance width="969.8102803738317"/>
  <unicode hex="03C2"/>
  <outline>
    <contour>
      <point x="464.3621495327102" y="-348.0" type="line"/>
      <point x="476.59281861719444" y="-297.9341609708467"/>
      <point x="479.3621495327102" y="-245.6500209234203"/>
      <point x="479.3621495327102" y="-228.6118473055284" type="qcurve"/>
      <point x="479.3621495327102" y="-188.88547914632443"/>
      <point x="406.321232621937" y="-114.68628818524202"/>
      <point x="361.9380550518436" y="-103.87320407309248" type="qcurve" smooth="yes"/>
      <point x="307.13431673408655" y="-91.06011996094296" type="line" smooth="yes"/>
      <point x="216.02927000511465" y="-69.21899846561584"/>
      <point x="21.25" y="142.59004975124378"/>
      <point x="21.25" y="437.0" type="qcurve" smooth="yes"/>
      <point x="21.25" y="474.0" type="line" smooth="yes"/>
      <point x="21.25" y="691.76"/>
      <point x="263.3528037383178" y="946.0"/>
      <point x="510.3621495327102" y="946.0" type="qcurve" smooth="yes"/>
      <point x="760.5453884781699" y="946.0"/>
      <point x="953.9602803738317" y="703.2236815920398"/>
      <point x="953.9602803738317" y="489.81691542288553" type="qcurve" smooth="yes"/>
      <point x="953.9602803738317" y="483.3343283582089" type="line"/>
      <point x="525.3621495327102" y="484.81691542288553" type="line"/>
      <point x="525.3621495327102" y="486.11044776119405" type="line" smooth="yes"/>
      <point x="525.3621495327102" y="501.9804975124378"/>
      <point x="503.0896261682243" y="515.9839122146278"/>
      <point x="503.9696261682243" y="515.9839122146278" type="qcurve"/>
      <point x="493.2896261682243" y="515.9839122146278"/>
      <point x="495.3621495327102" y="514.6553587204165"/>
      <point x="495.3621495327102" y="519.5140186915888" type="qcurve" smooth="yes"/>
      <point x="495.3621495327102" y="480.51401869158883" type="line" smooth="yes"/>
      <point x="495.3621495327102" y="445.47312967870926"/>
      <point x="518.2260301297251" y="443.24485981308413"/>
      <point x="516.3621495327102" y="436.7145115543776" type="qcurve" smooth="yes"/>
      <point x="526.3621495327102" y="432.49063095736267" type="line" smooth="yes"/>
      <point x="600.4666271446505" y="411.7841632956712"/>
      <point x="685.7733644859813" y="144.94792393174313"/>
      <point x="685.7733644859813" y="-5.059794485516349" type="qcurve"/>
      <point x="685.7733644859813" y="-108.83093876412332"/>
      <point x="655.0443925233644" y="-275.86915887850466"/>
      <point x="634.3621495327102" y="-348.0" type="qcurve"/>
    </contour>
  </outline>
</glyph>
<glyph name="sigma" format="2">
  <advance width="1107.446261682243"/>
  <unicode hex="03C3"/>
  <outline>
    <contour>
      <point x="521.0163551401869" y="-30.0" type="qcurve" smooth="yes"/>
      <point x="271.57336448598136" y="-30.0"/>
      <point x="21.25" y="217.36"/>
      <point x="21.25" y="413.0" type="qcurve" smooth="yes"/>
      <point x="21.25" y="444.0" type="line" smooth="yes"/>
      <point x="21.25" y="661.12"/>
      <point x="276.21635514018686" y="928.785046728972"/>
      <point x="590.3621495327102" y="916.0" type="qcurve"/>
      <point x="1091.446261682243" y="916.0" type="line"/>
      <point x="1091.446261682243" y="517.1492537313433" type="line"/>
      <point x="762.6985981308412" y="517.1492537313433" type="line"/>
      <point x="762.6985981308412" y="790.6" type="line"/>
      <point x="875.0152336448599" y="747.68"/>
      <point x="1021.4929906542056" y="568.92"/>
      <point x="1021.4929906542056" y="458.0" type="qcurve" smooth="yes"/>
      <point x="1021.4929906542056" y="427.0" type="line" smooth="yes"/>
      <point x="1021.4929906542056" y="227.28"/>
      <point x="771.4593457943927" y="-30.0"/>
    </contour>
    <contour>
      <point x="520.7266355140187" y="395.5373134328358" type="qcurve" smooth="yes"/>
      <point x="520.4866355140186" y="395.5373134328358"/>
      <point x="536.7266355140187" y="425.98766169154226"/>
      <point x="536.7266355140187" y="451.46268656716416" type="qcurve" smooth="yes"/>
      <point x="536.7266355140187" y="461.7064676616916" type="line" smooth="yes"/>
      <point x="536.7266355140187" y="472.70925373134327"/>
      <point x="538.1666355140187" y="531.8306467661691"/>
      <point x="526.7266355140187" y="516.8905472636816" type="qcurve"/>
      <point x="530.0866355140187" y="512.50407960199"/>
      <point x="506.72663551401865" y="504.2183084577115"/>
      <point x="506.72663551401865" y="460.67164179104475" type="qcurve" smooth="yes"/>
      <point x="506.72663551401865" y="450.4278606965174" type="line" smooth="yes"/>
      <point x="506.72663551401865" y="425.5715422885572"/>
      <point x="520.9666355140187" y="395.5373134328358"/>
    </contour>
  </outline>
</glyph>
<glyph name="tau" format="2">
  <advance width="563.6121495327102"/>
  <unicode hex="03C4"/>
  <outline>
    <contour>
      <point x="8.5" y="517.1492537313433" type="line"/>
      <point x="8.5" y="916.0" type="line"/>
      <point x="538.6121495327102" y="916.0" type="line"/>
      <point x="538.6121495327102" y="517.1492537313433" type="line"/>
    </contour>
    <contour>
      <point x="310.5654205607476" y="-30.0" type="qcurve" smooth="yes"/>
      <point x="155.24766355140184" y="-30.0"/>
      <point x="38.5" y="139.1214953271028"/>
      <point x="38.5" y="346.6542056074766" type="qcurve" smooth="yes"/>
      <point x="38.5" y="835.0" type="line"/>
      <point x="508.6121495327102" y="835.0" type="line"/>
      <point x="508.6121495327102" y="494.99004975124376" type="line" smooth="yes"/>
      <point x="508.6121495327102" y="442.03980099502485"/>
      <point x="514.6121495327102" y="396.86567164179104"/>
      <point x="528.6121495327102" y="396.86567164179104" type="qcurve" smooth="yes"/>
      <point x="534.6121495327102" y="396.86567164179104"/>
      <point x="544.6121495327102" y="408.86567164179104"/>
      <point x="547.6121495327102" y="418.86567164179104" type="qcurve"/>
      <point x="547.6121495327102" y="0.0" type="line"/>
      <point x="531.6682242990654" y="-11.289719626168225"/>
      <point x="451.63084112149534" y="-30.0"/>
    </contour>
  </outline>
</glyph>
<glyph name="upsilon" format="2">
  <advance width="744.5121495327102"/>
  <unicode hex="03C5"/>
  <anchor x="514.3121495327102" y="916.0" name="top"/>
  <outline>
    <contour>
      <point x="370.2560747663551" y="-20.0" type="qcurve" smooth="yes"/>
      <point x="187.25607476635514" y="-20.0"/>
      <point x="29.200000000000003" y="201.0"/>
      <point x="29.200000000000003" y="403.0" type="qcurve" smooth="yes"/>
      <point x="29.200000000000003" y="916.0" type="line"/>
      <point x="499.3121495327102" y="916.0" type="line"/>
      <point x="499.3121495327102" y="595.9601990049752" type="line" smooth="yes"/>
      <point x="499.3121495327102" y="502.5771144278607"/>
      <point x="504.3121495327102" y="399.9004975124378"/>
      <point x="512.3121495327102" y="399.9004975124378" type="qcurve" smooth="yes"/>
      <point x="524.3121495327102" y="399.9004975124378"/>
      <point x="528.40900172037" y="502.5771144278607"/>
      <point x="529.3121495327102" y="595.9601990049752" type="qcurve" smooth="yes"/>
      <point x="529.3121495327102" y="916.0" type="line"/>
      <point x="715.3121495327102" y="916.0" type="line"/>
      <point x="715.3121495327102" y="403.0" type="line" smooth="yes"/>
      <point x="715.3121495327102" y="201.0"/>
      <point x="552.5457943925234" y="-20.0"/>
    </contour>
  </outline>
</glyph>
<glyph name="phi" format="2">
  <advance width="1542.1448598130842"/>
  <unicode hex="03C6"/>
  <outline>
    <contour>
      <point x="536.0163551401869" y="-416.0" type="line"/>
      <point x="536.0163551401869" y="45.0" type="line"/>
      <point x="536.0163551401869" y="89.0" type="line"/>
      <point x="536.0163551401869" y="845.0" type="line"/>
      <point x="536.0163551401869" y="886.0" type="line"/>
      <point x="536.0163551401869" y="1400.0" type="line"/>
      <point x="1006.1285046728972" y="1400.0" type="line"/>
      <point x="1006.1285046728972" y="886.0" type="line"/>
      <point x="1006.1285046728972" y="843.0" type="line"/>
      <point x="1006.1285046728972" y="85.0" type="line"/>
      <point x="1006.1285046728972" y="45.0" type="line"/>
      <point x="1006.1285046728972" y="-416.0" type="line"/>
    </contour>
    <contour>
      <point x="493.39953271028037" y="-30.0" type="line"/>
      <point x="234.18046728971964" y="-20.0"/>
      <point x="21.25" y="226.88"/>
      <point x="21.25" y="442.0" type="qcurve" smooth="yes"/>
      <point x="21.25" y="474.0" type="line" smooth="yes"/>
      <point x="21.25" y="689.12"/>
      <point x="234.18046728971964" y="936.0"/>
      <point x="493.39953271028037" y="946.0" type="qcurve"/>
      <point x="1048.7453271028037" y="946.0" type="line"/>
      <point x="1307.9643925233645" y="936.0"/>
      <point x="1520.8948598130842" y="689.12"/>
      <point x="1520.8948598130842" y="474.0" type="qcurve" smooth="yes"/>
      <point x="1520.8948598130842" y="442.0" type="line" smooth="yes"/>
      <point x="1520.8948598130842" y="226.88"/>
      <point x="1307.9643925233645" y="-20.0"/>
      <point x="1048.7453271028037" y="-30.0" type="qcurve"/>
    </contour>
    <contour>
      <point x="536.0163551401869" y="389.60696517412936" type="qcurve"/>
      <point x="1006.1285046728972" y="389.60696517412936" type="line"/>
      <point x="1014.1285046728972" y="392.25532338308454"/>
      <point x="1036.1285046728972" y="422.15343283582087"/>
      <point x="1036.1285046728972" y="453.860696517413" type="qcurve" smooth="yes"/>
      <point x="1036.1285046728972" y="465.1044776119403" type="line" smooth="yes"/>
      <point x="1036.1285046728972" y="496.07044776119403"/>
      <point x="1014.1285046728972" y="526.7098507462687"/>
      <point x="1006.1285046728972" y="529.358208955224" type="qcurve"/>
      <point x="536.0163551401869" y="529.358208955224" type="line"/>
      <point x="528.0163551401869" y="526.7098507462687"/>
      <point x="506.0163551401869" y="496.07044776119403"/>
      <point x="506.0163551401869" y="465.1044776119403" type="qcurve" smooth="yes"/>
      <point x="506.0163551401869" y="453.860696517413" type="line" smooth="yes"/>
      <point x="506.0163551401869" y="422.15343283582087"/>
      <point x="528.0163551401869" y="392.25532338308454"/>
    </contour>
  </outline>
</glyph>
<glyph name="chi" format="2">
  <advance width="848.1401869158879"/>
  <unicode hex="03C7"/>
  <outline>
    <contour>
      <point x="267.5" y="-416.0" type="line"/>
      <point x="188.5" y="202.0" type="line"/>
      <point x="179.5" y="202.0" type="line"/>
      <point x="15.5" y="916.0" type="line"/>
      <point x="583.6401869158879" y="916.0" type="line"/>
      <point x="638.6401869158879" y="350.0" type="line"/>
      <point x="648.6401869158879" y="350.0" type="line"/>
      <point x="836.6401869158879" y="-416.0" type="line"/>
    </contour>
    <contour>
      <point x="11.5" y="-416.0" type="line"/>
      <point x="202.5" y="370.0" type="line"/>
      <point x="574.6401869158879" y="370.0" type="line"/>
      <point x="616.6401869158879" y="916.0" type="line"/>
      <point x="826.6401869158879" y="916.0" type="line"/>
      <point x="673.6401869158879" y="215.0" type="line"/>
      <point x="301.5" y="215.0" type="line"/>
      <point x="221.5" y="-416.0" type="line"/>
    </contour>
  </outline>
</glyph>
<glyph name="omega" format="2">
  <advance width="1513.892523364486"/>
  <unicode hex="03C9"/>
  <anchor x="757.2359813084113" y="916.0" name="top"/>
  <outline>
    <contour>
      <point x="363.3014018691589" y="-30.0" type="qcurve" smooth="yes"/>
      <point x="193.39224299065424" y="-30.0"/>
      <point x="22.75" y="191.8"/>
      <point x="22.75" y="405.0" type="qcurve"/>
      <point x="22.75" y="568.72"/>
      <point x="76.9073831775701" y="817.12"/>
      <point x="135.3014018691589" y="916.0" type="qcurve"/>
      <point x="521.7593457943925" y="916.0" type="line"/>
      <point x="518.102629376482" y="831.1691542288557"/>
      <point x="489.7593457943925" y="633.7048756218904"/>
      <point x="489.7593457943925" y="528.2786069651742" type="qcurve"/>
      <point x="489.7593457943925" y="471.340895522388"/>
      <point x="496.79934579439254" y="392.86567164179104"/>
      <point x="495.462864648719" y="392.86567164179104" type="qcurve" smooth="yes"/>
      <point x="514.7593457943925" y="392.86567164179104"/>
      <point x="519.7593457943925" y="482.6602985074627"/>
      <point x="519.7593457943925" y="579.7233830845771" type="qcurve" smooth="yes"/>
      <point x="519.7593457943925" y="817.0845771144278" type="line"/>
      <point x="989.8714953271028" y="817.0845771144278" type="line"/>
      <point x="989.8714953271028" y="579.7233830845771" type="line" smooth="yes"/>
      <point x="989.8714953271028" y="482.6602985074627"/>
      <point x="995.5514953271028" y="392.86567164179104"/>
      <point x="1014.1679764727764" y="392.86567164179104" type="qcurve" smooth="yes"/>
      <point x="1012.8314953271029" y="392.86567164179104"/>
      <point x="1019.8714953271028" y="481.71900497512434"/>
      <point x="1019.8714953271028" y="526.7960199004975" type="qcurve"/>
      <point x="1019.8714953271028" y="634.4461691542288"/>
      <point x="993.6907988096898" y="831.9717412935324"/>
      <point x="987.8714953271028" y="916.0" type="qcurve"/>
      <point x="1378.5911214953271" y="916.0" type="line"/>
      <point x="1436.985140186916" y="817.12"/>
      <point x="1491.142523364486" y="568.72"/>
      <point x="1491.142523364486" y="405.0" type="qcurve"/>
      <point x="1491.142523364486" y="191.8"/>
      <point x="1321.9208411214954" y="-30.0"/>
      <point x="1146.3294392523364" y="-30.0" type="qcurve" smooth="yes"/>
      <point x="954.9275700934579" y="-30.0"/>
      <point x="795.8808411214952" y="110.2803738317757"/>
      <point x="753.6285046728972" y="249.6448598130841" type="qcurve"/>
      <point x="758.8434579439252" y="249.6448598130841" type="line"/>
      <point x="728.6658878504672" y="110.99065420560748"/>
      <point x="549.0210280373832" y="-30.0"/>
    </contour>
  </outline>
</glyph>
<glyph name="kaisymbol" format="2">
  <advance width="1073.5507113962897"/>
  <unicode hex="03D7"/>
  <outline>
    <contour>
      <point x="30.700000000000003" y="0.0" type="line"/>
      <point x="30.700000000000003" y="916.0" type="line"/>
      <point x="500.8121495327102" y="916.0" type="line"/>
      <point x="500.8121495327102" y="0.0" type="line"/>
    </contour>
    <contour>
      <point x="278.7560747663551" y="397.0" type="line"/>
      <point x="278.7560747663551" y="542.0" type="line"/>
      <point x="491.3474729157948" y="542.0" type="line"/>
      <point x="486.3345375924117" y="916.0" type="line"/>
      <point x="961.5633933138047" y="916.0" type="line"/>
      <point x="1044.168917096759" y="688.5515878551168" type="line"/>
      <point x="1087.2982238341006" y="293.52592179290457" type="line"/>
      <point x="515.8121495327102" y="-590.0" type="line"/>
      <point x="270.3096619705211" y="-307.9651741293533" type="line"/>
      <point x="585.6678709257451" y="344.53233830845767" type="line"/>
      <point x="860.7703584879341" y="397.0" type="line"/>
    </contour>
  </outline>
</glyph>
<glyph name="Dje" format="2">
  <advance width="1181.0789719626168"/>
  <unicode hex="0402"/>
  <guideline x="568.0" y="625.0" angle="90.0" identifier="YDADns81zF"/>
  <outline>
    <contour>
      <point x="112.1" y="0.0" type="line"/>
      <point x="112.1" y="1378.0" type="line"/>
      <point x="600.9971962616822" y="1378.0" type="line"/>
      <point x="600.9971962616822" y="0.0" type="line"/>
    </contour>
    <contour>
      <point x="610.9971962616822" y="0.0" type="line"/>
      <point x="610.9971962616822" y="340.636815920398" type="line"/>
      <point x="618.9971962616822" y="340.636815920398" type="line" smooth="yes"/>
      <point x="628.9971962616822" y="340.636815920398"/>
      <point x="630.9971962616822" y="374.681592039801"/>
      <point x="630.9971962616822" y="402.55223880597015" type="qcurve" smooth="yes"/>
      <point x="630.9971962616822" y="406.69154228855723" type="line" smooth="yes"/>
      <point x="630.9971962616822" y="441.28855721393035"/>
      <point x="625.9971962616822" y="479.99004975124376"/>
      <point x="642.2775700934579" y="479.99004975124376" type="qcurve" smooth="yes"/>
      <point x="598.4604061043523" y="479.99004975124376"/>
      <point x="537.9971962616822" y="474.55721393034827"/>
      <point x="470.9037383177571" y="459.60101362347143" type="qcurve"/>
      <point x="470.9037383177571" y="836.2826056632724" type="line"/>
      <point x="536.9971962616822" y="867.5472636815921"/>
      <point x="641.8748751442346" y="890.0298507462686"/>
      <point x="692.2121495327102" y="890.0298507462686" type="qcurve" smooth="yes"/>
      <point x="890.1280373831775" y="890.0298507462686"/>
      <point x="1131.9691588785045" y="652.9104477611941"/>
      <point x="1131.9691588785045" y="452.0149253731343" type="qcurve" smooth="yes"/>
      <point x="1131.9691588785045" y="428.27363184079604" type="line" smooth="yes"/>
      <point x="1131.9691588785045" y="246.11940298507463"/>
      <point x="878.4738317757009" y="0.0"/>
      <point x="675.8196261682243" y="0.0" type="qcurve" smooth="yes"/>
    </contour>
    <contour>
      <point x="12.1" y="1000.0" type="line"/>
      <point x="12.1" y="1456.0" type="line"/>
      <point x="700.9971962616822" y="1456.0" type="line"/>
      <point x="700.9971962616822" y="1000.0" type="line"/>
    </contour>
  </outline>
</glyph>
